<svg xmlns="http://www.w3.org/2000/svg" width="22" height="42.004" viewBox="0 0 22 42.004">
  <defs>
    <style>
      .cls-1 {
        opacity: 0.4;
      }

      .cls-2 {
        fill: #ffd294;
      }

      .cls-3 {
        fill: #ffbe5c;
      }

      .cls-4 {
        fill: #ffa011;
      }
    </style>
  </defs>
  <g id="baterry" class="cls-1" transform="translate(-1014 19981)">
    <g id="Grupo_394" data-name="Grupo 394">
      <path id="Caminho_1566" data-name="Caminho 1566" class="cls-2" d="M21,16v9H1V16H21Z" transform="translate(1014 -19991.998)"/>
      <path id="Caminho_1567" data-name="Caminho 1567" class="cls-2" d="M1,34H21v9H1Z" transform="translate(1014 -19991.998)"/>
      <path id="Caminho_1568" data-name="Caminho 1568" class="cls-3" d="M16,12v4H6V12H16Z" transform="translate(1014 -19991.998)"/>
      <path id="Caminho_1569" data-name="Caminho 1569" class="cls-2" d="M1,25H21v9H1Z" transform="translate(1014 -19991.998)"/>
      <path id="Caminho_1570" data-name="Caminho 1570" class="cls-2" d="M1,43H21v9H1Z" transform="translate(1014 -19991.998)"/>
      <path id="Caminho_1573" data-name="Caminho 1573" class="cls-4" d="M21,53H1a1,1,0,0,1-1-1V16a1,1,0,0,1,1-1H21a1,1,0,0,1,1,1V52A1,1,0,0,1,21,53ZM2,51H20V17H2Z" transform="translate(1014 -19991.998)"/>
      <path id="Caminho_1574" data-name="Caminho 1574" class="cls-4" d="M21,44H1a1,1,0,0,1,0-2H21a1,1,0,0,1,0,2Z" transform="translate(1014 -19991.998)"/>
      <path id="Caminho_1575" data-name="Caminho 1575" class="cls-4" d="M21,35H1a1,1,0,0,1,0-2H21a1,1,0,0,1,0,2Z" transform="translate(1014 -19991.998)"/>
      <path id="Caminho_1576" data-name="Caminho 1576" class="cls-4" d="M21,26H1a1,1,0,0,1,0-2H21a1,1,0,0,1,0,2Z" transform="translate(1014 -19991.998)"/>
      <path id="Caminho_1577" data-name="Caminho 1577" class="cls-4" d="M6,17a1,1,0,0,1-1-1V12a1,1,0,0,1,2,0v4A1,1,0,0,1,6,17Z" transform="translate(1014 -19991.998)"/>
      <path id="Caminho_1578" data-name="Caminho 1578" class="cls-4" d="M16,13H6.1a1,1,0,0,1,0-2H16a1,1,0,0,1,0,2Z" transform="translate(1014 -19991.998)"/>
      <path id="Caminho_1579" data-name="Caminho 1579" class="cls-4" d="M16,17a1,1,0,0,1-1-1V12a1,1,0,0,1,2,0v4A1,1,0,0,1,16,17Z" transform="translate(1014 -19991.998)"/>
    </g>
  </g>
</svg>
