<svg xmlns="http://www.w3.org/2000/svg" width="48.812" height="66.467" viewBox="0 0 48.812 66.467">
  <defs>
    <style>
      .cls-1 {
        opacity: 0.2;
      }

      .cls-2 {
        fill: #ffd294;
      }

      .cls-3 {
        fill: #ffbe5c;
      }

      .cls-4 {
        fill: #d7e9ff;
      }

      .cls-5 {
        fill: #656d78;
      }

      .cls-6 {
        fill: #ffd494;
      }

      .cls-7 {
        fill: #ff9c22;
      }

      .cls-8 {
        fill: #ffedd7;
      }

      .cls-9 {
        fill: #fff;
      }

      .cls-10 {
        fill: #ffa011;
      }
    </style>
  </defs>
  <g id="cooler" class="cls-1">
    <rect id="Retângulo_385" data-name="Retângulo 385" class="cls-2" width="10.386" height="8.307" transform="translate(19.213 57.639)"/>
    <rect id="Retângulo_386" data-name="Retângulo 386" class="cls-3" width="4.154" height="1.038" transform="translate(22.329 62.832)"/>
    <rect id="Retângulo_387" data-name="Retângulo 387" class="cls-4" width="2.077" height="4.154" transform="translate(23.367 53.485)"/>
    <path id="Caminho_726" data-name="Caminho 726" class="cls-5" d="M115.614,44h-8.542a21.809,21.809,0,1,1-22.381,0H76.149a4.166,4.166,0,0,0-4.154,4.154V87.616a4.166,4.166,0,0,0,4.154,4.154h39.464a4.166,4.166,0,0,0,4.154-4.154V48.151A4.166,4.166,0,0,0,115.614,44Z" transform="translate(-71.476 -38.285)"/>
    <path id="Caminho_727" data-name="Caminho 727" class="cls-3" d="M115.614,44h-8.542a21.809,21.809,0,1,1-22.381,0H76.149a4.166,4.166,0,0,0-4.154,4.154V87.616a4.166,4.166,0,0,0,4.154,4.154h39.464a4.166,4.166,0,0,0,4.154-4.154V48.151A4.166,4.166,0,0,0,115.614,44Z" transform="translate(-71.476 -38.285)"/>
    <path id="Caminho_728" data-name="Caminho 728" class="cls-6" d="M74.073,87.616V48.151A4.166,4.166,0,0,1,78.227,44H76.15A4.166,4.166,0,0,0,72,48.151V87.616A4.166,4.166,0,0,0,76.15,91.77h2.077A4.166,4.166,0,0,1,74.073,87.616Z" transform="translate(-71.477 -38.285)"/>
    <path id="Caminho_729" data-name="Caminho 729" class="cls-7" d="M396.13,87.616V48.151A4.166,4.166,0,0,0,391.976,44h2.077a4.166,4.166,0,0,1,4.154,4.154V87.616a4.166,4.166,0,0,1-4.154,4.154h-2.077A4.166,4.166,0,0,0,396.13,87.616Z" transform="translate(-349.915 -38.285)"/>
    <g id="Grupo_279" data-name="Grupo 279" transform="translate(4.934 53.485)">
      <path id="Caminho_730" data-name="Caminho 730" class="cls-4" d="M113.01,418.595v2.726L106,411.974h2.1Z" transform="translate(-106.001 -411.974)"/>
      <path id="Caminho_731" data-name="Caminho 731" class="cls-4" d="M351.978,418.595v2.726l7.009-9.347h-2.1Z" transform="translate(-320.044 -411.974)"/>
      <path id="Caminho_732" data-name="Caminho 732" class="cls-4" d="M163.106,422.359a1.038,1.038,0,0,1-1.039-1.038v-9.347H159.99v9.347a3.114,3.114,0,0,0,3.116,3.116h4.154v-2.077Z" transform="translate(-152.981 -411.974)"/>
      <path id="Caminho_733" data-name="Caminho 733" class="cls-4" d="M300.136,422.359a1.038,1.038,0,0,0,1.038-1.038v-9.347h2.077v9.347a3.114,3.114,0,0,1-3.116,3.116h-4.154v-2.077Z" transform="translate(-271.318 -411.974)"/>
    </g>
    <path id="Caminho_734" data-name="Caminho 734" class="cls-2" d="M115.614,4H76.149a4.166,4.166,0,0,0-4.154,4.154V47.619a4.166,4.166,0,0,0,4.154,4.154h39.465a4.166,4.166,0,0,0,4.154-4.154V8.154A4.166,4.166,0,0,0,115.614,4ZM95.881,49.7a21.809,21.809,0,1,1,21.809-21.809A21.81,21.81,0,0,1,95.881,49.7Z" transform="translate(-71.476 -3.48)"/>
    <path id="Caminho_735" data-name="Caminho 735" class="cls-8" d="M74.072,47.619V8.154A4.166,4.166,0,0,1,78.226,4H76.149a4.166,4.166,0,0,0-4.154,4.154V47.619a4.166,4.166,0,0,0,4.154,4.154h2.077A4.166,4.166,0,0,1,74.072,47.619Z" transform="translate(-71.476 -3.48)"/>
    <path id="Caminho_736" data-name="Caminho 736" class="cls-3" d="M396.131,47.619V8.154A4.166,4.166,0,0,0,391.977,4h2.077a4.166,4.166,0,0,1,4.154,4.154V47.619a4.166,4.166,0,0,1-4.154,4.154h-2.077A4.166,4.166,0,0,0,396.131,47.619Z" transform="translate(-349.916 -3.48)"/>
    <g id="Grupo_280" data-name="Grupo 280" transform="translate(22.33 4.675)">
      <path id="Caminho_737" data-name="Caminho 737" class="cls-8" d="M284.493,221.848c-1.8-1.039-5.154.621-5.154.621l-6.4-3.647-2.958,1.958s4.147,10.544,6.7,10.311c5.14-.466,8.57-6.407,8.57-6.407A2.033,2.033,0,0,0,284.493,221.848Z" transform="translate(-266.09 -195.088)"/>
      <path id="Caminho_738" data-name="Caminho 738" class="cls-8" d="M309.48,103.979c-1.8,1.038-2.04,4.774-2.04,4.774l-6.357,3.718.217,3.54s11.205,1.681,12.28-.647c2.166-4.685-1.264-10.625-1.264-10.625A2.033,2.033,0,0,0,309.48,103.979Z" transform="translate(-293.153 -94.873)"/>
      <path id="Caminho_739" data-name="Caminho 739" class="cls-8" d="M239.993,38.081c0,2.077,3.115,4.153,3.115,4.153l.042,7.365,3.174,1.582s7.058-8.863,5.58-10.958C248.929,36,242.07,36,242.07,36A2.033,2.033,0,0,0,239.993,38.081Z" transform="translate(-239.993 -36.005)"/>
    </g>
    <g id="Grupo_281" data-name="Grupo 281" transform="translate(24.08 4.675)">
      <path id="Caminho_740" data-name="Caminho 740" class="cls-2" d="M325.994,239.851a3.4,3.4,0,0,0-2.046-.309,2.625,2.625,0,0,1,1.007.309,2.033,2.033,0,0,1,.761,2.837s-3.2,5.515-8.041,6.322a1.108,1.108,0,0,0,.509.084c5.14-.466,8.57-6.407,8.57-6.407A2.033,2.033,0,0,0,325.994,239.851Z" transform="translate(-309.34 -213.09)"/>
      <path id="Caminho_741" data-name="Caminho 741" class="cls-2" d="M359.282,104.772a2.092,2.092,0,0,0-2.272-1,2.442,2.442,0,0,1,1.233,1s3.43,5.941,1.264,10.625c-.409.885-2.285,1.19-4.451,1.229,2.58.044,5.016-.2,5.49-1.229C362.712,110.713,359.282,104.772,359.282,104.772Z" transform="translate(-341.868 -94.907)"/>
      <path id="Caminho_742" data-name="Caminho 742" class="cls-2" d="M263.636,40.224c-2.975-4.219-9.834-4.218-9.834-4.218a2.211,2.211,0,0,0-.327.032c1.828.13,6.728.792,9.122,4.186,1.3,1.839-3.979,8.888-5.289,10.585l.747.373S265.114,42.319,263.636,40.224Z" transform="translate(-253.476 -36.006)"/>
    </g>
    <g id="Grupo_282" data-name="Grupo 282" transform="translate(5.336 8.128)">
      <path id="Caminho_743" data-name="Caminho 743" class="cls-4" d="M123.124,71.855c1.8,1.038,5.154-.621,5.154-.621l6.4,3.647,2.956-1.958s-4.147-10.544-6.7-10.311c-5.141.467-8.57,6.407-8.57,6.407A2.033,2.033,0,0,0,123.124,71.855Z" transform="translate(-120.383 -62.607)"/>
      <path id="Caminho_744" data-name="Caminho 744" class="cls-4" d="M113.918,185.248c1.8-1.037,2.04-4.774,2.04-4.774l6.357-3.719-.217-3.54s-11.2-1.68-12.28.647c-2.166,4.686,1.264,10.626,1.264,10.626A2.033,2.033,0,0,0,113.918,185.248Z" transform="translate(-109.1 -158.346)"/>
      <path id="Caminho_745" data-name="Caminho 745" class="cls-4" d="M190.777,236.172c0-2.077-3.116-4.154-3.116-4.154l-.041-7.364-3.174-1.582s-7.058,8.864-5.58,10.958c2.975,4.219,9.834,4.218,9.834,4.218A2.032,2.032,0,0,0,190.777,236.172Z" transform="translate(-169.632 -202.239)"/>
    </g>
    <g id="Grupo_283" data-name="Grupo 283" transform="translate(5.336 8.128)">
      <path id="Caminho_746" data-name="Caminho 746" class="cls-9" d="M124.163,71.856a2.033,2.033,0,0,1-.76-2.837s3.2-5.516,8.041-6.324a1.129,1.129,0,0,0-.509-.084c-5.141.467-8.57,6.407-8.57,6.407a2.033,2.033,0,0,0,.76,2.837,3.4,3.4,0,0,0,2.046.309A2.622,2.622,0,0,1,124.163,71.856Z" transform="translate(-120.383 -62.608)"/>
      <path id="Caminho_747" data-name="Caminho 747" class="cls-9" d="M112.119,184.491s-3.43-5.94-1.264-10.626c.409-.885,2.285-1.19,4.45-1.228-2.579-.044-5.015.2-5.489,1.228-2.166,4.686,1.264,10.626,1.264,10.626a2.093,2.093,0,0,0,2.273,1A2.445,2.445,0,0,1,112.119,184.491Z" transform="translate(-109.1 -158.349)"/>
      <path id="Caminho_748" data-name="Caminho 748" class="cls-9" d="M179.906,234.03c-1.3-1.838,3.979-8.888,5.289-10.586l-.747-.373s-7.058,8.864-5.58,10.958c2.975,4.219,9.834,4.218,9.834,4.218a2.195,2.195,0,0,0,.326-.032C187.2,238.086,182.3,237.424,179.906,234.03Z" transform="translate(-169.633 -202.24)"/>
    </g>
    <circle id="Elipse_100" data-name="Elipse 100" class="cls-2" cx="6.231" cy="6.231" r="6.231" transform="translate(18.175 18.174)"/>
    <path id="Caminho_749" data-name="Caminho 749" class="cls-4" d="M209.025,146.222a6.228,6.228,0,0,1,5.712-6.2c-.171-.014-.344-.026-.519-.026a6.231,6.231,0,1,0,0,12.462c.176,0,.348-.012.519-.026A6.229,6.229,0,0,1,209.025,146.222Z" transform="translate(-189.812 -121.817)"/>
    <g id="Grupo_284" data-name="Grupo 284" transform="translate(23.367 18.174)">
      <path id="Caminho_750" data-name="Caminho 750" class="cls-3" d="M257.7,146.222a6.229,6.229,0,0,1-5.712,6.2c.171.014.344.026.519.026a6.231,6.231,0,0,0,0-12.462c-.176,0-.348.012-.519.026A6.228,6.228,0,0,1,257.7,146.222Z" transform="translate(-251.465 -139.991)"/>
      <path id="Caminho_751" data-name="Caminho 751" class="cls-3" d="M250.061,181.027a1.039,1.039,0,1,1-1.039-1.038A1.038,1.038,0,0,1,250.061,181.027Z" transform="translate(-247.984 -174.796)"/>
    </g>
    <g id="Grupo_285" data-name="Grupo 285" transform="translate(3.635 4.673)">
      <path id="Caminho_752" data-name="Caminho 752" class="cls-4" d="M98.07,37.036A1.039,1.039,0,1,1,97.032,36,1.038,1.038,0,0,1,98.07,37.036Z" transform="translate(-95.993 -35.998)"/>
      <path id="Caminho_753" data-name="Caminho 753" class="cls-4" d="M394.053,37.036A1.038,1.038,0,1,1,393.014,36,1.038,1.038,0,0,1,394.053,37.036Z" transform="translate(-353.55 -35.998)"/>
      <path id="Caminho_754" data-name="Caminho 754" class="cls-4" d="M98.07,325.018a1.039,1.039,0,1,1-1.039-1.039A1.038,1.038,0,0,1,98.07,325.018Z" transform="translate(-95.993 -286.593)"/>
      <path id="Caminho_755" data-name="Caminho 755" class="cls-4" d="M394.053,325.018a1.038,1.038,0,1,1-1.039-1.039A1.038,1.038,0,0,1,394.053,325.018Z" transform="translate(-353.55 -286.593)"/>
      <rect id="Retângulo_388" data-name="Retângulo 388" class="cls-4" width="1.039" height="8.308" transform="translate(15.578 52.966)"/>
    </g>
    <rect id="Retângulo_389" data-name="Retângulo 389" class="cls-3" width="1.039" height="8.308" transform="translate(28.56 57.639)"/>
    <g id="Grupo_286" data-name="Grupo 286" transform="translate(0 0)">
      <path id="Caminho_756" data-name="Caminho 756" class="cls-10" d="M183.624,505.007h-3.116a.519.519,0,1,1,0-1.039h3.116a.519.519,0,1,1,0,1.039Z" transform="translate(-165.449 -438.54)"/>
      <path id="Caminho_757" data-name="Caminho 757" class="cls-10" d="M156.509,425.321a.519.519,0,0,1-.519-.519v-8.308a.519.519,0,1,1,1.039,0V424.8A.519.519,0,0,1,156.509,425.321Z" transform="translate(-144.566 -361.97)"/>
      <path id="Caminho_758" data-name="Caminho 758" class="cls-10" d="M172.509,425.321a.519.519,0,0,1-.519-.519v-8.308a.519.519,0,1,1,1.039,0V424.8A.519.519,0,0,1,172.509,425.321Z" transform="translate(-158.489 -361.97)"/>
      <path id="Caminho_759" data-name="Caminho 759" class="cls-10" d="M159.625,484.124a3.639,3.639,0,0,1-3.635-3.635.519.519,0,0,1,1.039,0,2.6,2.6,0,0,0,2.6,2.6.519.519,0,1,1,0,1.039Z" transform="translate(-144.566 -417.658)"/>
      <path id="Caminho_760" data-name="Caminho 760" class="cls-10" d="M173.547,482.047a1.56,1.56,0,0,1-1.558-1.558.519.519,0,0,1,1.039,0,.52.52,0,0,0,.519.519.519.519,0,1,1,0,1.039Z" transform="translate(-158.488 -417.658)"/>
      <path id="Caminho_761" data-name="Caminho 761" class="cls-10" d="M348.5,425.321a.519.519,0,0,1-.519-.519v-8.308a.519.519,0,1,1,1.039,0V424.8A.519.519,0,0,1,348.5,425.321Z" transform="translate(-311.629 -361.97)"/>
      <path id="Caminho_762" data-name="Caminho 762" class="cls-10" d="M332.5,425.321a.519.519,0,0,1-.519-.519v-8.308a.519.519,0,1,1,1.038,0V424.8A.519.519,0,0,1,332.5,425.321Z" transform="translate(-297.708 -361.97)"/>
      <path id="Caminho_763" data-name="Caminho 763" class="cls-10" d="M356.765,423.9a.519.519,0,0,1-.416-.831l5.158-6.886a.519.519,0,1,1,.832.623l-5.158,6.886A.521.521,0,0,1,356.765,423.9Z" transform="translate(-318.824 -361.974)"/>
      <path id="Caminho_764" data-name="Caminho 764" class="cls-10" d="M356.234,421.222a.519.519,0,0,1-.416-.831l3.15-4.2a.52.52,0,1,1,.832.623l-3.15,4.2A.521.521,0,0,1,356.234,421.222Z" transform="translate(-318.362 -361.974)"/>
      <path id="Caminho_765" data-name="Caminho 765" class="cls-10" d="M113.673,423.9a.52.52,0,0,1-.416-.208l-5.158-6.886a.52.52,0,0,1,.832-.623l5.158,6.886a.519.519,0,0,1-.416.831Z" transform="translate(-102.802 -361.971)"/>
      <path id="Caminho_766" data-name="Caminho 766" class="cls-10" d="M127.622,421.218a.52.52,0,0,1-.418-.211l-3.112-4.2a.519.519,0,1,1,.836-.617l3.112,4.2a.519.519,0,0,1-.418.828Z" transform="translate(-116.721 -361.971)"/>
      <path id="Caminho_767" data-name="Caminho 767" class="cls-10" d="M324.5,484.124a.519.519,0,0,1,0-1.039,2.6,2.6,0,0,0,2.6-2.6.519.519,0,0,1,1.039,0A3.639,3.639,0,0,1,324.5,484.124Z" transform="translate(-290.747 -417.658)"/>
      <path id="Caminho_768" data-name="Caminho 768" class="cls-10" d="M324.5,482.047a.519.519,0,1,1,0-1.039.52.52,0,0,0,.519-.519.519.519,0,1,1,1.038,0A1.56,1.56,0,0,1,324.5,482.047Z" transform="translate(-290.747 -417.658)"/>
      <path id="Caminho_769" data-name="Caminho 769" class="cls-10" d="M183.624,489.008h-3.116a.519.519,0,1,1,0-1.038h3.116a.519.519,0,1,1,0,1.038Z" transform="translate(-165.449 -424.619)"/>
      <path id="Caminho_770" data-name="Caminho 770" class="cls-10" d="M112.133,48.811H72.668a4.678,4.678,0,0,1-4.673-4.673V4.673A4.679,4.679,0,0,1,72.668,0h39.464a4.678,4.678,0,0,1,4.673,4.673V44.138A4.678,4.678,0,0,1,112.133,48.811ZM72.668,1.038a3.639,3.639,0,0,0-3.635,3.635V44.138a3.639,3.639,0,0,0,3.635,3.635h39.464a3.639,3.639,0,0,0,3.635-3.635V4.673a3.639,3.639,0,0,0-3.635-3.635Z" transform="translate(-67.995)"/>
      <path id="Caminho_771" data-name="Caminho 771" class="cls-10" d="M112.133,381.169H72.668a4.679,4.679,0,0,1-4.673-4.673.519.519,0,1,1,1.039,0,3.639,3.639,0,0,0,3.635,3.635h39.464a3.639,3.639,0,0,0,3.635-3.635.519.519,0,1,1,1.039,0A4.678,4.678,0,0,1,112.133,381.169Z" transform="translate(-67.995 -327.165)"/>
      <path id="Caminho_772" data-name="Caminho 772" class="cls-10" d="M68.514,370.054a.519.519,0,0,1-.519-.519V368.5a.519.519,0,1,1,1.039,0v1.038A.519.519,0,0,1,68.514,370.054Z" transform="translate(-67.995 -320.204)"/>
      <path id="Caminho_773" data-name="Caminho 773" class="cls-10" d="M436.492,370.054a.519.519,0,0,1-.519-.519V368.5a.519.519,0,1,1,1.039,0v1.038A.519.519,0,0,1,436.492,370.054Z" transform="translate(-388.2 -320.204)"/>
      <path id="Caminho_774" data-name="Caminho 774" class="cls-10" d="M222.891,449.319H212.505a.519.519,0,0,1-.519-.519v-8.307a.519.519,0,0,1,.519-.519h10.386a.519.519,0,0,1,.519.519V448.8A.519.519,0,0,1,222.891,449.319Zm-9.866-1.039h9.347v-7.269h-9.347v7.269Z" transform="translate(-193.292 -382.853)"/>
      <path id="Caminho_775" data-name="Caminho 775" class="cls-10" d="M303.617,489.008H300.5a.519.519,0,0,1,0-1.038h3.116a.519.519,0,1,1,0,1.038Z" transform="translate(-269.864 -424.619)"/>
      <path id="Caminho_776" data-name="Caminho 776" class="cls-10" d="M303.617,505.007H300.5a.519.519,0,0,1,0-1.039h3.116a.519.519,0,1,1,0,1.039Z" transform="translate(-269.864 -438.54)"/>
      <path id="Caminho_777" data-name="Caminho 777" class="cls-10" d="M140.511,371.093a.519.519,0,0,1-.519-.519V368.5a.519.519,0,1,1,1.039,0v2.077A.519.519,0,0,1,140.511,371.093Z" transform="translate(-130.645 -320.204)"/>
      <path id="Caminho_778" data-name="Caminho 778" class="cls-10" d="M196.507,371.093a.519.519,0,0,1-.519-.519V368.5a.519.519,0,1,1,1.039,0v2.077A.519.519,0,0,1,196.507,371.093Z" transform="translate(-179.371 -320.204)"/>
      <path id="Caminho_779" data-name="Caminho 779" class="cls-10" d="M252.5,371.093a.519.519,0,0,1-.519-.519V368.5a.519.519,0,1,1,1.039,0v2.077A.519.519,0,0,1,252.5,371.093Z" transform="translate(-228.098 -320.204)"/>
      <path id="Caminho_780" data-name="Caminho 780" class="cls-10" d="M308.5,371.093a.519.519,0,0,1-.519-.519V368.5a.519.519,0,1,1,1.039,0v2.077A.519.519,0,0,1,308.5,371.093Z" transform="translate(-276.824 -320.204)"/>
      <path id="Caminho_781" data-name="Caminho 781" class="cls-10" d="M364.5,371.093a.519.519,0,0,1-.519-.519V368.5a.519.519,0,1,1,1.038,0v2.077A.519.519,0,0,1,364.5,371.093Z" transform="translate(-325.553 -320.204)"/>
      <path id="Caminho_782" data-name="Caminho 782" class="cls-10" d="M106.323,60.656a22.329,22.329,0,1,1,22.329-22.329A22.354,22.354,0,0,1,106.323,60.656Zm0-43.619a21.29,21.29,0,1,0,21.29,21.29A21.314,21.314,0,0,0,106.323,17.037Z" transform="translate(-81.917 -13.922)"/>
      <path id="Caminho_783" data-name="Caminho 783" class="cls-10" d="M210.738,149.492a6.751,6.751,0,1,1,6.75-6.751A6.758,6.758,0,0,1,210.738,149.492Zm0-12.462a5.712,5.712,0,1,0,5.712,5.712A5.719,5.719,0,0,0,210.738,137.03Z" transform="translate(-186.332 -118.336)"/>
      <path id="Caminho_784" data-name="Caminho 784" class="cls-10" d="M389.534,35.113a1.558,1.558,0,1,1,1.558-1.558A1.559,1.559,0,0,1,389.534,35.113Zm0-2.077a.519.519,0,1,0,.519.519A.52.52,0,0,0,389.534,33.036Z" transform="translate(-346.434 -27.843)"/>
      <path id="Caminho_785" data-name="Caminho 785" class="cls-10" d="M389.534,323.1a1.558,1.558,0,1,1,1.558-1.558A1.559,1.559,0,0,1,389.534,323.1Zm0-2.077a.519.519,0,1,0,.519.519A.52.52,0,0,0,389.534,321.019Z" transform="translate(-346.434 -278.439)"/>
      <path id="Caminho_786" data-name="Caminho 786" class="cls-10" d="M93.552,323.1a1.558,1.558,0,1,1,1.558-1.558A1.559,1.559,0,0,1,93.552,323.1Zm0-2.077a.519.519,0,1,0,.519.519A.52.52,0,0,0,93.552,321.019Z" transform="translate(-88.878 -278.439)"/>
      <path id="Caminho_787" data-name="Caminho 787" class="cls-10" d="M93.552,35.113a1.558,1.558,0,1,1,1.558-1.558A1.559,1.559,0,0,1,93.552,35.113Zm0-2.077a.519.519,0,1,0,.519.519A.52.52,0,0,0,93.552,33.036Z" transform="translate(-88.878 -27.843)"/>
      <path id="Caminho_788" data-name="Caminho 788" class="cls-10" d="M244.033,46.537a.519.519,0,0,1-.4-.847c2.329-2.857,5.222-7.432,4.36-8.655-2.788-3.953-9.344-4-9.41-4a1.481,1.481,0,0,0-1.558,1.558c0,1.476,2.082,3.187,2.884,3.722a.521.521,0,0,1,.231.432V43.94a.519.519,0,1,1-1.039,0V39.017c-.763-.555-3.116-2.43-3.116-4.423a2.5,2.5,0,0,1,2.6-2.6c.291,0,7.164.051,10.258,4.439,1.623,2.3-3.383,8.658-4.4,9.909A.518.518,0,0,1,244.033,46.537Z" transform="translate(-214.175 -27.843)"/>
      <path id="Caminho_789" data-name="Caminho 789" class="cls-10" d="M185.079,246.532c-.291,0-7.164-.051-10.258-4.439-1.623-2.3,3.382-8.657,4.4-9.908a.519.519,0,1,1,.805.656c-2.33,2.858-5.221,7.432-4.36,8.654,2.788,3.953,9.344,4,9.41,4a1.481,1.481,0,0,0,1.558-1.558c0-1.477-2.082-3.187-2.884-3.722a.521.521,0,0,1-.231-.432V234.59a.519.519,0,0,1,1.039,0v4.922c.763.556,3.116,2.431,3.116,4.424A2.5,2.5,0,0,1,185.079,246.532Z" transform="translate(-160.673 -201.875)"/>
      <path id="Caminho_790" data-name="Caminho 790" class="cls-10" d="M129.248,70.871a.52.52,0,0,1-.26-.069l-4.264-2.462c-.863.382-3.663,1.481-5.388.486a2.5,2.5,0,0,1-.949-3.546c.145-.252,3.625-6.179,8.973-6.664,2.8-.264,5.807,7.26,6.38,8.768a.52.52,0,0,1-.972.369c-1.292-3.4-3.757-8.106-5.252-8.106-.021,0-.042,0-.063,0-4.816.437-8.134,6.092-8.167,6.149a1.481,1.481,0,0,0,.57,2.127c1.272.735,3.8-.211,4.665-.636a.516.516,0,0,1,.49.016l4.5,2.6a.519.519,0,0,1-.26.969Z" transform="translate(-111.519 -51)"/>
      <path id="Caminho_791" data-name="Caminho 791" class="cls-10" d="M278.825,235.178c-2.764,0-5.677-7.29-6.24-8.774a.52.52,0,0,1,.972-.369c1.292,3.4,3.756,8.106,5.253,8.106.021,0,.042,0,.063,0,4.806-.436,8.134-6.092,8.167-6.15a1.48,1.48,0,0,0-.571-2.127c-1.282-.74-3.8.209-4.664.636a.521.521,0,0,1-.49-.016l-4.5-2.6a.519.519,0,0,1,.519-.9l4.264,2.462c.862-.384,3.661-1.484,5.387-.486a2.406,2.406,0,0,1,1.314,2.289,3.058,3.058,0,0,1-.363,1.258c-.145.251-3.626,6.178-8.973,6.664Q278.9,235.177,278.825,235.178Z" transform="translate(-245.994 -193.976)"/>
      <path id="Caminho_792" data-name="Caminho 792" class="cls-10" d="M109.3,182.011a2.654,2.654,0,0,1-2.189-1.348c-.146-.253-3.54-6.228-1.286-11.1,1.182-2.555,9.19-1.4,10.784-1.142a.519.519,0,0,1-.166,1.025c-3.638-.588-9.047-.806-9.674.552-2.026,4.381,1.209,10.09,1.242,10.147a1.48,1.48,0,0,0,2.127.571c1.278-.737,1.719-3.4,1.781-4.359a.519.519,0,0,1,.259-.416l4.5-2.6a.519.519,0,0,1,.519.9l-4.264,2.461c-.1.939-.548,3.914-2.273,4.911A2.7,2.7,0,0,1,109.3,182.011Z" transform="translate(-100.247 -146.133)"/>
      <path id="Caminho_793" data-name="Caminho 793" class="cls-10" d="M317.821,113.688a37.827,37.827,0,0,1-5.567-.485.519.519,0,0,1,.166-1.025c3.636.588,9.048.807,9.675-.551,2.026-4.381-1.209-10.091-1.242-10.148a1.481,1.481,0,0,0-2.128-.57c-1.274.735-1.717,3.4-1.78,4.357a.52.52,0,0,1-.259.416l-4.5,2.6a.519.519,0,0,1-.519-.9l4.264-2.463c.1-.939.547-3.913,2.272-4.909a2.5,2.5,0,0,1,3.547.95c.146.252,3.54,6.229,1.286,11.1C322.449,113.336,320.163,113.688,317.821,113.688Z" transform="translate(-279.809 -86.679)"/>
      <path id="Caminho_794" data-name="Caminho 794" class="cls-10" d="M252.5,154.066a.519.519,0,0,1-.519-.519v-1.039a.519.519,0,1,1,1.039,0v1.039A.519.519,0,0,1,252.5,154.066Z" transform="translate(-228.098 -132.257)"/>
      <path id="Caminho_795" data-name="Caminho 795" class="cls-10" d="M252.5,210.057a.519.519,0,0,1-.519-.519V208.5a.519.519,0,1,1,1.039,0v1.04A.519.519,0,0,1,252.5,210.057Z" transform="translate(-228.098 -180.978)"/>
      <path id="Caminho_796" data-name="Caminho 796" class="cls-10" d="M237.023,158.212a.518.518,0,0,1-.449-.26l-.519-.9a.519.519,0,1,1,.9-.519l.519.9a.519.519,0,0,1-.449.779Z" transform="translate(-214.175 -135.986)"/>
      <path id="Caminho_797" data-name="Caminho 797" class="cls-10" d="M265.022,206.707a.518.518,0,0,1-.449-.26l-.519-.9a.519.519,0,1,1,.9-.519l.519.9a.519.519,0,0,1-.449.779Z" transform="translate(-238.539 -178.184)"/>
      <path id="Caminho_798" data-name="Caminho 798" class="cls-10" d="M225.693,169.543a.52.52,0,0,1-.26-.069l-.9-.519a.519.519,0,0,1,.519-.9l.9.519a.519.519,0,0,1-.26.969Z" transform="translate(-203.985 -146.176)"/>
      <path id="Caminho_799" data-name="Caminho 799" class="cls-10" d="M274.183,197.541a.52.52,0,0,1-.26-.069l-.9-.519a.519.519,0,0,1,.519-.9l.9.519a.519.519,0,0,1-.26.969Z" transform="translate(-246.179 -170.54)"/>
      <path id="Caminho_800" data-name="Caminho 800" class="cls-10" d="M221.544,185.019h-1.039a.519.519,0,1,1,0-1.039h1.039a.519.519,0,0,1,0,1.039Z" transform="translate(-200.254 -160.095)"/>
      <path id="Caminho_801" data-name="Caminho 801" class="cls-10" d="M277.533,185.019h-1.04a.519.519,0,1,1,0-1.039h1.04a.519.519,0,1,1,0,1.039Z" transform="translate(-248.973 -160.095)"/>
      <path id="Caminho_802" data-name="Caminho 802" class="cls-10" d="M224.795,197.532a.519.519,0,0,1-.26-.969l.9-.519a.519.519,0,0,1,.519.9l-.9.519A.517.517,0,0,1,224.795,197.532Z" transform="translate(-203.986 -170.531)"/>
      <path id="Caminho_803" data-name="Caminho 803" class="cls-10" d="M273.274,169.539a.52.52,0,0,1-.26-.969l.9-.52a.519.519,0,0,1,.519.9l-.9.52A.52.52,0,0,1,273.274,169.539Z" transform="translate(-246.171 -146.171)"/>
      <path id="Caminho_804" data-name="Caminho 804" class="cls-10" d="M236.5,206.7a.519.519,0,0,1-.45-.778l.518-.9a.52.52,0,0,1,.9.518l-.518.9A.52.52,0,0,1,236.5,206.7Z" transform="translate(-214.176 -178.177)"/>
      <path id="Caminho_805" data-name="Caminho 805" class="cls-10" d="M264.5,158.215a.513.513,0,0,1-.26-.07.519.519,0,0,1-.19-.709l.52-.9a.519.519,0,0,1,.9.52l-.52.9A.519.519,0,0,1,264.5,158.215Z" transform="translate(-238.533 -135.988)"/>
      <path id="Caminho_806" data-name="Caminho 806" class="cls-10" d="M245.542,179.1a1.558,1.558,0,1,1,1.558-1.558A1.56,1.56,0,0,1,245.542,179.1Zm0-2.077a.519.519,0,1,0,.519.519A.52.52,0,0,0,245.542,177.027Z" transform="translate(-221.136 -153.14)"/>
      <path id="Caminho_807" data-name="Caminho 807" class="cls-10" d="M244.5,420.128a.519.519,0,0,1-.519-.519v-3.116a.519.519,0,1,1,1.039,0v3.116A.519.519,0,0,1,244.5,420.128Z" transform="translate(-221.136 -361.97)"/>
      <path id="Caminho_808" data-name="Caminho 808" class="cls-10" d="M260.5,420.128a.519.519,0,0,1-.519-.519v-3.116a.519.519,0,1,1,1.039,0v3.116A.519.519,0,0,1,260.5,420.128Z" transform="translate(-235.059 -361.97)"/>
      <path id="Caminho_809" data-name="Caminho 809" class="cls-10" d="M236.505,482.047a.519.519,0,0,1-.519-.519v-1.038a.519.519,0,0,1,1.039,0v1.038A.519.519,0,0,1,236.505,482.047Z" transform="translate(-214.176 -417.658)"/>
      <path id="Caminho_810" data-name="Caminho 810" class="cls-10" d="M240.658,481.009H236.5a.519.519,0,1,1,0-1.039h4.154a.519.519,0,0,1,0,1.039Z" transform="translate(-214.176 -417.658)"/>
      <path id="Caminho_811" data-name="Caminho 811" class="cls-10" d="M268.5,482.047a.519.519,0,0,1-.519-.519v-1.038a.519.519,0,1,1,1.038,0v1.038A.519.519,0,0,1,268.5,482.047Z" transform="translate(-242.02 -417.658)"/>
      <path id="Caminho_812" data-name="Caminho 812" class="cls-10" d="M246.581,465.009H244.5a.519.519,0,1,1,0-1.038h2.077a.519.519,0,1,1,0,1.038Z" transform="translate(-221.136 -403.736)"/>
    </g>
  </g>
</svg>
