<svg id="cpuImg" xmlns="http://www.w3.org/2000/svg" width="29.003" height="29.004" viewBox="0 0 29.003 29.004">
  <defs>
    <style>
      .cls-1 {
        fill: #ff9100;
      }
    </style>
  </defs>
  <g id="Grupo_147" data-name="Grupo 147" transform="translate(5.31 5.31)">
    <g id="Grupo_146" data-name="Grupo 146">
      <path id="Caminho_411" data-name="Caminho 411" class="cls-1" d="M111.16,93.739H94.671a.932.932,0,0,0-.932.932V111.16a.932.932,0,0,0,.932.932H111.16a.932.932,0,0,0,.932-.932V94.671A.931.931,0,0,0,111.16,93.739Zm-.932,16.489H95.6V95.6h14.626v14.626Z" transform="translate(-93.739 -93.739)"/>
    </g>
  </g>
  <g id="Grupo_149" data-name="Grupo 149" transform="translate(11.8)">
    <g id="Grupo_148" data-name="Grupo 148">
      <path id="Caminho_412" data-name="Caminho 412" class="cls-1" d="M209.241,0a.932.932,0,0,0-.932.932v2.95a.932.932,0,0,0,1.863,0V.932A.932.932,0,0,0,209.241,0Z" transform="translate(-208.309)"/>
    </g>
  </g>
  <g id="Grupo_151" data-name="Grupo 151" transform="translate(15.34)">
    <g id="Grupo_150" data-name="Grupo 150">
      <path id="Caminho_413" data-name="Caminho 413" class="cls-1" d="M271.733,0a.932.932,0,0,0-.932.932v2.95a.932.932,0,0,0,1.863,0V.932A.931.931,0,0,0,271.733,0Z" transform="translate(-270.801)"/>
    </g>
  </g>
  <g id="Grupo_153" data-name="Grupo 153" transform="translate(8.26)">
    <g id="Grupo_152" data-name="Grupo 152">
      <path id="Caminho_414" data-name="Caminho 414" class="cls-1" d="M146.748,0a.932.932,0,0,0-.932.932v2.95a.932.932,0,0,0,1.863,0V.932A.931.931,0,0,0,146.748,0Z" transform="translate(-145.816)"/>
    </g>
  </g>
  <g id="Grupo_155" data-name="Grupo 155" transform="translate(18.88)">
    <g id="Grupo_154" data-name="Grupo 154">
      <path id="Caminho_415" data-name="Caminho 415" class="cls-1" d="M334.226,0a.932.932,0,0,0-.932.932v2.95a.932.932,0,0,0,1.863,0V.932A.932.932,0,0,0,334.226,0Z" transform="translate(-333.294)"/>
    </g>
  </g>
  <g id="Grupo_157" data-name="Grupo 157" transform="translate(11.8 24.19)">
    <g id="Grupo_156" data-name="Grupo 156">
      <path id="Caminho_416" data-name="Caminho 416" class="cls-1" d="M209.241,427.032a.932.932,0,0,0-.932.932v2.95a.932.932,0,1,0,1.863,0v-2.95A.932.932,0,0,0,209.241,427.032Z" transform="translate(-208.309 -427.032)"/>
    </g>
  </g>
  <g id="Grupo_159" data-name="Grupo 159" transform="translate(15.34 24.19)">
    <g id="Grupo_158" data-name="Grupo 158">
      <path id="Caminho_417" data-name="Caminho 417" class="cls-1" d="M271.733,427.032a.932.932,0,0,0-.932.932v2.95a.932.932,0,1,0,1.863,0v-2.95A.931.931,0,0,0,271.733,427.032Z" transform="translate(-270.801 -427.032)"/>
    </g>
  </g>
  <g id="Grupo_161" data-name="Grupo 161" transform="translate(8.26 24.19)">
    <g id="Grupo_160" data-name="Grupo 160">
      <path id="Caminho_418" data-name="Caminho 418" class="cls-1" d="M146.748,427.032a.932.932,0,0,0-.932.932v2.95a.932.932,0,1,0,1.863,0v-2.95A.931.931,0,0,0,146.748,427.032Z" transform="translate(-145.816 -427.032)"/>
    </g>
  </g>
  <g id="Grupo_163" data-name="Grupo 163" transform="translate(18.88 24.19)">
    <g id="Grupo_162" data-name="Grupo 162">
      <path id="Caminho_419" data-name="Caminho 419" class="cls-1" d="M334.226,427.032a.932.932,0,0,0-.932.932v2.95a.932.932,0,1,0,1.863,0v-2.95A.932.932,0,0,0,334.226,427.032Z" transform="translate(-333.294 -427.032)"/>
    </g>
  </g>
  <g id="Grupo_165" data-name="Grupo 165" transform="translate(24.19 11.8)">
    <g id="Grupo_164" data-name="Grupo 164">
      <path id="Caminho_420" data-name="Caminho 420" class="cls-1" d="M430.915,208.308h-2.95a.932.932,0,1,0,0,1.863h2.95a.932.932,0,1,0,0-1.863Z" transform="translate(-427.033 -208.308)"/>
    </g>
  </g>
  <g id="Grupo_167" data-name="Grupo 167" transform="translate(24.19 15.34)">
    <g id="Grupo_166" data-name="Grupo 166">
      <path id="Caminho_421" data-name="Caminho 421" class="cls-1" d="M430.915,270.8h-2.95a.932.932,0,1,0,0,1.863h2.95a.932.932,0,1,0,0-1.863Z" transform="translate(-427.033 -270.801)"/>
    </g>
  </g>
  <g id="Grupo_169" data-name="Grupo 169" transform="translate(24.19 8.26)">
    <g id="Grupo_168" data-name="Grupo 168">
      <path id="Caminho_422" data-name="Caminho 422" class="cls-1" d="M430.915,145.816h-2.95a.932.932,0,1,0,0,1.863h2.95a.932.932,0,1,0,0-1.863Z" transform="translate(-427.033 -145.816)"/>
    </g>
  </g>
  <g id="Grupo_171" data-name="Grupo 171" transform="translate(24.19 18.88)">
    <g id="Grupo_170" data-name="Grupo 170">
      <path id="Caminho_423" data-name="Caminho 423" class="cls-1" d="M430.915,333.293h-2.95a.932.932,0,1,0,0,1.863h2.95a.932.932,0,1,0,0-1.863Z" transform="translate(-427.033 -333.293)"/>
    </g>
  </g>
  <g id="Grupo_173" data-name="Grupo 173" transform="translate(0 11.8)">
    <g id="Grupo_172" data-name="Grupo 172">
      <path id="Caminho_424" data-name="Caminho 424" class="cls-1" d="M3.882,208.308H.932a.932.932,0,0,0,0,1.863h2.95a.932.932,0,0,0,0-1.863Z" transform="translate(0 -208.308)"/>
    </g>
  </g>
  <g id="Grupo_175" data-name="Grupo 175" transform="translate(0 15.34)">
    <g id="Grupo_174" data-name="Grupo 174">
      <path id="Caminho_425" data-name="Caminho 425" class="cls-1" d="M3.882,270.8H.932a.932.932,0,0,0,0,1.863h2.95a.932.932,0,0,0,0-1.863Z" transform="translate(0 -270.801)"/>
    </g>
  </g>
  <g id="Grupo_177" data-name="Grupo 177" transform="translate(0 8.26)">
    <g id="Grupo_176" data-name="Grupo 176">
      <path id="Caminho_426" data-name="Caminho 426" class="cls-1" d="M3.882,145.816H.932a.932.932,0,0,0,0,1.863h2.95a.932.932,0,0,0,0-1.863Z" transform="translate(0 -145.816)"/>
    </g>
  </g>
  <g id="Grupo_179" data-name="Grupo 179" transform="translate(0 18.88)">
    <g id="Grupo_178" data-name="Grupo 178">
      <path id="Caminho_427" data-name="Caminho 427" class="cls-1" d="M3.882,333.293H.932a.932.932,0,0,0,0,1.863h2.95a.932.932,0,0,0,0-1.863Z" transform="translate(0 -333.293)"/>
    </g>
  </g>
  <g id="Grupo_181" data-name="Grupo 181" transform="translate(10.62 10.62)">
    <g id="Grupo_180" data-name="Grupo 180">
      <path id="Caminho_428" data-name="Caminho 428" class="cls-1" d="M194.31,187.478h-5.9a.932.932,0,0,0-.932.932v5.9a.932.932,0,0,0,.932.932h5.9a.932.932,0,0,0,.932-.932v-5.9A.932.932,0,0,0,194.31,187.478Zm-.932,5.9h-4.037v-4.037h4.037Z" transform="translate(-187.478 -187.478)"/>
    </g>
  </g>
</svg>
