<svg xmlns="http://www.w3.org/2000/svg" width="67.86" height="65.391" viewBox="0 0 67.86 65.391">
  <defs>
    <style>
      .cls-1 {
        opacity: 0.25;
      }

      .cls-2 {
        opacity: 0.4;
      }

      .cls-3 {
        fill: #ffedd7;
      }

      .cls-4 {
        fill: #fff;
      }

      .cls-5 {
        fill: #ffd294;
      }

      .cls-6 {
        fill: #ffbe5c;
      }

      .cls-7 {
        fill: #d7e9ff;
      }

      .cls-8 {
        fill: #ff9c22;
      }

      .cls-9 {
        fill: #ffa011;
      }
    </style>
  </defs>
  <g id="disks" class="cls-1" transform="translate(-734.14 -329)">
    <g id="Grupo_362" data-name="Grupo 362" class="cls-2" transform="translate(-205 20136)">
      <path id="Caminho_1356" data-name="Caminho 1356" class="cls-3" d="M121.973,101.214a2.05,2.05,0,0,1-2.043,2.043H78.038A2.05,2.05,0,0,1,76,101.214V46.04A2.049,2.049,0,0,1,78.038,44H119.93a2.049,2.049,0,0,1,2.043,2.043Z" transform="translate(884.516 -19845.379)"/>
      <path id="Caminho_1357" data-name="Caminho 1357" class="cls-4" d="M78.038,101.214V46.04A2.049,2.049,0,0,1,80.082,44H78.038A2.049,2.049,0,0,0,76,46.04v55.174a2.05,2.05,0,0,0,2.043,2.043h2.043A2.05,2.05,0,0,1,78.038,101.214Z" transform="translate(884.516 -19845.379)"/>
      <g id="Grupo_356" data-name="Grupo 356" transform="translate(960.511 -19806.488)">
        <path id="Caminho_1358" data-name="Caminho 1358" class="cls-5" d="M406.018,46.04v55.174a2.049,2.049,0,0,1-2.044,2.043h2.044a2.049,2.049,0,0,0,2.043-2.043V46.04A2.05,2.05,0,0,0,406.018,44h-2.044A2.05,2.05,0,0,1,406.018,46.04Z" transform="translate(-362.083 -38.888)"/>
        <path id="Caminho_1359" data-name="Caminho 1359" class="cls-5" d="M121.973,61.217a2.05,2.05,0,0,1-2.043,2.043H78.038A2.05,2.05,0,0,1,76,61.217V6.043A2.049,2.049,0,0,1,78.038,4H119.93a2.049,2.049,0,0,1,2.043,2.043Z" transform="translate(-75.995 -4)"/>
      </g>
      <path id="Caminho_1360" data-name="Caminho 1360" class="cls-3" d="M102.036,52a2.044,2.044,0,0,0-2.043,2.043V68.855h4.087V54.04A2.043,2.043,0,0,0,102.036,52Z" transform="translate(863.583 -19852.355)"/>
      <path id="Caminho_1361" data-name="Caminho 1361" class="cls-4" d="M102.547,52.069a2.019,2.019,0,0,0-2.554,1.971V68.855h1.022V54.04A2.039,2.039,0,0,1,102.547,52.069Z" transform="translate(863.583 -19852.355)"/>
      <ellipse id="Elipse_114" data-name="Elipse 114" class="cls-3" cx="19.924" cy="19.924" rx="19.924" ry="19.924" transform="translate(963.576 -19803.422)"/>
      <path id="Caminho_1362" data-name="Caminho 1362" class="cls-4" d="M102.036,47.93a19.907,19.907,0,0,1,18.9-19.872c-.341-.017-.677-.051-1.022-.051a19.924,19.924,0,1,0,0,39.848c.345,0,.681-.035,1.022-.051A19.908,19.908,0,0,1,102.036,47.93Z" transform="translate(863.583 -19831.428)"/>
      <path id="Caminho_1363" data-name="Caminho 1363" class="cls-5" d="M266.886,47.929a19.908,19.908,0,0,1-18.9,19.873c.341.016.677.051,1.022.051a19.924,19.924,0,0,0,0-39.848c-.345,0-.681.034-1.022.051A19.908,19.908,0,0,1,266.886,47.929Z" transform="translate(734.494 -19831.428)"/>
      <g id="Grupo_357" data-name="Grupo 357" transform="translate(962.554 -19771.75)">
        <path id="Caminho_1364" data-name="Caminho 1364" class="cls-3" d="M114.472,298.461H93.016a1.025,1.025,0,0,1-1.022-1.022V275.983Z" transform="translate(-91.994 -275.983)"/>
        <path id="Caminho_1365" data-name="Caminho 1365" class="cls-3" d="M97.1,411.974H91.994v4.087a1.025,1.025,0,0,0,1.022,1.022H97.1Z" transform="translate(-91.994 -394.605)"/>
        <rect id="Retângulo_460" data-name="Retângulo 460" class="cls-3" width="13.282" height="4.088" transform="translate(25.544 11.239)"/>
      </g>
      <path id="Caminho_1366" data-name="Caminho 1366" class="cls-4" d="M94.037,297.439V278.026l-2.043-2.043v21.456a1.025,1.025,0,0,0,1.022,1.022h2.043A1.025,1.025,0,0,1,94.037,297.439Z" transform="translate(870.56 -20047.732)"/>
      <path id="Caminho_1367" data-name="Caminho 1367" class="cls-6" d="M155.9,305.043l-4.007-4.471,12.784-8.59Z" transform="translate(818.315 -20061.688)"/>
      <path id="Caminho_1368" data-name="Caminho 1368" class="cls-5" d="M146.118,359.036a3.066,3.066,0,1,1-3.066-3.066A3.066,3.066,0,0,1,146.118,359.036Z" transform="translate(828.697 -20117.502)"/>
      <path id="Caminho_1369" data-name="Caminho 1369" class="cls-3" d="M141.009,359.037a3.061,3.061,0,0,1,2.555-3.015,3.067,3.067,0,1,0,0,6.029A3.059,3.059,0,0,1,141.009,359.037Z" transform="translate(828.697 -20117.504)"/>
      <path id="Caminho_1370" data-name="Caminho 1370" class="cls-6" d="M162.545,359.036a3.058,3.058,0,0,1-2.555,3.013,3.066,3.066,0,1,0,0-6.029A3.062,3.062,0,0,1,162.545,359.036Z" transform="translate(811.249 -20117.502)"/>
      <path id="Caminho_1371" data-name="Caminho 1371" class="cls-7" d="M158.033,373a1.022,1.022,0,1,1-1.022-1.022A1.022,1.022,0,0,1,158.033,373Z" transform="translate(814.738 -20131.467)"/>
      <path id="Caminho_1372" data-name="Caminho 1372" class="cls-6" d="M208.336,128.174A8.174,8.174,0,1,1,200.162,120,8.174,8.174,0,0,1,208.336,128.174Z" transform="translate(783.338 -19911.672)"/>
      <path id="Caminho_1373" data-name="Caminho 1373" class="cls-5" d="M193.01,128.174a8.169,8.169,0,0,1,7.663-8.148c-.17-.01-.338-.026-.511-.026a8.174,8.174,0,0,0,0,16.348c.173,0,.341-.015.511-.026A8.169,8.169,0,0,1,193.01,128.174Z" transform="translate(783.338 -19911.672)"/>
      <path id="Caminho_1374" data-name="Caminho 1374" class="cls-8" d="M259.643,128.174a8.17,8.17,0,0,1-7.663,8.148c.17.01.338.026.511.026a8.174,8.174,0,1,0,0-16.348c-.173,0-.341.015-.511.026A8.169,8.169,0,0,1,259.643,128.174Z" transform="translate(731.009 -19911.672)"/>
      <g id="Grupo_358" data-name="Grupo 358" transform="translate(963.091 -19803.934)">
        <path id="Caminho_1375" data-name="Caminho 1375" class="cls-9" d="M96.709,25.027a.515.515,0,0,1-.516-.511.506.506,0,0,1,.506-.511h.01a.511.511,0,0,1,0,1.022Z" transform="translate(-96.193 -24.005)"/>
        <path id="Caminho_1376" data-name="Caminho 1376" class="cls-9" d="M224.7,432.995a.515.515,0,0,1-.516-.511.506.506,0,0,1,.506-.511h.01a.511.511,0,1,1,0,1.022Z" transform="translate(-207.837 -379.865)"/>
        <path id="Caminho_1377" data-name="Caminho 1377" class="cls-9" d="M304.7,377a.515.515,0,0,1-.515-.511.506.506,0,0,1,.5-.511h.01a.511.511,0,1,1,0,1.022Z" transform="translate(-277.617 -331.021)"/>
        <path id="Caminho_1378" data-name="Caminho 1378" class="cls-9" d="M376.695,377a.515.515,0,0,1-.515-.511.506.506,0,0,1,.5-.511h.01a.511.511,0,1,1,0,1.022Z" transform="translate(-340.419 -331.021)"/>
        <path id="Caminho_1379" data-name="Caminho 1379" class="cls-9" d="M112.708,425a.515.515,0,0,1-.516-.511.506.506,0,0,1,.506-.511h.01a.511.511,0,1,1,0,1.022Z" transform="translate(-110.149 -372.888)"/>
        <path id="Caminho_1380" data-name="Caminho 1380" class="cls-9" d="M104.709,313a.515.515,0,0,1-.516-.511.506.506,0,0,1,.506-.511h.01a.511.511,0,1,1,0,1.022Z" transform="translate(-103.171 -275.198)"/>
        <path id="Caminho_1381" data-name="Caminho 1381" class="cls-9" d="M408.693,25.027a.515.515,0,0,1-.515-.511.506.506,0,0,1,.5-.511h.01a.511.511,0,0,1,0,1.022Z" transform="translate(-368.33 -24.005)"/>
        <path id="Caminho_1382" data-name="Caminho 1382" class="cls-9" d="M112.708,65.017a.515.515,0,0,1-.516-.511A.506.506,0,0,1,112.7,64h.01a.511.511,0,0,1,0,1.022Z" transform="translate(-110.149 -58.887)"/>
      </g>
      <g id="Grupo_359" data-name="Grupo 359" transform="translate(980.435 -19790.141)">
        <path id="Caminho_1383" data-name="Caminho 1383" class="cls-3" d="M238.115,163.054a3.065,3.065,0,1,1-3.065-3.065A3.066,3.066,0,0,1,238.115,163.054Z" transform="translate(-231.985 -156.413)"/>
        <ellipse id="Elipse_115" data-name="Elipse 115" class="cls-3" cx="1.022" cy="1.022" rx="1.022" ry="1.022" transform="translate(2.043)"/>
        <ellipse id="Elipse_116" data-name="Elipse 116" class="cls-3" cx="1.022" cy="1.022" rx="1.022" ry="1.022" transform="translate(2.043 11.239)"/>
      </g>
      <ellipse id="Elipse_117" data-name="Elipse 117" class="cls-6" cx="1.022" cy="1.022" rx="1.022" ry="1.022" transform="translate(982.478 -19784.521)"/>
      <g id="Grupo_360" data-name="Grupo 360" transform="translate(976.86 -19802.402)">
        <ellipse id="Elipse_118" data-name="Elipse 118" class="cls-3" cx="1.022" cy="1.022" rx="1.022" ry="1.022" transform="translate(1.645 13.906)"/>
        <path id="Caminho_1384" data-name="Caminho 1384" class="cls-3" d="M280.84,207.4a1.022,1.022,0,1,1-1.446,0A1.022,1.022,0,0,1,280.84,207.4Z" transform="translate(-269.503 -185.245)"/>
        <path id="Caminho_1385" data-name="Caminho 1385" class="cls-3" d="M205.017,175.985a1.022,1.022,0,1,1-1.022,1.022A1.021,1.021,0,0,1,205.017,175.985Z" transform="translate(-203.995 -158.105)"/>
        <path id="Caminho_1386" data-name="Caminho 1386" class="cls-3" d="M293,175.985a1.022,1.022,0,1,1-1.023,1.022A1.023,1.023,0,0,1,293,175.985Z" transform="translate(-280.744 -158.105)"/>
        <path id="Caminho_1387" data-name="Caminho 1387" class="cls-3" d="M217.177,207.392a1.021,1.021,0,1,1,0,1.445A1.021,1.021,0,0,1,217.177,207.392Z" transform="translate(-215.232 -185.24)"/>
        <path id="Caminho_1388" data-name="Caminho 1388" class="cls-3" d="M279.4,145.173a1.022,1.022,0,1,1,0,1.445A1.023,1.023,0,0,1,279.4,145.173Z" transform="translate(-269.503 -130.968)"/>
        <path id="Caminho_1389" data-name="Caminho 1389" class="cls-3" d="M382.02,307.981h-2.044v2.043h2.044a1.022,1.022,0,0,0,0-2.043Z" transform="translate(-357.499 -273.242)"/>
        <path id="Caminho_1390" data-name="Caminho 1390" class="cls-3" d="M358.021,37.02A1.022,1.022,0,1,1,357,36,1.021,1.021,0,0,1,358.021,37.02Z" transform="translate(-336.566 -35.998)"/>
      </g>
      <g id="Grupo_361" data-name="Grupo 361" transform="translate(960 -19807)">
        <path id="Caminho_1391" data-name="Caminho 1391" class="cls-9" d="M116.441,60.282H74.549A2.557,2.557,0,0,1,72,57.728V2.554A2.557,2.557,0,0,1,74.549,0h41.891a2.557,2.557,0,0,1,2.554,2.554V57.728A2.557,2.557,0,0,1,116.441,60.282ZM74.549,1.022a1.534,1.534,0,0,0-1.533,1.533V57.728a1.534,1.534,0,0,0,1.533,1.533h41.891a1.534,1.534,0,0,0,1.532-1.533V2.554a1.534,1.534,0,0,0-1.532-1.533Z" transform="translate(-71.995)"/>
        <path id="Caminho_1392" data-name="Caminho 1392" class="cls-9" d="M116.441,456.18H74.549A2.557,2.557,0,0,1,72,453.626v-5.1a.511.511,0,0,1,1.022,0v5.1a1.534,1.534,0,0,0,1.533,1.533h41.891a1.534,1.534,0,0,0,1.532-1.533v-5.1a.511.511,0,0,1,1.022,0v5.1A2.557,2.557,0,0,1,116.441,456.18Z" transform="translate(-71.995 -390.789)"/>
        <path id="Caminho_1393" data-name="Caminho 1393" class="cls-9" d="M116.429,64.875c-.529,0-1.053-.021-1.572-.059a.513.513,0,0,1-.471-.549.5.5,0,0,1,.548-.471q.739.057,1.495.057a19.407,19.407,0,1,0-10.352-2.987.511.511,0,1,1-.546.864,20.439,20.439,0,1,1,10.9,3.145Z" transform="translate(-92.929 -20.939)"/>
        <path id="Caminho_1394" data-name="Caminho 1394" class="cls-9" d="M144.5,86.818a.511.511,0,0,1-.511-.511,14.32,14.32,0,0,1,14.3-14.3.511.511,0,0,1,0,1.022,13.3,13.3,0,0,0-13.283,13.283A.51.51,0,0,1,144.5,86.818Z" transform="translate(-134.794 -62.806)"/>
        <path id="Caminho_1395" data-name="Caminho 1395" class="cls-9" d="M252.495,194.811a.511.511,0,0,1,0-1.022,13.3,13.3,0,0,0,13.283-13.283.511.511,0,1,1,1.022,0A14.32,14.32,0,0,1,252.495,194.811Z" transform="translate(-228.995 -157.006)"/>
        <path id="Caminho_1396" data-name="Caminho 1396" class="cls-9" d="M196.673,133.362a8.685,8.685,0,1,1,8.685-8.685A8.694,8.694,0,0,1,196.673,133.362Zm0-16.348a7.663,7.663,0,1,0,7.663,7.663A7.672,7.672,0,0,0,196.673,117.014Z" transform="translate(-173.173 -101.177)"/>
        <path id="Caminho_1397" data-name="Caminho 1397" class="cls-9" d="M245.517,175.053a1.533,1.533,0,1,1,1.533-1.533A1.534,1.534,0,0,1,245.517,175.053Zm0-2.043a.511.511,0,1,0,.511.511A.511.511,0,0,0,245.517,173.01Z" transform="translate(-222.017 -150.021)"/>
        <path id="Caminho_1398" data-name="Caminho 1398" class="cls-9" d="M231.561,163.141a3.576,3.576,0,1,1,3.576-3.576A3.58,3.58,0,0,1,231.561,163.141Zm0-6.13a2.554,2.554,0,1,0,2.554,2.554A2.557,2.557,0,0,0,231.561,157.011Z" transform="translate(-208.061 -136.065)"/>
        <path id="Caminho_1399" data-name="Caminho 1399" class="cls-9" d="M245.517,131.056a1.533,1.533,0,1,1,1.533-1.533A1.534,1.534,0,0,1,245.517,131.056Zm0-2.043a.511.511,0,1,0,.511.511A.511.511,0,0,0,245.517,129.013Z" transform="translate(-222.017 -111.643)"/>
        <path id="Caminho_1400" data-name="Caminho 1400" class="cls-9" d="M353.511,35.062a1.533,1.533,0,1,1,1.532-1.533A1.534,1.534,0,0,1,353.511,35.062Zm0-2.043a.511.511,0,1,0,.511.511A.512.512,0,0,0,353.511,33.019Z" transform="translate(-316.217 -27.91)"/>
        <path id="Caminho_1401" data-name="Caminho 1401" class="cls-9" d="M245.517,219.051a1.533,1.533,0,1,1,1.533-1.533A1.534,1.534,0,0,1,245.517,219.051Zm0-2.043a.511.511,0,1,0,.511.511A.511.511,0,0,0,245.517,217.008Z" transform="translate(-222.017 -188.399)"/>
        <path id="Caminho_1402" data-name="Caminho 1402" class="cls-9" d="M214.415,144.043a1.533,1.533,0,0,1-1.084-2.617,1.569,1.569,0,0,1,2.167,0,1.532,1.532,0,0,1-1.083,2.616Zm0-2.043a.506.506,0,0,0-.36.149.512.512,0,0,0,0,.723.523.523,0,0,0,.722,0,.511.511,0,0,0-.362-.872Z" transform="translate(-194.888 -122.984)"/>
        <path id="Caminho_1403" data-name="Caminho 1403" class="cls-9" d="M276.634,206.27a1.533,1.533,0,0,1-1.084-2.616,1.569,1.569,0,0,1,2.167,0,1.532,1.532,0,0,1-1.084,2.616Zm0-2.043a.511.511,0,0,0-.361.873.525.525,0,0,0,.722,0,.511.511,0,0,0,0-.722A.5.5,0,0,0,276.634,204.227Z" transform="translate(-249.161 -177.263)"/>
        <path id="Caminho_1404" data-name="Caminho 1404" class="cls-9" d="M201.521,175.061a1.532,1.532,0,1,1,1.532-1.532,1.531,1.531,0,0,1-1.532,1.532Zm0-2.042a.511.511,0,0,0-.513.509.53.53,0,0,0,.874.362.511.511,0,0,0-.361-.871Z" transform="translate(-183.639 -150.029)"/>
        <path id="Caminho_1405" data-name="Caminho 1405" class="cls-9" d="M289.515,175.061h0a1.533,1.533,0,1,1,1.533-1.533A1.536,1.536,0,0,1,289.514,175.061Zm0-2.043a.511.511,0,1,0,.511.511A.512.512,0,0,0,289.515,173.018Z" transform="translate(-260.395 -150.028)"/>
        <path id="Caminho_1406" data-name="Caminho 1406" class="cls-9" d="M214.41,206.272a1.532,1.532,0,0,1-1.083-2.617,1.57,1.57,0,0,1,2.167,0,1.533,1.533,0,0,1-1.084,2.616Zm0-2.043a.511.511,0,0,0-.361.872.524.524,0,0,0,.722,0,.511.511,0,0,0-.361-.872Z" transform="translate(-194.883 -177.265)"/>
        <path id="Caminho_1407" data-name="Caminho 1407" class="cls-9" d="M276.637,144.051a1.532,1.532,0,0,1-1.081-2.616,1.568,1.568,0,0,1,2.165,0,1.533,1.533,0,0,1-1.085,2.616Zm0-2.043a.511.511,0,0,0-.361.873.524.524,0,0,0,.721,0,.511.511,0,0,0-.36-.872Z" transform="translate(-249.164 -122.992)"/>
        <path id="Caminho_1408" data-name="Caminho 1408" class="cls-9" d="M100.59,51.061a.511.511,0,0,1-.511-.511,1.533,1.533,0,1,0-3.065,0,.511.511,0,0,1-1.022,0,2.554,2.554,0,0,1,5.109,0A.51.51,0,0,1,100.59,51.061Z" transform="translate(-92.927 -41.866)"/>
        <path id="Caminho_1409" data-name="Caminho 1409" class="cls-9" d="M96.5,72.17a.511.511,0,0,1-.511-.511V64.507a.511.511,0,1,1,1.022,0v7.152A.511.511,0,0,1,96.5,72.17Z" transform="translate(-92.928 -55.822)"/>
        <path id="Caminho_1410" data-name="Caminho 1410" class="cls-9" d="M374.618,23.15a.509.509,0,0,1-.361-.15l-6.131-6.13a.511.511,0,1,1,.722-.722l6.131,6.13a.511.511,0,0,1-.361.872Z" transform="translate(-330.172 -13.955)"/>
        <path id="Caminho_1411" data-name="Caminho 1411" class="cls-9" d="M416.485,73.192a.511.511,0,0,1-.511-.511V64.507a.511.511,0,1,1,1.022,0v8.174A.511.511,0,0,1,416.485,73.192Z" transform="translate(-372.039 -55.822)"/>
        <path id="Caminho_1412" data-name="Caminho 1412" class="cls-9" d="M312.665,17.02h-8.174a.511.511,0,0,1,0-1.022h8.174a.511.511,0,1,1,0,1.022Z" transform="translate(-274.35 -13.955)"/>
        <path id="Caminho_1413" data-name="Caminho 1413" class="cls-9" d="M143.654,17.02H136.5a.511.511,0,0,1,0-1.022h7.152a.511.511,0,1,1,0,1.022Z" transform="translate(-127.817 -13.955)"/>
        <path id="Caminho_1414" data-name="Caminho 1414" class="cls-9" d="M120.5,19.064a.511.511,0,0,1-.361-.872l2.043-2.043a.511.511,0,0,1,.722.722l-2.043,2.043A.509.509,0,0,1,120.5,19.064Z" transform="translate(-113.862 -13.955)"/>
        <path id="Caminho_1415" data-name="Caminho 1415" class="cls-9" d="M88.5,294.461a.511.511,0,0,1-.511-.511V272.494a.511.511,0,0,1,1.022,0V293.95A.511.511,0,0,1,88.5,294.461Z" transform="translate(-85.951 -237.244)"/>
        <path id="Caminho_1416" data-name="Caminho 1416" class="cls-9" d="M117.961,448.994H96.5a.511.511,0,1,1,0-1.022h21.457a.511.511,0,0,1,0,1.022Z" transform="translate(-92.928 -390.755)"/>
        <path id="Caminho_1417" data-name="Caminho 1417" class="cls-9" d="M89.532,442.021a1.539,1.539,0,0,1-1.538-1.538.511.511,0,0,1,1.022,0,.516.516,0,0,0,.516.516.511.511,0,1,1,0,1.022Z" transform="translate(-85.951 -383.777)"/>
        <path id="Caminho_1418" data-name="Caminho 1418" class="cls-9" d="M96.679,281.179a.509.509,0,0,1-.361-.15l-8.174-8.174a.511.511,0,1,1,.722-.722l8.174,8.174a.511.511,0,0,1-.361.872Z" transform="translate(-85.951 -237.244)"/>
        <path id="Caminho_1419" data-name="Caminho 1419" class="cls-9" d="M139.564,359.358a3.576,3.576,0,0,1-2.529-6.105,3.662,3.662,0,0,1,5.058,0,3.576,3.576,0,0,1-2.529,6.105Zm0-6.131a2.555,2.555,0,0,0-1.807,4.361,2.616,2.616,0,0,0,3.613,0,2.555,2.555,0,0,0-1.806-4.361Z" transform="translate(-127.814 -307.25)"/>
        <path id="Caminho_1420" data-name="Caminho 1420" class="cls-9" d="M153.528,371.139a1.533,1.533,0,0,1-1.083-2.617,1.572,1.572,0,0,1,2.167,0,1.534,1.534,0,0,1-1.084,2.618Zm0-2.044a.505.505,0,0,0-.361.15.511.511,0,0,0,0,.722.526.526,0,0,0,.722,0,.51.51,0,0,0-.361-.872Z" transform="translate(-141.778 -321.074)"/>
        <path id="Caminho_1421" data-name="Caminho 1421" class="cls-9" d="M168.505,295.911a.511.511,0,0,1-.286-.934l10.216-6.9a.511.511,0,0,1,.572.846l-10.216,6.9A.51.51,0,0,1,168.505,295.911Z" transform="translate(-155.732 -251.203)"/>
        <path id="Caminho_1422" data-name="Caminho 1422" class="cls-9" d="M194.44,299.223a.511.511,0,0,1-.423-.8l6.9-10.215a.51.51,0,1,1,.846.571L194.864,299A.51.51,0,0,1,194.44,299.223Z" transform="translate(-178.356 -251.203)"/>
        <path id="Caminho_1423" data-name="Caminho 1423" class="cls-9" d="M208.672,393.172a.51.51,0,0,1-.361-.15l-8.174-8.174a.511.511,0,0,1,.722-.722l8.174,8.174a.511.511,0,0,1-.361.872Z" transform="translate(-183.64 -334.933)"/>
        <path id="Caminho_1424" data-name="Caminho 1424" class="cls-9" d="M280.493,428.061a.511.511,0,0,1-.263-.949l5.109-3.065a.511.511,0,0,1,.263-.073h12.261a.511.511,0,1,1,0,1.022H285.744l-4.987,2.992A.516.516,0,0,1,280.493,428.061Z" transform="translate(-253.417 -369.822)"/>
        <path id="Caminho_1425" data-name="Caminho 1425" class="cls-9" d="M416.485,264.507a.511.511,0,0,1-.511-.511V240.5a.511.511,0,0,1,1.022,0V264A.511.511,0,0,1,416.485,264.507Z" transform="translate(-372.039 -209.333)"/>
        <path id="Caminho_1426" data-name="Caminho 1426" class="cls-9" d="M100.591,409H96.5a.511.511,0,0,1,0-1.022h4.087a.511.511,0,1,1,0,1.022Z" transform="translate(-92.928 -355.866)"/>
        <path id="Caminho_1427" data-name="Caminho 1427" class="cls-9" d="M128.5,413.083a.511.511,0,0,1-.511-.511v-4.087a.511.511,0,0,1,1.022,0v4.087A.511.511,0,0,1,128.5,413.083Z" transform="translate(-120.839 -355.866)"/>
        <path id="Caminho_1428" data-name="Caminho 1428" class="cls-9" d="M378.531,307.046h-2.044a.511.511,0,0,1-.511-.511v-2.043a.511.511,0,0,1,.511-.511h2.044a1.533,1.533,0,0,1,0,3.065ZM377,306.024h1.533a.511.511,0,0,0,0-1.022H377Z" transform="translate(-337.15 -265.155)"/>
        <path id="Caminho_1429" data-name="Caminho 1429" class="cls-9" d="M288.493,365.08a.511.511,0,0,1-.511-.511v-4.088a.511.511,0,0,1,1.022,0v4.088A.511.511,0,0,1,288.493,365.08Z" transform="translate(-260.395 -313.993)"/>
        <path id="Caminho_1430" data-name="Caminho 1430" class="cls-9" d="M392.487,365.087a.511.511,0,0,1-.511-.511v-4.087a.511.511,0,1,1,1.022,0v4.087A.511.511,0,0,1,392.487,365.087Z" transform="translate(-351.106 -314)"/>
        <path id="Caminho_1431" data-name="Caminho 1431" class="cls-9" d="M301.776,361H288.493a.511.511,0,1,1,0-1.022h13.283a.511.511,0,0,1,0,1.022Z" transform="translate(-260.395 -314)"/>
        <path id="Caminho_1432" data-name="Caminho 1432" class="cls-9" d="M301.776,393H288.493a.511.511,0,1,1,0-1.022h13.283a.511.511,0,0,1,0,1.022Z" transform="translate(-260.395 -341.911)"/>
        <path id="Caminho_1433" data-name="Caminho 1433" class="cls-9" d="M320.491,371.042a.511.511,0,0,1-.511-.511v-2.043a.511.511,0,0,1,1.022,0v2.043A.511.511,0,0,1,320.491,371.042Z" transform="translate(-288.306 -320.977)"/>
        <path id="Caminho_1434" data-name="Caminho 1434" class="cls-9" d="M360.489,371.042a.511.511,0,0,1-.511-.511v-2.043a.511.511,0,1,1,1.022,0v2.043A.511.511,0,0,1,360.489,371.042Z" transform="translate(-323.195 -320.977)"/>
      </g>
    </g>
    <g id="Grupo_372" data-name="Grupo 372" class="cls-2" transform="translate(539.807 1320.048) rotate(-90)">
      <rect id="Retângulo_464" data-name="Retângulo 464" class="cls-5" width="12.037" height="6.972" transform="translate(966.062 195.235) rotate(90)"/>
      <rect id="Retângulo_465" data-name="Retângulo 465" class="cls-3" width="1.204" height="2.201" transform="translate(966.062 195.235) rotate(90)"/>
      <rect id="Retângulo_466" data-name="Retângulo 466" class="cls-6" width="1.204" height="2.201" transform="translate(966.062 206.068) rotate(90)"/>
      <rect id="Retângulo_467" data-name="Retângulo 467" class="cls-6" width="2.407" height="1.204" transform="translate(971.479 202.457) rotate(90)"/>
      <rect id="Retângulo_468" data-name="Retângulo 468" class="cls-6" width="2.873" height="1.149" transform="translate(971.314 197.205) rotate(90)"/>
      <path id="Caminho_1454" data-name="Caminho 1454" class="cls-3" d="M1.2,2.407v1.2H3.611v-1.2Zm7.222,0H6.019v1.2H8.426ZM9.63,0V7.824H0V0Z" transform="translate(973.885 196.439) rotate(90)"/>
      <path id="Caminho_1455" data-name="Caminho 1455" class="cls-3" d="M6.62,0a15.969,15.969,0,0,1,6.621,1.2v1.2A15.969,15.969,0,0,0,6.62,1.2,15.969,15.969,0,0,0,0,2.407V1.2A15.97,15.97,0,0,1,6.62,0Z" transform="translate(964.858 194.633) rotate(90)"/>
      <path id="Caminho_1462" data-name="Caminho 1462" class="cls-5" d="M13.241,1.2V21.065A6.62,6.62,0,0,1,0,21.065V1.2A15.969,15.969,0,0,1,6.62,0,15.97,15.97,0,0,1,13.241,1.2Z" transform="translate(963.654 194.633) rotate(90)"/>
      <path id="Caminho_1463" data-name="Caminho 1463" class="cls-3" d="M1.2,21.5V0L0,.436V21.5a6.62,6.62,0,0,0,6.62,6.62c.2,0,.4-.012.6-.031A6.619,6.619,0,0,1,1.2,21.5Z" transform="translate(964.09 194.633) rotate(90)"/>
      <path id="Caminho_1464" data-name="Caminho 1464" class="cls-4" d="M1.2,0,0,.436v1.2a8.958,8.958,0,0,1,1.2-.45Z" transform="translate(964.09 194.633) rotate(90)"/>
      <path id="Caminho_1465" data-name="Caminho 1465" class="cls-6" d="M6.019,21.5V0l1.2.436V21.5A6.62,6.62,0,0,1,.6,28.121c-.2,0-.4-.012-.6-.031A6.619,6.619,0,0,0,6.019,21.5Z" transform="translate(964.09 200.652) rotate(90)"/>
      <path id="Caminho_1466" data-name="Caminho 1466" class="cls-5" d="M0,0V1.19a8.957,8.957,0,0,1,1.2.45V.436Z" transform="translate(964.09 206.67) rotate(90)"/>
      <path id="Caminho_1467" data-name="Caminho 1467" class="cls-3" d="M4.213,2.107A2.107,2.107,0,1,1,2.106,0,2.106,2.106,0,0,1,4.213,2.107Z" transform="translate(953.122 199.147) rotate(90)"/>
      <path id="Caminho_1468" data-name="Caminho 1468" class="cls-4" d="M.6,2.107A2.1,2.1,0,0,1,2.407.031,2.116,2.116,0,0,0,2.106,0a2.107,2.107,0,0,0,0,4.213,2.128,2.128,0,0,0,.3-.031A2.1,2.1,0,0,1,.6,2.107Z" transform="translate(953.122 199.147) rotate(90)"/>
      <path id="Caminho_1469" data-name="Caminho 1469" class="cls-5" d="M1.806,2.107A2.1,2.1,0,0,1,0,4.183a2.115,2.115,0,0,0,.3.031A2.107,2.107,0,1,0,.3,0,2.127,2.127,0,0,0,0,.031,2.1,2.1,0,0,1,1.806,2.107Z" transform="translate(953.122 200.953) rotate(90)"/>
      <rect id="Retângulo_469" data-name="Retângulo 469" class="cls-4" width="1.204" height="7.824" transform="translate(973.886 196.439) rotate(90)"/>
      <rect id="Retângulo_470" data-name="Retângulo 470" class="cls-5" width="1.204" height="7.824" transform="translate(973.886 204.864) rotate(90)"/>
      <rect id="Retângulo_471" data-name="Retângulo 471" class="cls-8" width="1.149" height="1.149" transform="translate(971.314 197.205) rotate(90)"/>
      <rect id="Retângulo_472" data-name="Retângulo 472" class="cls-8" width="0.602" height="1.204" transform="translate(971.479 202.457) rotate(90)"/>
      <path id="Caminho_1470" data-name="Caminho 1470" class="cls-9" d="M.68,3.828A.3.3,0,0,1,.434,3.7,2.408,2.408,0,0,1,1.72.013a.3.3,0,1,1,.17.577A1.807,1.807,0,0,0,.926,3.354a.3.3,0,0,1-.246.474Z" transform="translate(953.327 198.846) rotate(90)"/>
      <path id="Caminho_1471" data-name="Caminho 1471" class="cls-9" d="M.3,3.8a.3.3,0,0,1-.086-.59A1.813,1.813,0,0,0,1.5,1.481,1.792,1.792,0,0,0,1.2.47a.3.3,0,0,1,.5-.338,2.4,2.4,0,0,1,.413,1.348A2.418,2.418,0,0,1,.387,3.786.31.31,0,0,1,.3,3.8Z" transform="translate(952.484 201.554) rotate(90)"/>
      <path id="Caminho_1472" data-name="Caminho 1472" class="cls-9" d="M1.481,1.782a.3.3,0,0,1-.213-.088L.088.514A.3.3,0,0,1,.514.088l1.18,1.18a.3.3,0,0,1-.213.514Z" transform="translate(951.907 200.351) rotate(90)"/>
      <path id="Caminho_1473" data-name="Caminho 1473" class="cls-9" d="M.3,3.009A.3.3,0,0,1,.088,2.5L2.5.088a.3.3,0,1,1,.426.425L.514,2.921A.3.3,0,0,1,.3,3.009Z" transform="translate(954.314 200.351) rotate(90)"/>
      <path id="Caminho_1474" data-name="Caminho 1474" class="cls-9" d="M.3,3.009A.3.3,0,0,1,.088,2.5L2.5.088a.3.3,0,1,1,.426.426L.514,2.921A.3.3,0,0,1,.3,3.009Z" transform="translate(950.726 199.123) rotate(90)"/>
      <path id="Caminho_1475" data-name="Caminho 1475" class="cls-9" d="M.3,21.667a.3.3,0,0,1-.3-.3V.3A.3.3,0,0,1,.6.3V21.366A.3.3,0,0,1,.3,21.667Z" transform="translate(963.956 194.332) rotate(90)"/>
      <path id="Caminho_1476" data-name="Caminho 1476" class="cls-9" d="M.3,21.667a.3.3,0,0,1-.3-.3V.3A.3.3,0,0,1,.6.3V21.366A.3.3,0,0,1,.3,21.667Z" transform="translate(963.956 207.573) rotate(90)"/>
      <path id="Caminho_1477" data-name="Caminho 1477" class="cls-9" d="M6.921,7.222A6.929,6.929,0,0,1,0,.3.3.3,0,0,1,.6.3,6.32,6.32,0,0,0,13.241.3a.3.3,0,0,1,.6,0A6.929,6.929,0,0,1,6.921,7.222Z" transform="translate(942.891 194.332) rotate(90)"/>
      <path id="Caminho_1481" data-name="Caminho 1481" class="cls-9" d="M.3,1.806a.3.3,0,0,1-.135-.57A16.139,16.139,0,0,1,6.921,0a16.14,16.14,0,0,1,6.755,1.235.3.3,0,0,1-.269.538A15.9,15.9,0,0,0,6.921.6,15.808,15.808,0,0,0,.436,1.774.3.3,0,0,1,.3,1.806Z" transform="translate(963.956 194.332) rotate(90)"/>
      <path id="Caminho_1482" data-name="Caminho 1482" class="cls-9" d="M.3,1.806a.3.3,0,0,1-.135-.57A16.139,16.139,0,0,1,6.921,0a16.139,16.139,0,0,1,6.755,1.235.3.3,0,0,1-.269.538A15.9,15.9,0,0,0,6.921.6,15.808,15.808,0,0,0,.436,1.774.3.3,0,0,1,.3,1.806Z" transform="translate(965.159 194.332) rotate(90)"/>
      <path id="Caminho_1485" data-name="Caminho 1485" class="cls-9" d="M.3,2.161a.3.3,0,0,1-.3-.3V.3A.3.3,0,0,1,.6.3V1.86A.3.3,0,0,1,.3,2.161Z" transform="translate(966.363 194.934) rotate(90)"/>
      <path id="Caminho_1486" data-name="Caminho 1486" class="cls-9" d="M12.338.6H.3A.3.3,0,0,1,.3,0H12.338a.3.3,0,1,1,0,.6Z" transform="translate(966.363 194.934) rotate(90)"/>
      <path id="Caminho_1487" data-name="Caminho 1487" class="cls-9" d="M.3,2.161a.3.3,0,0,1-.3-.3V.3A.3.3,0,0,1,.6.3V1.86A.3.3,0,0,1,.3,2.161Z" transform="translate(966.363 206.971) rotate(90)"/>
      <path id="Caminho_1488" data-name="Caminho 1488" class="cls-9" d="M.3,7.824a.3.3,0,0,1-.3-.3V.3A.3.3,0,1,1,.6.3V7.523A.3.3,0,0,1,.3,7.824Z" transform="translate(974.187 196.138) rotate(90)"/>
      <path id="Caminho_1489" data-name="Caminho 1489" class="cls-9" d="M9.931.6H.3A.3.3,0,0,1,.3,0h9.63a.3.3,0,1,1,0,.6Z" transform="translate(974.187 196.138) rotate(90)"/>
      <path id="Caminho_1490" data-name="Caminho 1490" class="cls-9" d="M.3,7.824a.3.3,0,0,1-.3-.3V.3A.3.3,0,1,1,.6.3V7.523A.3.3,0,0,1,.3,7.824Z" transform="translate(974.187 205.767) rotate(90)"/>
      <path id="Caminho_1491" data-name="Caminho 1491" class="cls-9" d="M2.708,1.806H.3A.3.3,0,0,1,0,1.5V.3A.3.3,0,0,1,.3,0H2.708a.3.3,0,0,1,.3.3V1.5A.3.3,0,0,1,2.708,1.806ZM.6,1.2H2.408V.6H.6S.6,1.2.6,1.2Z" transform="translate(971.78 197.341) rotate(90)"/>
      <path id="Caminho_1492" data-name="Caminho 1492" class="cls-9" d="M2.708,1.806H.3A.3.3,0,0,1,0,1.5V.3A.3.3,0,0,1,.3,0H2.708a.3.3,0,0,1,.3.3V1.5A.3.3,0,0,1,2.708,1.806ZM.6,1.2H2.408V.6H.6Z" transform="translate(971.78 202.156) rotate(90)"/>
    </g>
  </g>
</svg>
