<svg xmlns="http://www.w3.org/2000/svg" xmlns:xlink="http://www.w3.org/1999/xlink" width="31.984" height="31.984" viewBox="0 0 31.984 31.984">
  <defs>
    <style>
      .cls-1 {
        fill: url(#linear-gradient);
      }
    </style>
    <linearGradient id="linear-gradient" x1="0.586" y1="0.285" x2="0.307" y2="0.78" gradientUnits="objectBoundingBox">
      <stop offset="0" stop-color="#fe0"/>
      <stop offset="1" stop-color="#257d00"/>
    </linearGradient>
  </defs>
  <g id="memoria" transform="translate(14365.581 15804.08) rotate(-45)">
    <g id="Grupo_94" data-name="Grupo 94" transform="translate(1001 -21317)">
      <g id="Grupo_93" data-name="Grupo 93">
        <path id="Caminho_379" data-name="Caminho 379" class="cls-1" d="M31.806,143.093a.528.528,0,0,0,.539-.515v-2.062a.528.528,0,0,0-.539-.515H.539a.528.528,0,0,0-.539.515v2.062a.528.528,0,0,0,.539.515.516.516,0,1,1,0,1.031.528.528,0,0,0-.539.515v6.185a.528.528,0,0,0,.539.515h.539v1.031a.528.528,0,0,0,.539.515h9.7a.528.528,0,0,0,.539-.515V151.34h1.078v1.031a.528.528,0,0,0,.539.515H30.728a.528.528,0,0,0,.539-.515V151.34h.539a.528.528,0,0,0,.539-.515v-6.185a.528.528,0,0,0-.539-.515.516.516,0,1,1,0-1.031Zm-21.024,8.763H2.156v-.515h8.625Zm19.407,0H14.016v-.515H30.189Zm1.078-9.705a1.53,1.53,0,0,0-.987,1.973,1.584,1.584,0,0,0,.987.944v5.243H1.078v-5.243c.018-.006.035-.015.054-.022s.059-.024.088-.038a1.659,1.659,0,0,0,.174-.09c.026-.015.054-.031.078-.048a1.624,1.624,0,0,0,.181-.142c.012-.011.025-.02.037-.031a1.6,1.6,0,0,0,.18-.206c.015-.021.027-.043.041-.064a1.517,1.517,0,0,0,.1-.175c.013-.028.025-.057.037-.086a1.392,1.392,0,0,0,.06-.186c.008-.028.016-.056.022-.085a1.351,1.351,0,0,0,0-.567c-.005-.029-.014-.056-.022-.085a1.394,1.394,0,0,0-.06-.186c-.012-.029-.024-.058-.037-.087a1.566,1.566,0,0,0-.1-.174c-.014-.021-.026-.044-.041-.064a1.6,1.6,0,0,0-.18-.206c-.011-.011-.025-.02-.037-.031a1.622,1.622,0,0,0-.181-.142c-.025-.018-.054-.033-.078-.048a1.67,1.67,0,0,0-.174-.09c-.029-.013-.058-.026-.088-.038s-.034-.016-.054-.022v-1.123H31.267Z" transform="translate(0 -140)"/>
      </g>
    </g>
    <g id="Grupo_96" data-name="Grupo 96" transform="translate(1015.153 -21314.898)">
      <g id="Grupo_95" data-name="Grupo 95">
        <path id="Caminho_380" data-name="Caminho 380" class="cls-1" d="M211.534,172H208.5a.5.5,0,0,0-.5.5v5.048a.5.5,0,0,0,.5.5h3.029a.5.5,0,0,0,.5-.5V172.5A.5.5,0,0,0,211.534,172Zm-.5,5.048H209.01V173.01h2.019Z" transform="translate(-208 -172)"/>
      </g>
    </g>
    <g id="Grupo_98" data-name="Grupo 98" transform="translate(1020.597 -21314.898)">
      <g id="Grupo_97" data-name="Grupo 97">
        <path id="Caminho_381" data-name="Caminho 381" class="cls-1" d="M291.534,172H288.5a.5.5,0,0,0-.5.5v5.048a.5.5,0,0,0,.5.5h3.029a.5.5,0,0,0,.5-.5V172.5A.5.5,0,0,0,291.534,172Zm-.5,5.048H289.01V173.01h2.019Z" transform="translate(-288 -172)"/>
      </g>
    </g>
    <g id="Grupo_100" data-name="Grupo 100" transform="translate(1004.029 -21314.898)">
      <g id="Grupo_99" data-name="Grupo 99">
        <path id="Caminho_382" data-name="Caminho 382" class="cls-1" d="M51.534,172H48.5a.5.5,0,0,0-.5.5v5.048a.5.5,0,0,0,.5.5h3.029a.5.5,0,0,0,.5-.5V172.5A.5.5,0,0,0,51.534,172Zm-.5,5.048H49.01V173.01h2.019Z" transform="translate(-48 -172)"/>
      </g>
    </g>
    <g id="Grupo_102" data-name="Grupo 102" transform="translate(1009.71 -21314.898)">
      <g id="Grupo_101" data-name="Grupo 101">
        <path id="Caminho_383" data-name="Caminho 383" class="cls-1" d="M131.534,172H128.5a.5.5,0,0,0-.5.5v5.048a.5.5,0,0,0,.5.5h3.029a.5.5,0,0,0,.5-.5V172.5A.5.5,0,0,0,131.534,172Zm-.5,5.048H129.01V173.01h2.019Z" transform="translate(-128 -172)"/>
      </g>
    </g>
    <g id="Grupo_104" data-name="Grupo 104" transform="translate(1026.278 -21314.898)">
      <g id="Grupo_103" data-name="Grupo 103">
        <path id="Caminho_384" data-name="Caminho 384" class="cls-1" d="M371.534,172H368.5a.5.5,0,0,0-.5.5v5.048a.5.5,0,0,0,.5.5h3.029a.5.5,0,0,0,.5-.5V172.5A.5.5,0,0,0,371.534,172Zm-.5,5.048H369.01V173.01h2.019Z" transform="translate(-368 -172)"/>
      </g>
    </g>
  </g>
</svg>
