<svg xmlns="http://www.w3.org/2000/svg" width="67.069" height="30.391" viewBox="0 0 67.069 30.391">
  <defs>
    <style>
      .cls-1 {
        opacity: 0.25;
      }

      .cls-2 {
        fill: #3a3847;
      }

      .cls-3 {
        fill: #ffbe5c;
      }

      .cls-4 {
        fill: #ffd294;
      }

      .cls-5 {
        fill: #ff9c22;
      }

      .cls-6 {
        fill: #d7e9ff;
      }

      .cls-7 {
        fill: #fff;
      }

      .cls-8 {
        fill: #ffedd7;
      }

      .cls-9 {
        fill: #ffa011;
      }
    </style>
  </defs>
  <g id="memory" class="cls-1" transform="translate(-959 19947)">
    <g id="Grupo_400" data-name="Grupo 400" transform="translate(960.075 -19930.234)">
      <path id="Caminho_1665" data-name="Caminho 1665" class="cls-2" d="M8.732,269.04a.528.528,0,0,1-.529-.524.519.519,0,0,1,.518-.524h.011a.524.524,0,1,1,0,1.048Z" transform="translate(-8.203 -267.992)"/>
      <path id="Caminho_1666" data-name="Caminho 1666" class="cls-2" d="M496.732,269.04a.528.528,0,0,1-.529-.524.519.519,0,0,1,.518-.524h.011a.524.524,0,1,1,0,1.048Z" transform="translate(-432.278 -267.992)"/>
    </g>
    <rect id="Retângulo_479" data-name="Retângulo 479" class="cls-3" width="5" height="8" transform="translate(966.069 -19942.609)"/>
    <rect id="Retângulo_480" data-name="Retângulo 480" class="cls-4" width="1" height="8" transform="translate(966.069 -19942.609)"/>
    <rect id="Retângulo_481" data-name="Retângulo 481" class="cls-5" width="1" height="8" transform="translate(970.069 -19942.609)"/>
    <rect id="Retângulo_482" data-name="Retângulo 482" class="cls-3" width="5" height="8" transform="translate(975.069 -19942.609)"/>
    <rect id="Retângulo_483" data-name="Retângulo 483" class="cls-4" width="1" height="8" transform="translate(975.069 -19942.609)"/>
    <rect id="Retângulo_484" data-name="Retângulo 484" class="cls-5" width="1" height="8" transform="translate(979.069 -19942.609)"/>
    <rect id="Retângulo_485" data-name="Retângulo 485" class="cls-3" width="5" height="8" transform="translate(985.069 -19942.609)"/>
    <rect id="Retângulo_486" data-name="Retângulo 486" class="cls-4" width="1" height="8" transform="translate(985.069 -19942.609)"/>
    <rect id="Retângulo_487" data-name="Retângulo 487" class="cls-5" width="1" height="8" transform="translate(989.069 -19942.609)"/>
    <rect id="Retângulo_488" data-name="Retângulo 488" class="cls-3" width="5" height="8" transform="translate(995.069 -19942.609)"/>
    <rect id="Retângulo_489" data-name="Retângulo 489" class="cls-4" width="1" height="8" transform="translate(995.069 -19942.609)"/>
    <rect id="Retângulo_490" data-name="Retângulo 490" class="cls-5" width="1" height="8" transform="translate(999.069 -19942.609)"/>
    <rect id="Retângulo_491" data-name="Retângulo 491" class="cls-3" width="5" height="8" transform="translate(1005.069 -19942.609)"/>
    <rect id="Retângulo_492" data-name="Retângulo 492" class="cls-4" width="1" height="8" transform="translate(1005.069 -19942.609)"/>
    <rect id="Retângulo_493" data-name="Retângulo 493" class="cls-5" width="1" height="8" transform="translate(1009.069 -19942.609)"/>
    <rect id="Retângulo_494" data-name="Retângulo 494" class="cls-3" width="5" height="8" transform="translate(1014.069 -19942.609)"/>
    <rect id="Retângulo_495" data-name="Retângulo 495" class="cls-4" width="1" height="8" transform="translate(1014.069 -19942.609)"/>
    <rect id="Retângulo_496" data-name="Retângulo 496" class="cls-5" width="1" height="8" transform="translate(1018.069 -19942.609)"/>
    <path id="Caminho_1667" data-name="Caminho 1667" class="cls-4" d="M16.575,162.863H4v-5.24a1.048,1.048,0,1,0,0-2.1v-2.1a1.048,1.048,0,0,0,0-2.1V144H70.021v7.336a1.048,1.048,0,0,0,0,2.1v2.1a1.048,1.048,0,1,0,0,2.1v5.24H39.63v-2.1a1.048,1.048,0,1,0-2.1,0v2.1H16.575Zm47.158-7.336v-7.336h-5.24v7.336Zm-9.432,0v-7.336h-5.24v7.336Zm-9.432,0v-7.336H39.63v7.336Zm-10.48,0v-7.336h-5.24v7.336Zm-9.432,0v-7.336h-5.24v7.336Zm-9.432,0v-7.336h-5.24v7.336Z" transform="translate(955.524 -20090.477)"/>
    <g id="Grupo_401" data-name="Grupo 401" transform="translate(959.524 -19946.477)">
      <rect id="Retângulo_497" data-name="Retângulo 497" class="cls-6" width="34" height="2" transform="translate(-0.455 16.867)"/>
      <rect id="Retângulo_498" data-name="Retângulo 498" class="cls-6" width="30" height="2" transform="translate(35.545 16.867)"/>
      <rect id="Retângulo_499" data-name="Retângulo 499" class="cls-6" width="2" height="7" transform="translate(-0.455 -0.133)"/>
      <rect id="Retângulo_500" data-name="Retângulo 500" class="cls-6" width="2" height="2" transform="translate(-0.455 9.867)"/>
      <rect id="Retângulo_501" data-name="Retângulo 501" class="cls-6" width="2" height="5" transform="translate(-0.455 13.867)"/>
    </g>
    <g id="Grupo_402" data-name="Grupo 402" transform="translate(1024.497 -19946.477)">
      <rect id="Retângulo_502" data-name="Retângulo 502" class="cls-3" width="1" height="7" transform="translate(-0.428 -0.133)"/>
      <rect id="Retângulo_503" data-name="Retângulo 503" class="cls-3" width="1" height="2" transform="translate(-0.428 9.867)"/>
      <rect id="Retângulo_504" data-name="Retângulo 504" class="cls-3" width="1" height="5" transform="translate(-0.428 13.867)"/>
    </g>
    <rect id="Retângulo_505" data-name="Retângulo 505" class="cls-7" width="2" height="2" transform="translate(959.069 -19929.609)"/>
    <rect id="Retângulo_506" data-name="Retângulo 506" class="cls-4" width="1" height="2" transform="translate(1024.069 -19929.609)"/>
    <g id="Grupo_403" data-name="Grupo 403" transform="translate(960.075 -19919.754)">
      <path id="Caminho_1668" data-name="Caminho 1668" class="cls-2" d="M8.732,349.04a.528.528,0,0,1-.529-.524.519.519,0,0,1,.518-.524h.011a.524.524,0,1,1,0,1.048Z" transform="translate(-8.203 -347.992)"/>
      <path id="Caminho_1669" data-name="Caminho 1669" class="cls-2" d="M496.732,349.04a.528.528,0,0,1-.529-.524.519.519,0,0,1,.518-.524h.011a.524.524,0,1,1,0,1.048Z" transform="translate(-432.278 -347.992)"/>
    </g>
    <rect id="Retângulo_507" data-name="Retângulo 507" class="cls-3" width="5" height="7" transform="translate(966.069 -19931.609)"/>
    <rect id="Retângulo_508" data-name="Retângulo 508" class="cls-4" width="1" height="7" transform="translate(966.069 -19931.609)"/>
    <rect id="Retângulo_509" data-name="Retângulo 509" class="cls-5" width="1" height="7" transform="translate(970.069 -19931.609)"/>
    <rect id="Retângulo_510" data-name="Retângulo 510" class="cls-3" width="5" height="7" transform="translate(975.069 -19931.609)"/>
    <rect id="Retângulo_511" data-name="Retângulo 511" class="cls-4" width="1" height="7" transform="translate(975.069 -19931.609)"/>
    <rect id="Retângulo_512" data-name="Retângulo 512" class="cls-5" width="1" height="7" transform="translate(979.069 -19931.609)"/>
    <rect id="Retângulo_513" data-name="Retângulo 513" class="cls-3" width="5" height="7" transform="translate(985.069 -19931.609)"/>
    <rect id="Retângulo_514" data-name="Retângulo 514" class="cls-4" width="1" height="7" transform="translate(985.069 -19931.609)"/>
    <rect id="Retângulo_515" data-name="Retângulo 515" class="cls-5" width="1" height="7" transform="translate(989.069 -19931.609)"/>
    <rect id="Retângulo_516" data-name="Retângulo 516" class="cls-3" width="5" height="7" transform="translate(995.069 -19931.609)"/>
    <rect id="Retângulo_517" data-name="Retângulo 517" class="cls-4" width="1" height="7" transform="translate(995.069 -19931.609)"/>
    <rect id="Retângulo_518" data-name="Retângulo 518" class="cls-5" width="1" height="7" transform="translate(999.069 -19931.609)"/>
    <rect id="Retângulo_519" data-name="Retângulo 519" class="cls-3" width="5" height="7" transform="translate(1005.069 -19931.609)"/>
    <rect id="Retângulo_520" data-name="Retângulo 520" class="cls-4" width="1" height="7" transform="translate(1005.069 -19931.609)"/>
    <rect id="Retângulo_521" data-name="Retângulo 521" class="cls-5" width="1" height="7" transform="translate(1009.069 -19931.609)"/>
    <rect id="Retângulo_522" data-name="Retângulo 522" class="cls-3" width="5" height="7" transform="translate(1014.069 -19931.609)"/>
    <rect id="Retângulo_523" data-name="Retângulo 523" class="cls-4" width="1" height="7" transform="translate(1014.069 -19931.609)"/>
    <rect id="Retângulo_524" data-name="Retângulo 524" class="cls-5" width="1" height="7" transform="translate(1018.069 -19931.609)"/>
    <path id="Caminho_1670" data-name="Caminho 1670" class="cls-4" d="M16.575,242.863H4v-5.24a1.048,1.048,0,1,0,0-2.1v-2.1a1.048,1.048,0,0,0,0-2.1V224H70.021v7.336a1.048,1.048,0,0,0,0,2.1v2.1a1.048,1.048,0,1,0,0,2.1v5.24H39.63v-2.1a1.048,1.048,0,0,0-2.1,0v2.1H16.575Zm47.158-7.336v-7.336h-5.24v7.336Zm-9.432,0v-7.336h-5.24v7.336Zm-9.432,0v-7.336H39.63v7.336Zm-10.48,0v-7.336h-5.24v7.336Zm-9.432,0v-7.336h-5.24v7.336Zm-9.432,0v-7.336h-5.24v7.336Z" transform="translate(955.524 -20159.996)"/>
    <g id="Grupo_404" data-name="Grupo 404" transform="translate(959.524 -19935.996)">
      <rect id="Retângulo_525" data-name="Retângulo 525" class="cls-8" width="34" height="2" transform="translate(-0.455 16.387)"/>
      <rect id="Retângulo_526" data-name="Retângulo 526" class="cls-8" width="30" height="2" transform="translate(35.545 16.387)"/>
      <rect id="Retângulo_527" data-name="Retângulo 527" class="cls-8" width="2" height="7" transform="translate(-0.455 0.387)"/>
      <rect id="Retângulo_528" data-name="Retângulo 528" class="cls-8" width="2" height="2" transform="translate(-0.455 9.387)"/>
      <rect id="Retângulo_529" data-name="Retângulo 529" class="cls-8" width="2" height="5" transform="translate(-0.455 13.387)"/>
    </g>
    <g id="Grupo_405" data-name="Grupo 405" transform="translate(1024.497 -19935.996)">
      <rect id="Retângulo_530" data-name="Retângulo 530" class="cls-3" width="1" height="7" transform="translate(-0.428 0.387)"/>
      <rect id="Retângulo_531" data-name="Retângulo 531" class="cls-3" width="1" height="2" transform="translate(-0.428 9.387)"/>
      <rect id="Retângulo_532" data-name="Retângulo 532" class="cls-3" width="1" height="5" transform="translate(-0.428 13.387)"/>
    </g>
    <rect id="Retângulo_533" data-name="Retângulo 533" class="cls-7" width="2" height="2" transform="translate(959.069 -19919.609)"/>
    <rect id="Retângulo_534" data-name="Retângulo 534" class="cls-4" width="1" height="2" transform="translate(1024.069 -19919.609)"/>
    <g id="Grupo_406" data-name="Grupo 406" transform="translate(959 -19947)">
      <path id="Caminho_1671" data-name="Caminho 1671" class="cls-9" d="M48.732,333.04a.528.528,0,0,1-.529-.524.519.519,0,0,1,.518-.524h.011a.524.524,0,1,1,0,1.048Z" transform="translate(-41.889 -306.842)"/>
      <path id="Caminho_1672" data-name="Caminho 1672" class="cls-9" d="M88.732,333.04a.528.528,0,0,1-.529-.524.519.519,0,0,1,.518-.524h.011a.524.524,0,1,1,0,1.048Z" transform="translate(-76.649 -306.842)"/>
      <path id="Caminho_1673" data-name="Caminho 1673" class="cls-9" d="M120.732,333.04a.528.528,0,0,1-.529-.524.519.519,0,0,1,.518-.524h.011a.524.524,0,1,1,0,1.048Z" transform="translate(-104.457 -306.842)"/>
      <path id="Caminho_1674" data-name="Caminho 1674" class="cls-9" d="M160.732,333.04a.528.528,0,0,1-.529-.524.519.519,0,0,1,.518-.524h.011a.524.524,0,1,1,0,1.048Z" transform="translate(-139.217 -306.842)"/>
      <path id="Caminho_1675" data-name="Caminho 1675" class="cls-9" d="M192.732,333.04a.528.528,0,0,1-.529-.524.519.519,0,0,1,.518-.524h.011a.524.524,0,1,1,0,1.048Z" transform="translate(-167.026 -306.842)"/>
      <path id="Caminho_1676" data-name="Caminho 1676" class="cls-9" d="M232.732,333.04a.528.528,0,0,1-.529-.524.519.519,0,0,1,.518-.524h.011a.524.524,0,1,1,0,1.048Z" transform="translate(-201.786 -306.842)"/>
      <path id="Caminho_1677" data-name="Caminho 1677" class="cls-9" d="M312.732,333.04a.528.528,0,0,1-.529-.524.519.519,0,0,1,.518-.524h.011a.524.524,0,0,1,0,1.048Z" transform="translate(-271.306 -306.842)"/>
      <path id="Caminho_1678" data-name="Caminho 1678" class="cls-9" d="M344.732,333.04a.528.528,0,0,1-.529-.524.519.519,0,0,1,.518-.524h.011a.524.524,0,0,1,0,1.048Z" transform="translate(-299.114 -306.842)"/>
      <path id="Caminho_1679" data-name="Caminho 1679" class="cls-9" d="M384.732,333.04a.528.528,0,0,1-.529-.524.519.519,0,0,1,.518-.524h.011a.524.524,0,1,1,0,1.048Z" transform="translate(-333.875 -306.842)"/>
      <path id="Caminho_1680" data-name="Caminho 1680" class="cls-9" d="M416.732,333.04a.528.528,0,0,1-.529-.524.519.519,0,0,1,.518-.524h.011a.524.524,0,1,1,0,1.048Z" transform="translate(-361.683 -306.842)"/>
      <path id="Caminho_1681" data-name="Caminho 1681" class="cls-9" d="M456.732,333.04a.528.528,0,0,1-.529-.524.519.519,0,0,1,.518-.524h.011a.524.524,0,1,1,0,1.048Z" transform="translate(-396.443 -306.842)"/>
      <path id="Caminho_1682" data-name="Caminho 1682" class="cls-9" d="M66.545,221.048H.524a.524.524,0,0,1,0-1.048H66.545a.524.524,0,1,1,0,1.048Z" transform="translate(0 -209.52)"/>
      <path id="Caminho_1683" data-name="Caminho 1683" class="cls-9" d="M.524,228.384A.524.524,0,0,1,0,227.86v-7.336a.524.524,0,0,1,1.048,0v7.336A.524.524,0,0,1,.524,228.384Z" transform="translate(0 -209.52)"/>
      <path id="Caminho_1684" data-name="Caminho 1684" class="cls-9" d="M.524,330.288A.524.524,0,0,1,0,329.764v-5.24a.524.524,0,1,1,1.048,0v5.24A.524.524,0,0,1,.524,330.288Z" transform="translate(0 -299.897)"/>
      <path id="Caminho_1685" data-name="Caminho 1685" class="cls-9" d="M.524,311.144a.524.524,0,1,1,0-1.048.524.524,0,1,0,0-1.048.524.524,0,0,1,0-1.048,1.572,1.572,0,0,1,0,3.144Z" transform="translate(0 -285.993)"/>
      <path id="Caminho_1686" data-name="Caminho 1686" class="cls-9" d="M.524,279.144a.524.524,0,1,1,0-1.048.524.524,0,1,0,0-1.048.524.524,0,0,1,0-1.048,1.572,1.572,0,0,1,0,3.144Z" transform="translate(0 -258.185)"/>
      <path id="Caminho_1687" data-name="Caminho 1687" class="cls-9" d="M.524,295.144A.524.524,0,0,1,0,294.62v-2.1a.524.524,0,0,1,1.048,0v2.1A.524.524,0,0,1,.524,295.144Z" transform="translate(0 -272.089)"/>
      <path id="Caminho_1688" data-name="Caminho 1688" class="cls-9" d="M504.524,228.384a.524.524,0,0,1-.524-.524v-7.336a.524.524,0,1,1,1.048,0v7.336A.524.524,0,0,1,504.524,228.384Z" transform="translate(-437.979 -209.52)"/>
      <path id="Caminho_1689" data-name="Caminho 1689" class="cls-9" d="M504.524,330.288a.524.524,0,0,1-.524-.524v-5.24a.524.524,0,1,1,1.048,0v5.24A.524.524,0,0,1,504.524,330.288Z" transform="translate(-437.979 -299.897)"/>
      <path id="Caminho_1690" data-name="Caminho 1690" class="cls-9" d="M497.572,311.144a1.572,1.572,0,1,1,0-3.144.524.524,0,0,1,0,1.048.524.524,0,0,0,0,1.048.524.524,0,1,1,0,1.048Z" transform="translate(-431.027 -285.993)"/>
      <path id="Caminho_1691" data-name="Caminho 1691" class="cls-9" d="M497.572,279.144a1.572,1.572,0,1,1,0-3.144.524.524,0,0,1,0,1.048.524.524,0,0,0,0,1.048.524.524,0,1,1,0,1.048Z" transform="translate(-431.027 -258.185)"/>
      <path id="Caminho_1692" data-name="Caminho 1692" class="cls-9" d="M504.524,295.144a.524.524,0,0,1-.524-.524v-2.1a.524.524,0,0,1,1.048,0v2.1A.524.524,0,0,1,504.524,295.144Z" transform="translate(-437.979 -272.089)"/>
      <path id="Caminho_1693" data-name="Caminho 1693" class="cls-9" d="M53.764,260.384h-5.24A.524.524,0,0,1,48,259.86v-7.336a.524.524,0,0,1,.524-.524h5.24a.524.524,0,0,1,.524.524v7.336A.524.524,0,0,1,53.764,260.384Zm-4.716-1.048H53.24v-6.288H49.048Z" transform="translate(-41.712 -237.329)"/>
      <path id="Caminho_1694" data-name="Caminho 1694" class="cls-9" d="M125.764,260.384h-5.24a.524.524,0,0,1-.524-.524v-7.336a.524.524,0,0,1,.524-.524h5.24a.524.524,0,0,1,.524.524v7.336A.524.524,0,0,1,125.764,260.384Zm-4.716-1.048h4.192v-6.288h-4.192Z" transform="translate(-104.281 -237.329)"/>
      <path id="Caminho_1695" data-name="Caminho 1695" class="cls-9" d="M197.764,260.384h-5.24a.524.524,0,0,1-.524-.524v-7.336a.524.524,0,0,1,.524-.524h5.24a.524.524,0,0,1,.524.524v7.336A.524.524,0,0,1,197.764,260.384Zm-4.716-1.048h4.192v-6.288h-4.192Z" transform="translate(-166.849 -237.329)"/>
      <path id="Caminho_1696" data-name="Caminho 1696" class="cls-9" d="M277.764,260.384h-5.24a.524.524,0,0,1-.524-.524v-7.336a.524.524,0,0,1,.524-.524h5.24a.524.524,0,0,1,.524.524v7.336A.524.524,0,0,1,277.764,260.384Zm-4.716-1.048h4.192v-6.288h-4.192Z" transform="translate(-236.37 -237.329)"/>
      <path id="Caminho_1697" data-name="Caminho 1697" class="cls-9" d="M349.764,260.384h-5.24a.524.524,0,0,1-.524-.524v-7.336a.524.524,0,0,1,.524-.524h5.24a.524.524,0,0,1,.524.524v7.336A.524.524,0,0,1,349.764,260.384Zm-4.716-1.048h4.192v-6.288h-4.192Z" transform="translate(-298.938 -237.329)"/>
      <path id="Caminho_1698" data-name="Caminho 1698" class="cls-9" d="M421.764,260.384h-5.24a.524.524,0,0,1-.524-.524v-7.336a.524.524,0,0,1,.524-.524h5.24a.524.524,0,0,1,.524.524v7.336A.524.524,0,0,1,421.764,260.384Zm-4.716-1.048h4.192v-6.288h-4.192Z" transform="translate(-361.506 -237.329)"/>
      <path id="Caminho_1699" data-name="Caminho 1699" class="cls-9" d="M258.62,342.1a.524.524,0,0,1-.524-.524.524.524,0,1,0-1.048,0,.524.524,0,0,1-1.048,0,1.572,1.572,0,0,1,3.144,0A.524.524,0,0,1,258.62,342.1Z" transform="translate(-222.466 -313.801)"/>
      <path id="Caminho_1700" data-name="Caminho 1700" class="cls-9" d="M302.915,365.048H272.524a.524.524,0,1,1,0-1.048h30.391a.524.524,0,0,1,0,1.048Z" transform="translate(-236.37 -334.657)"/>
      <path id="Caminho_1701" data-name="Caminho 1701" class="cls-9" d="M272.524,351.144a.524.524,0,0,1-.524-.524v-2.1a.524.524,0,1,1,1.048,0v2.1A.524.524,0,0,1,272.524,351.144Z" transform="translate(-236.37 -320.753)"/>
      <path id="Caminho_1702" data-name="Caminho 1702" class="cls-9" d="M256.524,351.144a.524.524,0,0,1-.524-.524v-2.1a.524.524,0,1,1,1.048,0v2.1A.524.524,0,0,1,256.524,351.144Z" transform="translate(-222.466 -320.753)"/>
      <path id="Caminho_1703" data-name="Caminho 1703" class="cls-9" d="M34.058,365.048H.524a.524.524,0,1,1,0-1.048H34.058a.524.524,0,1,1,0,1.048Z" transform="translate(0 -334.657)"/>
      <path id="Caminho_1704" data-name="Caminho 1704" class="cls-9" d="M32.524,358.1a.524.524,0,0,1-.524-.524v-1.048a.524.524,0,1,1,1.048,0v1.048A.524.524,0,0,1,32.524,358.1Z" transform="translate(-27.808 -327.705)"/>
      <path id="Caminho_1705" data-name="Caminho 1705" class="cls-9" d="M48.524,358.1a.524.524,0,0,1-.524-.524v-1.048a.524.524,0,1,1,1.048,0v1.048A.524.524,0,0,1,48.524,358.1Z" transform="translate(-41.712 -327.705)"/>
      <path id="Caminho_1706" data-name="Caminho 1706" class="cls-9" d="M64.524,358.1a.524.524,0,0,1-.524-.524v-1.048a.524.524,0,1,1,1.048,0v1.048A.524.524,0,0,1,64.524,358.1Z" transform="translate(-55.616 -327.705)"/>
      <path id="Caminho_1707" data-name="Caminho 1707" class="cls-9" d="M80.524,358.1a.524.524,0,0,1-.524-.524v-1.048a.524.524,0,1,1,1.048,0v1.048A.524.524,0,0,1,80.524,358.1Z" transform="translate(-69.52 -327.705)"/>
      <path id="Caminho_1708" data-name="Caminho 1708" class="cls-9" d="M96.524,358.1a.524.524,0,0,1-.524-.524v-1.048a.524.524,0,1,1,1.048,0v1.048A.524.524,0,0,1,96.524,358.1Z" transform="translate(-83.425 -327.705)"/>
      <path id="Caminho_1709" data-name="Caminho 1709" class="cls-9" d="M112.524,358.1a.524.524,0,0,1-.524-.524v-1.048a.524.524,0,1,1,1.048,0v1.048A.524.524,0,0,1,112.524,358.1Z" transform="translate(-97.329 -327.705)"/>
      <path id="Caminho_1710" data-name="Caminho 1710" class="cls-9" d="M128.524,358.1a.524.524,0,0,1-.524-.524v-1.048a.524.524,0,1,1,1.048,0v1.048A.524.524,0,0,1,128.524,358.1Z" transform="translate(-111.233 -327.705)"/>
      <path id="Caminho_1711" data-name="Caminho 1711" class="cls-9" d="M144.524,358.1a.524.524,0,0,1-.524-.524v-1.048a.524.524,0,1,1,1.048,0v1.048A.524.524,0,0,1,144.524,358.1Z" transform="translate(-125.137 -327.705)"/>
      <path id="Caminho_1712" data-name="Caminho 1712" class="cls-9" d="M160.524,358.1a.524.524,0,0,1-.524-.524v-1.048a.524.524,0,1,1,1.048,0v1.048A.524.524,0,0,1,160.524,358.1Z" transform="translate(-139.041 -327.705)"/>
      <path id="Caminho_1713" data-name="Caminho 1713" class="cls-9" d="M176.524,358.1a.524.524,0,0,1-.524-.524v-1.048a.524.524,0,1,1,1.048,0v1.048A.524.524,0,0,1,176.524,358.1Z" transform="translate(-152.945 -327.705)"/>
      <path id="Caminho_1714" data-name="Caminho 1714" class="cls-9" d="M192.524,358.1a.524.524,0,0,1-.524-.524v-1.048a.524.524,0,1,1,1.048,0v1.048A.524.524,0,0,1,192.524,358.1Z" transform="translate(-166.849 -327.705)"/>
      <path id="Caminho_1715" data-name="Caminho 1715" class="cls-9" d="M208.524,358.1a.524.524,0,0,1-.524-.524v-1.048a.524.524,0,1,1,1.048,0v1.048A.524.524,0,0,1,208.524,358.1Z" transform="translate(-180.753 -327.705)"/>
      <path id="Caminho_1716" data-name="Caminho 1716" class="cls-9" d="M224.524,358.1a.524.524,0,0,1-.524-.524v-1.048a.524.524,0,1,1,1.048,0v1.048A.524.524,0,0,1,224.524,358.1Z" transform="translate(-194.657 -327.705)"/>
      <path id="Caminho_1717" data-name="Caminho 1717" class="cls-9" d="M240.524,358.1a.524.524,0,0,1-.524-.524v-1.048a.524.524,0,1,1,1.048,0v1.048A.524.524,0,0,1,240.524,358.1Z" transform="translate(-208.561 -327.705)"/>
      <path id="Caminho_1718" data-name="Caminho 1718" class="cls-9" d="M288.524,358.1a.524.524,0,0,1-.524-.524v-1.048a.524.524,0,1,1,1.048,0v1.048A.524.524,0,0,1,288.524,358.1Z" transform="translate(-250.274 -327.705)"/>
      <path id="Caminho_1719" data-name="Caminho 1719" class="cls-9" d="M304.524,358.1a.524.524,0,0,1-.524-.524v-1.048a.524.524,0,1,1,1.048,0v1.048A.524.524,0,0,1,304.524,358.1Z" transform="translate(-264.178 -327.705)"/>
      <path id="Caminho_1720" data-name="Caminho 1720" class="cls-9" d="M320.524,358.1a.524.524,0,0,1-.524-.524v-1.048a.524.524,0,0,1,1.048,0v1.048A.524.524,0,0,1,320.524,358.1Z" transform="translate(-278.082 -327.705)"/>
      <path id="Caminho_1721" data-name="Caminho 1721" class="cls-9" d="M336.524,358.1a.524.524,0,0,1-.524-.524v-1.048a.524.524,0,1,1,1.048,0v1.048A.524.524,0,0,1,336.524,358.1Z" transform="translate(-291.986 -327.705)"/>
      <path id="Caminho_1722" data-name="Caminho 1722" class="cls-9" d="M352.524,358.1a.524.524,0,0,1-.524-.524v-1.048a.524.524,0,1,1,1.048,0v1.048A.524.524,0,0,1,352.524,358.1Z" transform="translate(-305.89 -327.705)"/>
      <path id="Caminho_1723" data-name="Caminho 1723" class="cls-9" d="M368.524,358.1a.524.524,0,0,1-.524-.524v-1.048a.524.524,0,0,1,1.048,0v1.048A.524.524,0,0,1,368.524,358.1Z" transform="translate(-319.794 -327.705)"/>
      <path id="Caminho_1724" data-name="Caminho 1724" class="cls-9" d="M384.524,358.1a.524.524,0,0,1-.524-.524v-1.048a.524.524,0,1,1,1.048,0v1.048A.524.524,0,0,1,384.524,358.1Z" transform="translate(-333.698 -327.705)"/>
      <path id="Caminho_1725" data-name="Caminho 1725" class="cls-9" d="M400.524,358.1a.524.524,0,0,1-.524-.524v-1.048a.524.524,0,0,1,1.048,0v1.048A.524.524,0,0,1,400.524,358.1Z" transform="translate(-347.602 -327.705)"/>
      <path id="Caminho_1726" data-name="Caminho 1726" class="cls-9" d="M416.524,358.1a.524.524,0,0,1-.524-.524v-1.048a.524.524,0,1,1,1.048,0v1.048A.524.524,0,0,1,416.524,358.1Z" transform="translate(-361.506 -327.705)"/>
      <path id="Caminho_1727" data-name="Caminho 1727" class="cls-9" d="M432.524,358.1a.524.524,0,0,1-.524-.524v-1.048a.524.524,0,1,1,1.048,0v1.048A.524.524,0,0,1,432.524,358.1Z" transform="translate(-375.411 -327.705)"/>
      <path id="Caminho_1728" data-name="Caminho 1728" class="cls-9" d="M448.524,358.1a.524.524,0,0,1-.524-.524v-1.048a.524.524,0,0,1,1.048,0v1.048A.524.524,0,0,1,448.524,358.1Z" transform="translate(-389.315 -327.705)"/>
      <path id="Caminho_1729" data-name="Caminho 1729" class="cls-9" d="M464.524,358.1a.524.524,0,0,1-.524-.524v-1.048a.524.524,0,1,1,1.048,0v1.048A.524.524,0,0,1,464.524,358.1Z" transform="translate(-403.219 -327.705)"/>
      <path id="Caminho_1730" data-name="Caminho 1730" class="cls-9" d="M480.524,358.1a.524.524,0,0,1-.524-.524v-1.048a.524.524,0,1,1,1.048,0v1.048A.524.524,0,0,1,480.524,358.1Z" transform="translate(-417.123 -327.705)"/>
      <path id="Caminho_1731" data-name="Caminho 1731" class="cls-9" d="M66.545,141.048H.524a.524.524,0,1,1,0-1.048H66.545a.524.524,0,1,1,0,1.048Z" transform="translate(0 -140)"/>
      <path id="Caminho_1732" data-name="Caminho 1732" class="cls-9" d="M.524,148.384A.524.524,0,0,1,0,147.86v-7.336a.524.524,0,0,1,1.048,0v7.336A.524.524,0,0,1,.524,148.384Z" transform="translate(0 -140)"/>
      <path id="Caminho_1733" data-name="Caminho 1733" class="cls-9" d="M.524,199.144a.524.524,0,0,1,0-1.048.524.524,0,1,0,0-1.048.524.524,0,0,1,0-1.048,1.572,1.572,0,0,1,0,3.144Z" transform="translate(0 -188.664)"/>
      <path id="Caminho_1734" data-name="Caminho 1734" class="cls-9" d="M504.524,148.384a.524.524,0,0,1-.524-.524v-7.336a.524.524,0,1,1,1.048,0v7.336A.524.524,0,0,1,504.524,148.384Z" transform="translate(-437.979 -140)"/>
      <path id="Caminho_1735" data-name="Caminho 1735" class="cls-9" d="M497.572,199.144a1.572,1.572,0,1,1,0-3.144.524.524,0,1,1,0,1.048.524.524,0,0,0,0,1.048.524.524,0,1,1,0,1.048Z" transform="translate(-431.027 -188.664)"/>
      <path id="Caminho_1736" data-name="Caminho 1736" class="cls-9" d="M53.764,178.288a.524.524,0,0,1-.524-.524v-4.716H49.048v4.716a.524.524,0,0,1-1.048,0v-5.24a.524.524,0,0,1,.524-.524h5.24a.524.524,0,0,1,.524.524v5.24A.524.524,0,0,1,53.764,178.288Z" transform="translate(-41.712 -167.808)"/>
      <path id="Caminho_1737" data-name="Caminho 1737" class="cls-9" d="M125.764,178.288a.524.524,0,0,1-.524-.524v-4.716h-4.192v4.716a.524.524,0,0,1-1.048,0v-5.24a.524.524,0,0,1,.524-.524h5.24a.524.524,0,0,1,.524.524v5.24A.524.524,0,0,1,125.764,178.288Z" transform="translate(-104.281 -167.808)"/>
      <path id="Caminho_1738" data-name="Caminho 1738" class="cls-9" d="M197.764,178.288a.524.524,0,0,1-.524-.524v-4.716h-4.192v4.716a.524.524,0,0,1-1.048,0v-5.24a.524.524,0,0,1,.524-.524h5.24a.524.524,0,0,1,.524.524v5.24A.524.524,0,0,1,197.764,178.288Z" transform="translate(-166.849 -167.808)"/>
      <path id="Caminho_1739" data-name="Caminho 1739" class="cls-9" d="M277.764,178.288a.524.524,0,0,1-.524-.524v-4.716h-4.192v4.716a.524.524,0,1,1-1.048,0v-5.24a.524.524,0,0,1,.524-.524h5.24a.524.524,0,0,1,.524.524v5.24A.524.524,0,0,1,277.764,178.288Z" transform="translate(-236.37 -167.808)"/>
      <path id="Caminho_1740" data-name="Caminho 1740" class="cls-9" d="M349.764,178.288a.524.524,0,0,1-.524-.524v-4.716h-4.192v4.716a.524.524,0,0,1-1.048,0v-5.24a.524.524,0,0,1,.524-.524h5.24a.524.524,0,0,1,.524.524v5.24A.524.524,0,0,1,349.764,178.288Z" transform="translate(-298.938 -167.808)"/>
      <path id="Caminho_1741" data-name="Caminho 1741" class="cls-9" d="M421.764,178.288a.524.524,0,0,1-.524-.524v-4.716h-4.192v4.716a.524.524,0,1,1-1.048,0v-5.24a.524.524,0,0,1,.524-.524h5.24a.524.524,0,0,1,.524.524v5.24A.524.524,0,0,1,421.764,178.288Z" transform="translate(-361.506 -167.808)"/>
    </g>
  </g>
</svg>
