<svg xmlns="http://www.w3.org/2000/svg" width="66.715" height="66.719" viewBox="0 0 66.715 66.719">
  <defs>
    <style>
      .cls-1 {
        opacity: 0.25;
      }

      .cls-2 {
        fill: #ffedd7;
      }

      .cls-3 {
        fill: #fff;
      }

      .cls-4 {
        fill: #ffd294;
      }

      .cls-5 {
        fill: #3a3847;
      }

      .cls-6 {
        fill: #ffa011;
      }
    </style>
  </defs>
  <g id="network" class="cls-1" transform="translate(-960 19911)">
    <path id="Caminho_1306" data-name="Caminho 1306" class="cls-2" d="M300.972,252.051h-9.72l-1.715,7.3h13.15Z" transform="translate(708.19 -20130.205)"/>
    <g id="Grupo_350" data-name="Grupo 350" transform="translate(982.412 -19910.479)">
      <path id="Caminho_1307" data-name="Caminho 1307" class="cls-3" d="M215.786,219.83v2.105a2.092,2.092,0,0,1-2.085,2.085H174.09a2.091,2.091,0,0,1-2.085-2.085V219.83Z" transform="translate(-172.005 -191.705)"/>
      <path id="Caminho_1308" data-name="Caminho 1308" class="cls-3" d="M213.7,30.06V6.085H174.09V30.06Zm2.085-23.975v26.04H172.005V6.085A2.091,2.091,0,0,1,174.09,4H213.7A2.091,2.091,0,0,1,215.786,6.085Z" transform="translate(-172.005 -4)"/>
    </g>
    <rect id="Ret창ngulo_458" data-name="Ret창ngulo 458" class="cls-4" width="39.612" height="23.976" transform="translate(984.496 -19908.395)"/>
    <path id="Caminho_1309" data-name="Caminho 1309" class="cls-5" d="M336.723,233.027a.525.525,0,0,1-.526-.521.516.516,0,0,1,.515-.521h.011a.521.521,0,1,1,0,1.042Z" transform="translate(667.611 -20112.756)"/>
    <g id="Grupo_351" data-name="Grupo 351" transform="translate(996.635 -19908.395)">
      <path id="Caminho_1310" data-name="Caminho 1310" class="cls-2" d="M281.154,43.974h5.4L292.973,20h-5.4Z" transform="translate(-281.154 -19.999)"/>
      <path id="Caminho_1311" data-name="Caminho 1311" class="cls-2" d="M333,43.974,339.421,20h-2.158l-6.424,23.975Z" transform="translate(-324.365 -19.999)"/>
    </g>
    <path id="Caminho_1312" data-name="Caminho 1312" class="cls-4" d="M300.833,253.086h10.206l-.243-1.035h-9.72Z" transform="translate(698.366 -20130.205)"/>
    <path id="Caminho_1313" data-name="Caminho 1313" class="cls-3" d="M291.009,259.992l-1.472,6.263h1.042l1.472-6.263Z" transform="translate(708.19 -20137.113)"/>
    <path id="Caminho_1314" data-name="Caminho 1314" class="cls-4" d="M372.2,259.992l1.472,6.263h-1.042l-1.472-6.263Z" transform="translate(637.207 -20137.113)"/>
    <path id="Caminho_1315" data-name="Caminho 1315" class="cls-2" d="M132.982,452h-9.72l-1.715,7.3H134.7Z" transform="translate(854.29 -20304.104)"/>
    <g id="Grupo_352" data-name="Grupo 352" transform="translate(960.521 -19884.422)">
      <path id="Caminho_1316" data-name="Caminho 1316" class="cls-3" d="M47.8,419.787v2.105a2.091,2.091,0,0,1-2.085,2.085H6.1a2.092,2.092,0,0,1-2.085-2.085v-2.105Z" transform="translate(-4.015 -391.662)"/>
      <path id="Caminho_1317" data-name="Caminho 1317" class="cls-3" d="M45.712,230.016V206.041H6.1v23.976ZM47.8,206.041v26.04H4.015v-26.04A2.092,2.092,0,0,1,6.1,203.956H45.712A2.091,2.091,0,0,1,47.8,206.041Z" transform="translate(-4.015 -203.956)"/>
    </g>
    <rect id="Ret창ngulo_459" data-name="Ret창ngulo 459" class="cls-4" width="39.612" height="23.976" transform="translate(962.605 -19882.336)"/>
    <path id="Caminho_1318" data-name="Caminho 1318" class="cls-5" d="M168.734,432.984a.525.525,0,0,1-.526-.521.516.516,0,0,1,.515-.521h.011a.521.521,0,1,1,0,1.042Z" transform="translate(813.709 -20286.656)"/>
    <g id="Grupo_353" data-name="Grupo 353" transform="translate(974.744 -19882.338)">
      <path id="Caminho_1319" data-name="Caminho 1319" class="cls-2" d="M113.165,243.931h5.4l6.424-23.976h-5.4Z" transform="translate(-113.165 -219.955)"/>
      <path id="Caminho_1320" data-name="Caminho 1320" class="cls-2" d="M165.007,243.931l6.424-23.976h-2.158l-6.424,23.976Z" transform="translate(-156.375 -219.955)"/>
    </g>
    <path id="Caminho_1321" data-name="Caminho 1321" class="cls-4" d="M132.843,453.038h10.206L142.806,452h-9.72Z" transform="translate(844.466 -20304.104)"/>
    <path id="Caminho_1322" data-name="Caminho 1322" class="cls-3" d="M123.019,459.94l-1.472,6.263h1.042l1.472-6.263Z" transform="translate(854.29 -20311.006)"/>
    <path id="Caminho_1323" data-name="Caminho 1323" class="cls-4" d="M204.209,459.94l1.472,6.263h-1.042l-1.472-6.263Z" transform="translate(783.306 -20311.006)"/>
    <g id="Grupo_354" data-name="Grupo 354" transform="translate(960 -19911)">
      <path id="Caminho_1324" data-name="Caminho 1324" class="cls-6" d="M480.716,281.024a.525.525,0,0,1-.526-.521.516.516,0,0,1,.515-.521h.011a.521.521,0,0,1,0,1.042Z" transform="translate(-417.618 -243.498)"/>
      <path id="Caminho_1325" data-name="Caminho 1325" class="cls-6" d="M480.716,265.026a.525.525,0,0,1-.526-.521.516.516,0,0,1,.515-.521h.011a.521.521,0,1,1,0,1.042Z" transform="translate(-417.618 -229.584)"/>
      <path id="Caminho_1326" data-name="Caminho 1326" class="cls-6" d="M480.716,297.024a.525.525,0,0,1-.526-.521.516.516,0,0,1,.515-.521h.011a.521.521,0,1,1,0,1.042Z" transform="translate(-417.618 -257.413)"/>
      <path id="Caminho_1327" data-name="Caminho 1327" class="cls-6" d="M480.716,313.022a.525.525,0,0,1-.526-.521.516.516,0,0,1,.515-.521h.011a.521.521,0,0,1,0,1.042Z" transform="translate(-417.618 -271.326)"/>
      <path id="Caminho_1328" data-name="Caminho 1328" class="cls-6" d="M480.716,329.022a.525.525,0,0,1-.526-.521.516.516,0,0,1,.515-.521h.011a.521.521,0,1,1,0,1.042Z" transform="translate(-417.618 -285.241)"/>
      <path id="Caminho_1329" data-name="Caminho 1329" class="cls-6" d="M480.716,345.022a.525.525,0,0,1-.526-.521.516.516,0,0,1,.515-.521h.011a.521.521,0,0,1,0,1.042Z" transform="translate(-417.618 -299.155)"/>
      <path id="Caminho_1330" data-name="Caminho 1330" class="cls-6" d="M480.716,361.021a.525.525,0,0,1-.526-.521.516.516,0,0,1,.515-.521h.011a.521.521,0,1,1,0,1.042Z" transform="translate(-417.618 -313.07)"/>
      <path id="Caminho_1331" data-name="Caminho 1331" class="cls-6" d="M480.716,377.019a.525.525,0,0,1-.526-.521.516.516,0,0,1,.515-.521h.011a.521.521,0,1,1,0,1.042Z" transform="translate(-417.618 -326.983)"/>
      <path id="Caminho_1332" data-name="Caminho 1332" class="cls-6" d="M480.716,393.019a.525.525,0,0,1-.526-.521.516.516,0,0,1,.515-.521h.011a.521.521,0,1,1,0,1.042Z" transform="translate(-417.618 -340.898)"/>
      <path id="Caminho_1333" data-name="Caminho 1333" class="cls-6" d="M480.716,409.018a.525.525,0,0,1-.526-.521.516.516,0,0,1,.515-.521h.011a.521.521,0,0,1,0,1.043Z" transform="translate(-417.618 -354.812)"/>
      <path id="Caminho_1334" data-name="Caminho 1334" class="cls-6" d="M480.716,425.017a.525.525,0,0,1-.526-.521.516.516,0,0,1,.515-.521h.011a.521.521,0,1,1,0,1.042Z" transform="translate(-417.618 -368.727)"/>
      <path id="Caminho_1335" data-name="Caminho 1335" class="cls-6" d="M448.717,425.017a.525.525,0,0,1-.526-.521.516.516,0,0,1,.515-.521h.011a.521.521,0,1,1,0,1.042Z" transform="translate(-389.789 -368.727)"/>
      <path id="Caminho_1336" data-name="Caminho 1336" class="cls-6" d="M464.716,425.017a.525.525,0,0,1-.526-.521.516.516,0,0,1,.515-.521h.011a.521.521,0,1,1,0,1.042Z" transform="translate(-403.703 -368.727)"/>
      <path id="Caminho_1337" data-name="Caminho 1337" class="cls-6" d="M432.717,425.017a.525.525,0,0,1-.526-.521.516.516,0,0,1,.515-.521h.011a.521.521,0,1,1,0,1.042Z" transform="translate(-375.874 -368.727)"/>
      <path id="Caminho_1338" data-name="Caminho 1338" class="cls-6" d="M416.719,425.017a.525.525,0,0,1-.526-.521.516.516,0,0,1,.515-.521h.011a.521.521,0,1,1,0,1.042Z" transform="translate(-361.961 -368.727)"/>
      <path id="Caminho_1339" data-name="Caminho 1339" class="cls-6" d="M400.719,425.017a.525.525,0,0,1-.526-.521.516.516,0,0,1,.515-.521h.011a.521.521,0,1,1,0,1.042Z" transform="translate(-348.046 -368.727)"/>
      <path id="Caminho_1340" data-name="Caminho 1340" class="cls-6" d="M384.721,425.017a.525.525,0,0,1-.526-.521.516.516,0,0,1,.515-.521h.011a.521.521,0,1,1,0,1.042Z" transform="translate(-334.133 -368.727)"/>
      <path id="Caminho_1341" data-name="Caminho 1341" class="cls-6" d="M368.721,425.017a.525.525,0,0,1-.526-.521.516.516,0,0,1,.515-.521h.011a.521.521,0,1,1,0,1.042Z" transform="translate(-320.218 -368.727)"/>
      <path id="Caminho_1342" data-name="Caminho 1342" class="cls-6" d="M352.731,425.017a.525.525,0,0,1-.526-.521.516.516,0,0,1,.515-.521h.011a.521.521,0,1,1,0,1.042Z" transform="translate(-306.311 -368.727)"/>
      <path id="Caminho_1343" data-name="Caminho 1343" class="cls-6" d="M168.734,433.016a.525.525,0,0,1-.526-.521.516.516,0,0,1,.515-.521h.011a.521.521,0,1,1,0,1.042Z" transform="translate(-146.291 -375.683)"/>
      <path id="Caminho_1344" data-name="Caminho 1344" class="cls-6" d="M44.319,416.892H.537a.521.521,0,0,1,0-1.042H44.319a.521.521,0,1,1,0,1.042Z" transform="translate(-0.016 -361.661)"/>
      <path id="Caminho_1345" data-name="Caminho 1345" class="cls-6" d="M118.07,456.332a.483.483,0,0,1-.119-.014.52.52,0,0,1-.388-.626l1.715-7.3a.515.515,0,0,1,.626-.388.52.52,0,0,1,.388.626l-1.715,7.3A.52.52,0,0,1,118.07,456.332Z" transform="translate(-102.233 -389.613)"/>
      <path id="Caminho_1346" data-name="Caminho 1346" class="cls-6" d="M207.538,456.331a.52.52,0,0,1-.507-.4l-1.715-7.3a.52.52,0,0,1,.388-.626.514.514,0,0,1,.626.388l1.715,7.3a.52.52,0,0,1-.388.626A.482.482,0,0,1,207.538,456.331Z" transform="translate(-178.55 -389.612)"/>
      <path id="Caminho_1347" data-name="Caminho 1347" class="cls-6" d="M115.24,505.011H96.468a.521.521,0,0,1,0-1.042H115.24a.521.521,0,1,1,0,1.042Z" transform="translate(-83.446 -438.297)"/>
      <path id="Caminho_1348" data-name="Caminho 1348" class="cls-6" d="M56.148,241H16.536a.521.521,0,0,1-.521-.521V216.507a.521.521,0,0,1,.521-.521H56.148a.521.521,0,0,1,.521.521v23.976A.521.521,0,0,1,56.148,241Zm-39.091-1.042H55.627V217.029H17.057Z" transform="translate(-13.93 -187.841)"/>
      <path id="Caminho_1349" data-name="Caminho 1349" class="cls-6" d="M42.234,233.345H2.622a2.608,2.608,0,0,1-2.606-2.606V202.593a2.609,2.609,0,0,1,2.606-2.606H42.234a2.609,2.609,0,0,1,2.606,2.606v28.145A2.609,2.609,0,0,1,42.234,233.345ZM2.622,201.029a1.565,1.565,0,0,0-1.564,1.564v28.145A1.565,1.565,0,0,0,2.622,232.3H42.234a1.565,1.565,0,0,0,1.564-1.564V202.593a1.565,1.565,0,0,0-1.564-1.564Z" transform="translate(-0.016 -173.927)"/>
      <path id="Caminho_1350" data-name="Caminho 1350" class="cls-6" d="M365.364,216.9H344.515a.521.521,0,1,1,0-1.042h20.848a.521.521,0,1,1,0,1.042Z" transform="translate(-299.17 -187.732)"/>
      <path id="Caminho_1351" data-name="Caminho 1351" class="cls-6" d="M375.526,256.383a.521.521,0,0,1-.507-.4l-1.715-7.288a.521.521,0,1,1,1.014-.239l1.715,7.289a.519.519,0,0,1-.388.626A.475.475,0,0,1,375.526,256.383Z" transform="translate(-324.648 -215.729)"/>
      <path id="Caminho_1352" data-name="Caminho 1352" class="cls-6" d="M352.8,305.023h-8.348a.521.521,0,1,1,0-1.042H352.8a.521.521,0,1,1,0,1.042Z" transform="translate(-299.115 -264.369)"/>
      <path id="Caminho_1353" data-name="Caminho 1353" class="cls-6" d="M224.137,41.017H205.374a.521.521,0,0,1,0-1.042h18.242V17.041H184.525a.521.521,0,1,1,0-1.042h39.612a.521.521,0,0,1,.521.521V40.5A.521.521,0,0,1,224.137,41.017Z" transform="translate(-160.029 -13.914)"/>
      <path id="Caminho_1354" data-name="Caminho 1354" class="cls-6" d="M210.223,33.357H191.459a.521.521,0,0,1,0-1.042h18.763a1.565,1.565,0,0,0,1.564-1.564V2.606a1.565,1.565,0,0,0-1.564-1.564H170.611a1.565,1.565,0,0,0-1.564,1.564V25.539a.521.521,0,0,1-1.042,0V2.606A2.609,2.609,0,0,1,170.611,0h39.612a2.609,2.609,0,0,1,2.606,2.606V30.751A2.609,2.609,0,0,1,210.223,33.357Z" transform="translate(-146.114)"/>
      <path id="Caminho_1355" data-name="Caminho 1355" class="cls-6" d="M184.525,39.975a.521.521,0,0,1-.521-.521V16.52a.521.521,0,0,1,1.042,0V39.453A.521.521,0,0,1,184.525,39.975Z" transform="translate(-160.029 -13.914)"/>
    </g>
  </g>
</svg>
