<svg xmlns="http://www.w3.org/2000/svg" xmlns:xlink="http://www.w3.org/1999/xlink" width="29.045" height="29.045" viewBox="0 0 29.045 29.045">
  <defs>
    <linearGradient id="linear-gradient" x1="1" y1="0.5" x2="0" y2="0.5" gradientUnits="objectBoundingBox">
      <stop offset="0" stop-color="#ff7e7e"/>
      <stop offset="1" stop-color="#1ba6db"/>
    </linearGradient>
  </defs>
  <g id="ping" transform="translate(-1063 -159)">
    <g id="Layer_19" data-name="Layer 19" transform="translate(1062 158)">
      <path id="Caminho_411" data-name="Caminho 411" d="M15.522,1A14.522,14.522,0,1,0,30.045,15.522,14.522,14.522,0,0,0,15.522,1Zm0,28.108A13.586,13.586,0,0,1,1.937,15.991H3.811v-.937H1.937A13.5,13.5,0,0,1,5.582,6.261L6.743,7.423l.665-.665L6.247,5.6a13.5,13.5,0,0,1,8.807-3.659V3.342h.937V1.937a13.5,13.5,0,0,1,8.793,3.645L23.622,6.743l.665.665,1.162-1.162a13.5,13.5,0,0,1,3.659,8.807H27.7v.937h1.405A13.586,13.586,0,0,1,15.522,29.108Z" fill="url(#linear-gradient)"/>
      <path id="Caminho_412" data-name="Caminho 412" d="M7.557,22.815h2.811a.468.468,0,0,0,.468-.417A7.9,7.9,0,0,1,12.5,18.36a.468.468,0,0,0-.037-.623l-2-2a.468.468,0,0,0-.689.033,11.623,11.623,0,0,0-2.689,6.559.492.492,0,0,0,.122.356A.468.468,0,0,0,7.557,22.815Zm2.619-6.043,1.344,1.359A8.9,8.9,0,0,0,9.97,21.878H8.1a10.672,10.672,0,0,1,2.08-5.106Z" transform="translate(-3.236 -7.761)" fill="url(#linear-gradient)"/>
      <path id="Caminho_413" data-name="Caminho 413" d="M50.188,33H47.377a.468.468,0,0,0-.468.417,7.964,7.964,0,0,1-1.663,4.038.468.468,0,0,0,.037.623l2.005,2a.468.468,0,0,0,.328.136h.023a.468.468,0,0,0,.337-.169,11.623,11.623,0,0,0,2.689-6.559.492.492,0,0,0-.122-.356A.468.468,0,0,0,50.188,33Zm-2.619,6.043-1.344-1.359a8.9,8.9,0,0,0,1.551-3.748h1.874a10.672,10.672,0,0,1-2.08,5.106Z" transform="translate(-23.464 -17.008)" fill="url(#linear-gradient)"/>
      <path id="Caminho_414" data-name="Caminho 414" d="M12.52,37.455a7.964,7.964,0,0,1-1.663-4.038A.468.468,0,0,0,10.388,33H7.577a.468.468,0,0,0-.347.15.492.492,0,0,0-.122.356A11.623,11.623,0,0,0,9.8,40.064a.468.468,0,0,0,.337.169h0a.468.468,0,0,0,.328-.136l2.005-2A.468.468,0,0,0,12.52,37.455Zm-2.342,1.588a10.672,10.672,0,0,1-2.089-5.106H9.962a8.9,8.9,0,0,0,1.551,3.748Z" transform="translate(-3.247 -17.009)" fill="url(#linear-gradient)"/>
      <path id="Caminho_415" data-name="Caminho 415" d="M33.4,10.845a7.9,7.9,0,0,1,4.038,1.663.476.476,0,0,0,.623-.037l2-2a.471.471,0,0,0-.033-.693,11.623,11.623,0,0,0-6.559-2.689.466.466,0,0,0-.506.468v2.811A.468.468,0,0,0,33.4,10.845Zm.52-2.769a10.672,10.672,0,0,1,5.106,2.1L37.663,11.52a8.854,8.854,0,0,0-3.748-1.551Z" transform="translate(-16.988 -3.235)" fill="url(#linear-gradient)"/>
      <path id="Caminho_416" data-name="Caminho 416" d="M17.714,12.481a.476.476,0,0,0,.623.037,7.9,7.9,0,0,1,4.038-1.663.468.468,0,0,0,.417-.468V7.577a.466.466,0,0,0-.506-.468A11.623,11.623,0,0,0,15.728,9.8a.471.471,0,0,0-.033.693Zm4.141-4.394V9.961a8.854,8.854,0,0,0-3.748,1.551l-1.359-1.326a10.672,10.672,0,0,1,5.106-2.1Z" transform="translate(-7.738 -3.246)" fill="url(#linear-gradient)"/>
      <path id="Caminho_417" data-name="Caminho 417" d="M47.619,15.6a.468.468,0,0,0-.351.136l-2.005,2a.468.468,0,0,0-.037.623A7.9,7.9,0,0,1,46.888,22.4a.468.468,0,0,0,.468.417h2.811a.468.468,0,0,0,.347-.15.492.492,0,0,0,.122-.356,11.623,11.623,0,0,0-2.689-6.559A.468.468,0,0,0,47.619,15.6Zm.145,6.277a8.9,8.9,0,0,0-1.551-3.748l1.344-1.34a10.672,10.672,0,0,1,2.1,5.088Z" transform="translate(-23.454 -7.76)" fill="url(#linear-gradient)"/>
      <path id="Caminho_418" data-name="Caminho 418" d="M30.586,48H17.468a.468.468,0,0,0-.468.468v1.874a.468.468,0,0,0,.468.468H30.586a.468.468,0,0,0,.468-.468V48.468A.468.468,0,0,0,30.586,48Zm-.468,1.874H17.937v-.937h12.18Z" transform="translate(-8.505 -24.982)" fill="url(#linear-gradient)"/>
      <path id="Caminho_419" data-name="Caminho 419" d="M28.467,32.507a1.78,1.78,0,0,0,2.755,0,2.155,2.155,0,0,0,.468-1.738l-1.377-8.461a.468.468,0,1,0-.937,0l-1.405,8.461A2.155,2.155,0,0,0,28.467,32.507Zm.468-1.583.937-5.622.937,5.622a1.213,1.213,0,0,1-.253.974.862.862,0,0,1-1.33,0,1.213,1.213,0,0,1-.319-.974Z" transform="translate(-14.322 -11.077)" fill="url(#linear-gradient)"/>
    </g>
  </g>
</svg>
