<svg xmlns="http://www.w3.org/2000/svg" width="66.856" height="66.863" viewBox="0 0 66.856 66.863">
  <defs>
    <style>
      .cls-1 {
        opacity: 0.39;
      }

      .cls-2 {
        fill: #ffd294;
      }

      .cls-3 {
        fill: #ffedd7;
      }

      .cls-4 {
        fill: #fff;
      }

      .cls-5 {
        fill: #ffbe5c;
      }

      .cls-6 {
        fill: #ffa011;
      }
    </style>
  </defs>
  <g id="printer" class="cls-1" transform="translate(-655 19937)">
    <path id="Caminho_1493" data-name="Caminho 1493" class="cls-2" d="M73.661,199.166c-3.134-3.134-5.223-3.134-7.312-3.134H21.431c-2.089,0-4.178,0-7.312,3.134l-2.089,2.087v2.4H75.751v-2.4Z" transform="translate(644.538 -20107.432)"/>
    <path id="Caminho_1494" data-name="Caminho 1494" class="cls-3" d="M18.3,199.166c3.134-3.134,5.223-3.134,7.312-3.134H21.431c-2.089,0-4.178,0-7.312,3.134l-2.089,2.087v2.4h4.179v-2.4Z" transform="translate(644.538 -20107.432)"/>
    <path id="Caminho_1495" data-name="Caminho 1495" class="cls-4" d="M15.163,199.166c3.134-3.134,5.223-3.134,7.312-3.134H21.431c-2.089,0-4.178,0-7.312,3.134l-2.089,2.087v2.4h1.045v-2.4Z" transform="translate(644.538 -20107.432)"/>
    <path id="Caminho_1496" data-name="Caminho 1496" class="cls-3" d="M403.3,199.166c-3.134-3.134-5.223-3.134-7.312-3.134h4.179c2.089,0,4.178,0,7.312,3.134l2.089,2.087v2.4h-4.178v-2.4Z" transform="translate(310.725 -20107.432)"/>
    <path id="Caminho_1497" data-name="Caminho 1497" class="cls-2" d="M428.339,199.166c-3.134-3.134-5.223-3.134-7.312-3.134h-1.045c2.089,0,4.178,0,7.312,3.134l2.089,2.087v2.4h1.045v-2.4Z" transform="translate(289.861 -20107.432)"/>
    <path id="Caminho_1498" data-name="Caminho 1498" class="cls-5" d="M139.714,212.031H101.064l-1.045,2.089h40.74Z" transform="translate(568.039 -20121.342)"/>
    <path id="Caminho_1499" data-name="Caminho 1499" class="cls-4" d="M158.488,33.276H124.016V4.023h27.16l7.312,8.36Z" transform="translate(547.176 -19940.498)"/>
    <path id="Caminho_1500" data-name="Caminho 1500" class="cls-2" d="M66.705,244.027H7.162a3.143,3.143,0,0,0-3.134,3.134v24.026a3.142,3.142,0,0,0,3.134,3.134H66.705a3.143,3.143,0,0,0,3.134-3.134V247.161A3.143,3.143,0,0,0,66.705,244.027Z" transform="translate(651.494 -20149.16)"/>
    <rect id="Retângulo_473" data-name="Retângulo 473" class="cls-5" width="44.919" height="5.223" transform="translate(665.969 -19885.285)"/>
    <path id="Caminho_1501" data-name="Caminho 1501" class="cls-4" d="M131.976,436.009H94.936l-2.916,7.312h42.829Z" transform="translate(574.993 -20316.07)"/>
    <rect id="Retângulo_474" data-name="Retângulo 474" class="cls-3" width="42.829" height="2.089" transform="translate(667.013 -19872.748)"/>
    <rect id="Retângulo_475" data-name="Retângulo 475" class="cls-2" width="7.312" height="2.089" transform="translate(684.771 -19872.748)"/>
    <g id="Grupo_374" data-name="Grupo 374" transform="translate(655.522 -19908.268)">
      <path id="Caminho_1502" data-name="Caminho 1502" class="cls-3" d="M149.025,437.054l-.41-1.045h-37.04l-.417,1.045Z" transform="translate(-97.168 -407.804)"/>
      <rect id="Retângulo_476" data-name="Retângulo 476" class="cls-3" width="34.472" height="1.045" transform="translate(15.67)"/>
      <path id="Caminho_1503" data-name="Caminho 1503" class="cls-3" d="M9.251,244.027H7.162a3.143,3.143,0,0,0-3.134,3.134v24.026a3.142,3.142,0,0,0,3.134,3.134H9.251Z" transform="translate(-4.028 -240.893)"/>
    </g>
    <path id="Caminho_1504" data-name="Caminho 1504" class="cls-4" d="M5.075,271.188V247.161a3.143,3.143,0,0,1,3.134-3.134H7.164a3.143,3.143,0,0,0-3.134,3.134v24.026a3.142,3.142,0,0,0,3.134,3.134H8.209A3.142,3.142,0,0,1,5.075,271.188Z" transform="translate(651.492 -20149.16)"/>
    <path id="Caminho_1505" data-name="Caminho 1505" class="cls-3" d="M467.977,274.321h2.089a3.143,3.143,0,0,0,3.134-3.134V247.161a3.143,3.143,0,0,0-3.134-3.134h-2.089Z" transform="translate(248.133 -20149.16)"/>
    <path id="Caminho_1506" data-name="Caminho 1506" class="cls-2" d="M473.021,244.027h-1.045a3.143,3.143,0,0,1,3.134,3.134v24.026a3.143,3.143,0,0,1-3.134,3.134h1.045a3.143,3.143,0,0,0,3.134-3.134V247.161A3.143,3.143,0,0,0,473.021,244.027Z" transform="translate(244.657 -20149.16)"/>
    <g id="Grupo_375" data-name="Grupo 375" transform="translate(655 -19937)">
      <path id="Caminho_1507" data-name="Caminho 1507" class="cls-6" d="M424.71,289.07a.527.527,0,0,1-.526-.522.517.517,0,0,1,.516-.522h.01a.522.522,0,0,1,0,1.045Z" transform="translate(-368.793 -250.411)"/>
      <path id="Caminho_1508" data-name="Caminho 1508" class="cls-6" d="M400.713,289.07a.527.527,0,0,1-.526-.522.517.517,0,0,1,.516-.522h.01a.522.522,0,0,1,0,1.045Z" transform="translate(-347.929 -250.411)"/>
      <path id="Caminho_1509" data-name="Caminho 1509" class="cls-6" d="M376.716,289.07a.527.527,0,0,1-.526-.522.517.517,0,0,1,.516-.522h.01a.522.522,0,1,1,0,1.045Z" transform="translate(-327.066 -250.411)"/>
      <path id="Caminho_1510" data-name="Caminho 1510" class="cls-6" d="M63.229,271.366a.522.522,0,0,1,0-1.045,2.614,2.614,0,0,0,2.612-2.612V243.684a2.614,2.614,0,0,0-2.612-2.612H3.685a2.614,2.614,0,0,0-2.612,2.612V267.71a2.614,2.614,0,0,0,2.612,2.612.522.522,0,0,1,0,1.045A3.661,3.661,0,0,1,.029,267.71V243.684a3.661,3.661,0,0,1,3.656-3.657H63.228a3.661,3.661,0,0,1,3.656,3.657V267.71A3.661,3.661,0,0,1,63.229,271.366Z" transform="translate(-0.029 -208.681)"/>
      <path id="Caminho_1511" data-name="Caminho 1511" class="cls-6" d="M8.552,198.3a.522.522,0,0,1-.369-.892l2.089-2.087c3.287-3.287,5.521-3.287,7.682-3.287a.522.522,0,1,1,0,1.045c-2.038,0-3.962,0-6.943,2.981l-2.089,2.087A.521.521,0,0,1,8.552,198.3Z" transform="translate(-6.985 -166.956)"/>
      <path id="Caminho_1512" data-name="Caminho 1512" class="cls-6" d="M433.9,198.3a.521.521,0,0,1-.369-.153l-2.089-2.087c-2.981-2.981-4.9-2.981-6.943-2.981a.522.522,0,1,1,0-1.045c2.161,0,4.395,0,7.682,3.287l2.089,2.087a.522.522,0,0,1-.369.892Z" transform="translate(-368.616 -166.956)"/>
      <path id="Caminho_1513" data-name="Caminho 1513" class="cls-6" d="M83.677,193.078H80.543a.522.522,0,1,1,0-1.045h3.134a.522.522,0,1,1,0,1.045Z" transform="translate(-69.575 -166.955)"/>
      <path id="Caminho_1514" data-name="Caminho 1514" class="cls-6" d="M403.639,193.078h-3.134a.522.522,0,1,1,0-1.045h3.134a.522.522,0,0,1,0,1.045Z" transform="translate(-347.752 -166.955)"/>
      <path id="Caminho_1515" data-name="Caminho 1515" class="cls-6" d="M40.546,205.253a.522.522,0,0,1-.347-.913l4.708-4.178a.522.522,0,1,1,.694.781l-4.708,4.179A.524.524,0,0,1,40.546,205.253Z" transform="translate(-34.801 -173.907)"/>
      <path id="Caminho_1516" data-name="Caminho 1516" class="cls-6" d="M40.546,277.276a.523.523,0,0,1-.522-.522V248.548a.522.522,0,0,1,1.045,0v28.205A.523.523,0,0,1,40.546,277.276Z" transform="translate(-34.801 -215.636)"/>
      <path id="Caminho_1517" data-name="Caminho 1517" class="cls-6" d="M433.66,205.254a.519.519,0,0,1-.35-.135l-4.633-4.178a.522.522,0,1,1,.7-.775l4.633,4.178a.522.522,0,0,1-.35.91Z" transform="translate(-372.549 -173.909)"/>
      <path id="Caminho_1518" data-name="Caminho 1518" class="cls-6" d="M464.5,277.276a.523.523,0,0,1-.522-.522V248.548a.522.522,0,0,1,1.045,0v28.205A.523.523,0,0,1,464.5,277.276Z" transform="translate(-403.389 -215.636)"/>
      <path id="Caminho_1519" data-name="Caminho 1519" class="cls-6" d="M31.861,473.05H24.548a.522.522,0,1,1,0-1.045h7.312a.522.522,0,1,1,0,1.045Z" transform="translate(-20.892 -410.365)"/>
      <path id="Caminho_1520" data-name="Caminho 1520" class="cls-6" d="M431.815,473.05H424.5a.522.522,0,1,1,0-1.045h7.312a.522.522,0,1,1,0,1.045Z" transform="translate(-368.615 -410.365)"/>
      <path id="Caminho_1521" data-name="Caminho 1521" class="cls-6" d="M131.372,505.046H88.543a.522.522,0,0,1,0-1.045h42.829a.522.522,0,1,1,0,1.045Z" transform="translate(-76.53 -438.182)"/>
      <path id="Caminho_1522" data-name="Caminho 1522" class="cls-6" d="M231.839,491.137h-7.312a.523.523,0,0,1-.522-.522v-2.089a.521.521,0,0,1,.522-.522h7.312a.521.521,0,0,1,.522.522v2.089A.523.523,0,0,1,231.839,491.137Zm-6.79-1.045h6.268v-1.045h-6.268Z" transform="translate(-194.755 -424.274)"/>
      <path id="Caminho_1523" data-name="Caminho 1523" class="cls-6" d="M104.212,489.048H88.543a.522.522,0,0,1,0-1.045h15.669a.522.522,0,1,1,0,1.045Z" transform="translate(-76.53 -424.274)"/>
      <path id="Caminho_1524" data-name="Caminho 1524" class="cls-6" d="M312.187,489.048H296.517a.522.522,0,1,1,0-1.045h15.669a.522.522,0,0,1,0,1.045Z" transform="translate(-257.344 -424.274)"/>
      <path id="Caminho_1525" data-name="Caminho 1525" class="cls-6" d="M125.462,401.416a.523.523,0,0,1-.522-.522v-7.835H81.066v7.835a.522.522,0,0,1-1.045,0v-8.357a.521.521,0,0,1,.522-.522h44.919a.521.521,0,0,1,.522.522v8.357A.523.523,0,0,1,125.462,401.416Z" transform="translate(-69.575 -340.82)"/>
      <path id="Caminho_1526" data-name="Caminho 1526" class="cls-6" d="M88.542,447.326a.535.535,0,0,1-.193-.037.523.523,0,0,1-.292-.679l2.5-6.268a.522.522,0,1,1,.97.388L89.027,447A.523.523,0,0,1,88.542,447.326Z" transform="translate(-76.529 -382.552)"/>
      <path id="Caminho_1527" data-name="Caminho 1527" class="cls-6" d="M400.11,447.314a.522.522,0,0,1-.486-.333l-2.463-6.268a.522.522,0,1,1,.972-.382L400.6,446.6a.523.523,0,0,1-.486.714Z" transform="translate(-345.267 -382.54)"/>
      <path id="Caminho_1528" data-name="Caminho 1528" class="cls-6" d="M131.372,433.055H88.543a.522.522,0,0,1,0-1.045h42.829a.522.522,0,1,1,0,1.045Z" transform="translate(-76.53 -375.593)"/>
      <path id="Caminho_1529" data-name="Caminho 1529" class="cls-6" d="M243.657,417.057h-3.134a.522.522,0,1,1,0-1.044h3.134a.522.522,0,1,1,0,1.044Z" transform="translate(-208.662 -361.684)"/>
      <path id="Caminho_1530" data-name="Caminho 1530" class="cls-6" d="M120.538,28.228a.522.522,0,0,1-.522-.522V.545a.522.522,0,0,1,1.045,0v27.16A.522.522,0,0,1,120.538,28.228Z" transform="translate(-104.347 -0.02)"/>
      <path id="Caminho_1531" data-name="Caminho 1531" class="cls-6" d="M384.507,76.937a.522.522,0,0,1-.522-.522V56.571a.522.522,0,0,1,1.045,0V76.415A.522.522,0,0,1,384.507,76.937Z" transform="translate(-333.843 -48.729)"/>
      <path id="Caminho_1532" data-name="Caminho 1532" class="cls-6" d="M147.7,1.05h0l-27.16-.005a.522.522,0,1,1,0-1.045h0L147.7.005a.522.522,0,1,1,0,1.045Z" transform="translate(-104.347)"/>
      <path id="Caminho_1533" data-name="Caminho 1533" class="cls-6" d="M96.54,211.16a.516.516,0,0,1-.233-.055.522.522,0,0,1-.234-.7l1.045-2.089a.522.522,0,0,1,.934.467l-1.045,2.089A.523.523,0,0,1,96.54,211.16Z" transform="translate(-83.482 -180.859)"/>
      <path id="Caminho_1534" data-name="Caminho 1534" class="cls-6" d="M137.282,225.073H96.542a.522.522,0,0,1,0-1.045h40.74a.522.522,0,1,1,0,1.045Z" transform="translate(-83.484 -194.772)"/>
      <path id="Caminho_1535" data-name="Caminho 1535" class="cls-6" d="M401.55,211.16a.522.522,0,0,1-.467-.289l-1.045-2.089a.522.522,0,1,1,.934-.467l1.045,2.089a.523.523,0,0,1-.234.7A.512.512,0,0,1,401.55,211.16Z" transform="translate(-347.752 -180.859)"/>
      <path id="Caminho_1536" data-name="Caminho 1536" class="cls-6" d="M328.513,22.321a.522.522,0,0,1-.522-.522V16.575a.522.522,0,1,1,1.045,0V21.8A.522.522,0,0,1,328.513,22.321Z" transform="translate(-285.162 -13.957)"/>
      <path id="Caminho_1537" data-name="Caminho 1537" class="cls-6" d="M333.737,57.094h-5.223a.522.522,0,1,1,0-1.045h5.223a.522.522,0,0,1,0,1.045Z" transform="translate(-285.162 -48.729)"/>
      <path id="Caminho_1538" data-name="Caminho 1538" class="cls-6" d="M335.826,8.4a.521.521,0,0,1-.369-.153L328.144.931a.522.522,0,1,1,.739-.739L336.2,7.507a.522.522,0,0,1-.369.892Z" transform="translate(-285.162 -0.034)"/>
      <path id="Caminho_1539" data-name="Caminho 1539" class="cls-6" d="M178.65,105.087H152.534a.522.522,0,1,1,0-1.045H178.65a.522.522,0,1,1,0,1.045Z" transform="translate(-132.164 -90.455)"/>
      <path id="Caminho_1540" data-name="Caminho 1540" class="cls-6" d="M178.65,137.084H152.534a.522.522,0,1,1,0-1.045H178.65a.522.522,0,1,1,0,1.045Z" transform="translate(-132.164 -118.273)"/>
      <path id="Caminho_1541" data-name="Caminho 1541" class="cls-6" d="M178.65,169.08H152.534a.522.522,0,1,1,0-1.045H178.65a.522.522,0,1,1,0,1.045Z" transform="translate(-132.164 -146.091)"/>
    </g>
  </g>
</svg>
