<svg xmlns="http://www.w3.org/2000/svg" width="84.677" height="51.864" viewBox="0 0 84.677 51.864">
  <defs>
    <style>
      .cls-1 {
        opacity: 0.25;
      }

      .cls-2 {
        fill: #ffbe5c;
      }

      .cls-3 {
        fill: #ffedd7;
      }

      .cls-4 {
        fill: #ffd294;
      }

      .cls-5 {
        fill: #ffa011;
      }

      .cls-6 {
        fill: #fff;
      }

      .cls-7 {
        fill: #ff9c22;
      }
    </style>
  </defs>
  <g id="videoCard" class="cls-1" transform="translate(0 0.311)">
    <g id="Grupo_322" data-name="Grupo 322" transform="translate(5.666 -0.311)">
      <rect id="Retângulo_426" data-name="Retângulo 426" class="cls-2" width="6" height="5" transform="translate(0.011)"/>
      <rect id="Retângulo_427" data-name="Retângulo 427" class="cls-2" width="70.124" height="2.646" transform="translate(8.226 2.248)"/>
    </g>
    <g id="Grupo_323" data-name="Grupo 323" transform="translate(3.969 4.781)">
      <rect id="Retângulo_428" data-name="Retângulo 428" class="cls-3" width="2.646" height="2.646" transform="translate(1.984 36.848)"/>
      <rect id="Retângulo_429" data-name="Retângulo 429" class="cls-3" width="5.292" height="3.969" transform="translate(12.569 36.848)"/>
      <rect id="Retângulo_430" data-name="Retângulo 430" class="cls-3" width="18.523" height="3.969" transform="translate(20.508 36.848)"/>
      <rect id="Retângulo_431" data-name="Retângulo 431" class="cls-3" width="5" height="37" transform="translate(-0.292 -0.092)"/>
    </g>
    <rect id="Retângulo_432" data-name="Retângulo 432" class="cls-4" width="75.415" height="37.047" transform="translate(8.6 4.584)"/>
    <g id="Grupo_324" data-name="Grupo 324" transform="translate(13.891 8.553)">
      <circle id="Elipse_109" data-name="Elipse 109" class="cls-2" cx="14.554" cy="14.554" r="14.554" transform="translate(0 0)"/>
      <circle id="Elipse_110" data-name="Elipse 110" class="cls-2" cx="14.554" cy="14.554" r="14.554" transform="translate(35.724 0)"/>
    </g>
    <path id="Caminho_1045" data-name="Caminho 1045" class="cls-5" d="M32.869,181.312a.667.667,0,0,1-.668-.662.655.655,0,0,1,.654-.662h.014a.662.662,0,1,1,0,1.323Z" transform="translate(-26.875 -166.805)"/>
    <g id="Grupo_325" data-name="Grupo 325" transform="translate(25.8 10.948)">
      <path id="Caminho_1046" data-name="Caminho 1046" class="cls-3" d="M330.4,178.669l.185-.039c5.292,0,7.938-1.323,7.938-1.323a6.525,6.525,0,0,0-1.323-5.292c-2.368,3.559-6.88,3.93-7.78,3.969v-.159c3.745-3.744,4.684-6.549,4.684-6.549a6.523,6.523,0,0,0-4.684-2.805c.781,3.89-1.694,7.145-2.527,8.11h-.278c-.013-5.239-1.323-7.859-1.323-7.859A6.527,6.527,0,0,0,320,168.045c3.532,2.355,3.916,6.827,3.956,7.767l-.146.013c-3.744-3.744-6.549-4.684-6.549-4.684a6.523,6.523,0,0,0-2.805,4.684c4.155-.833,7.569,2.038,8.283,2.673l-.093.132c-5.292,0-7.938,1.323-7.938,1.323a6.525,6.525,0,0,0,1.323,5.292c2.355-3.532,6.827-3.916,7.767-3.956l.013.146c-3.744,3.744-4.684,6.55-4.684,6.55a6.523,6.523,0,0,0,4.684,2.8c-.833-4.154,2.038-7.566,2.673-8.281l.132.092c0,5.292,1.323,7.938,1.323,7.938a6.53,6.53,0,0,0,5.292-1.323c-3.56-2.368-3.929-6.88-3.969-7.78h.159c3.745,3.744,6.55,4.684,6.55,4.684a6.522,6.522,0,0,0,2.805-4.684C334.369,182.321,330.784,179.027,330.4,178.669Zm-3.785,2.607a2.646,2.646,0,1,1,2.646-2.646A2.654,2.654,0,0,1,326.616,181.276Z" transform="translate(-288.247 -166.471)"/>
      <path id="Caminho_1047" data-name="Caminho 1047" class="cls-3" d="M374.622,223.987a2.646,2.646,0,1,1-2.646,2.646A2.645,2.645,0,0,1,374.622,223.987Z" transform="translate(-336.253 -214.474)"/>
      <path id="Caminho_1048" data-name="Caminho 1048" class="cls-3" d="M158.636,223.987a2.646,2.646,0,1,1-2.646,2.646A2.654,2.654,0,0,1,158.636,223.987Z" transform="translate(-155.99 -214.474)"/>
    </g>
    <path id="Caminho_1049" data-name="Caminho 1049" class="cls-6" d="M157.313,226.633a2.65,2.65,0,0,1,1.985-2.552,2.6,2.6,0,0,0-.662-.094,2.646,2.646,0,0,0,0,5.292,2.6,2.6,0,0,0,.662-.094A2.65,2.65,0,0,1,157.313,226.633Z" transform="translate(-130.19 -203.526)"/>
    <path id="Caminho_1050" data-name="Caminho 1050" class="cls-4" d="M169.974,226.633a2.65,2.65,0,0,1-1.985,2.552,2.605,2.605,0,0,0,.662.094,2.646,2.646,0,1,0,0-5.292,2.6,2.6,0,0,0-.662.094A2.65,2.65,0,0,1,169.974,226.633Z" transform="translate(-140.205 -203.526)"/>
    <path id="Caminho_1051" data-name="Caminho 1051" class="cls-3" d="M114.413,178.669l.185-.039c5.292,0,7.938-1.323,7.938-1.323a6.525,6.525,0,0,0-1.323-5.292c-2.368,3.559-6.88,3.93-7.78,3.969v-.159c3.744-3.744,4.684-6.549,4.684-6.549a6.522,6.522,0,0,0-4.684-2.805c.78,3.89-1.694,7.145-2.527,8.11h-.278c-.013-5.239-1.323-7.859-1.323-7.859a6.527,6.527,0,0,0-5.292,1.323c3.533,2.355,3.916,6.827,3.956,7.767l-.146.013c-3.745-3.744-6.55-4.684-6.55-4.684a6.522,6.522,0,0,0-2.805,4.684c4.155-.833,7.569,2.038,8.283,2.673l-.093.132c-5.292,0-7.938,1.323-7.938,1.323a6.525,6.525,0,0,0,1.323,5.292c2.355-3.532,6.827-3.916,7.767-3.956l.013.146c-3.745,3.744-4.684,6.55-4.684,6.55a6.523,6.523,0,0,0,4.684,2.8c-.833-4.154,2.038-7.566,2.673-8.281l.132.092c0,5.292,1.323,7.938,1.323,7.938a6.531,6.531,0,0,0,5.292-1.323c-3.559-2.368-3.929-6.88-3.969-7.78h.159c3.744,3.744,6.549,4.684,6.549,4.684a6.522,6.522,0,0,0,2.805-4.684C118.383,182.321,114.8,179.027,114.413,178.669Zm-3.784,2.607a2.646,2.646,0,1,1,2.646-2.646A2.654,2.654,0,0,1,110.629,181.276Z" transform="translate(-82.183 -155.523)"/>
    <g id="Grupo_326" data-name="Grupo 326" transform="translate(29.769 10.948)">
      <path id="Caminho_1052" data-name="Caminho 1052" class="cls-4" d="M185.633,169.276s-.939,2.8-4.684,6.549v.159a11.209,11.209,0,0,0,1.323-.147v-.012c3.744-3.744,4.684-6.549,4.684-6.549a6.522,6.522,0,0,0-4.684-2.805c.022.112.034.221.05.331A6.425,6.425,0,0,1,185.633,169.276Z" transform="translate(-180.79 -166.471)"/>
      <path id="Caminho_1053" data-name="Caminho 1053" class="cls-4" d="M195.829,205.281s-2.646,1.323-7.938,1.323c0,.065-.014.125-.019.189.765.678,3.721,3.071,7.4,2.735a11.188,11.188,0,0,1-6.238-2.884l.185-.039c5.292,0,7.938-1.323,7.938-1.323a6.525,6.525,0,0,0-1.323-5.292,7.479,7.479,0,0,1-.73.918A6.414,6.414,0,0,1,195.829,205.281Z" transform="translate(-186.567 -194.445)"/>
      <path id="Caminho_1054" data-name="Caminho 1054" class="cls-4" d="M225.821,257.086a6.669,6.669,0,0,1-2.28,4.174,8.789,8.789,0,0,0,.828.37,6.522,6.522,0,0,0,2.805-4.684A7.6,7.6,0,0,1,225.821,257.086Z" transform="translate(-216.337 -241.982)"/>
      <path id="Caminho_1055" data-name="Caminho 1055" class="cls-4" d="M181.442,258.164c-.417-.371-.848-.772-1.295-1.218h-.159c.04.9.41,5.411,3.969,7.779a6.8,6.8,0,0,1-3.5,1.4,6.69,6.69,0,0,0,4.827-1.4A9.587,9.587,0,0,1,181.442,258.164Z" transform="translate(-179.988 -241.982)"/>
    </g>
    <g id="Grupo_327" data-name="Grupo 327" transform="translate(16.286 11.082)">
      <path id="Caminho_1056" data-name="Caminho 1056" class="cls-6" d="M135.817,175.272c.42.372.855.778,1.306,1.229l.146-.013c-.04-.939-.424-5.412-3.956-7.767a6.789,6.789,0,0,1,3.5-1.4,6.694,6.694,0,0,0-4.827,1.4A9.576,9.576,0,0,1,135.817,175.272Z" transform="translate(-126.446 -167.281)"/>
      <path id="Caminho_1057" data-name="Caminho 1057" class="cls-6" d="M102.1,195.075c-.514-.254-.828-.368-.828-.368a6.522,6.522,0,0,0-2.805,4.684,7.642,7.642,0,0,1,1.354-.142A6.682,6.682,0,0,1,102.1,195.075Z" transform="translate(-98.469 -190.171)"/>
      <path id="Caminho_1058" data-name="Caminho 1058" class="cls-6" d="M128.034,262.759s.939-2.805,4.684-6.55l-.013-.146a11.022,11.022,0,0,0-1.31.144v0c-3.745,3.744-4.684,6.55-4.684,6.55a6.523,6.523,0,0,0,4.684,2.8c-.022-.111-.032-.22-.049-.331A6.421,6.421,0,0,1,128.034,262.759Z" transform="translate(-122.04 -241.379)"/>
      <path id="Caminho_1059" data-name="Caminho 1059" class="cls-6" d="M100.723,226.416s2.646-1.323,7.938-1.323c0-.067.016-.131.019-.2-.777-.679-3.694-3.03-7.334-2.728a11.179,11.179,0,0,1,6.084,2.792l-.093.132c-5.292,0-7.938,1.323-7.938,1.323a6.525,6.525,0,0,0,1.323,5.292,7.769,7.769,0,0,1,.73-.917A6.416,6.416,0,0,1,100.723,226.416Z" transform="translate(-99.148 -213.068)"/>
      <path id="Caminho_1060" data-name="Caminho 1060" class="cls-6" d="M373.3,226.633a2.65,2.65,0,0,1,1.985-2.552,2.6,2.6,0,0,0-.662-.094,2.646,2.646,0,0,0,0,5.292,2.6,2.6,0,0,0,.662-.094A2.65,2.65,0,0,1,373.3,226.633Z" transform="translate(-326.739 -214.608)"/>
    </g>
    <g id="Grupo_328" data-name="Grupo 328" transform="translate(63.508 10.948)">
      <path id="Caminho_1061" data-name="Caminho 1061" class="cls-4" d="M385.96,226.633a2.65,2.65,0,0,1-1.984,2.552,2.6,2.6,0,0,0,.661.094,2.646,2.646,0,0,0,0-5.292,2.6,2.6,0,0,0-.661.094A2.65,2.65,0,0,1,385.96,226.633Z" transform="translate(-383.976 -214.474)"/>
      <path id="Caminho_1062" data-name="Caminho 1062" class="cls-4" d="M401.621,169.276s-.939,2.8-4.684,6.549v.159a11.21,11.21,0,0,0,1.323-.147v-.012c3.745-3.744,4.684-6.549,4.684-6.549a6.522,6.522,0,0,0-4.684-2.805c.022.112.034.221.05.331A6.425,6.425,0,0,1,401.621,169.276Z" transform="translate(-394.793 -166.471)"/>
      <path id="Caminho_1063" data-name="Caminho 1063" class="cls-4" d="M411.815,205.281s-2.646,1.323-7.938,1.323c0,.065-.014.125-.019.189.765.678,3.721,3.071,7.4,2.735a11.188,11.188,0,0,1-6.238-2.884l.185-.039c5.292,0,7.939-1.323,7.939-1.323a6.525,6.525,0,0,0-1.323-5.292,7.488,7.488,0,0,1-.73.918A6.415,6.415,0,0,1,411.815,205.281Z" transform="translate(-400.569 -194.445)"/>
      <path id="Caminho_1064" data-name="Caminho 1064" class="cls-4" d="M441.807,257.086a6.668,6.668,0,0,1-2.281,4.174,8.8,8.8,0,0,0,.828.37,6.523,6.523,0,0,0,2.805-4.684A7.6,7.6,0,0,1,441.807,257.086Z" transform="translate(-430.339 -241.982)"/>
      <path id="Caminho_1065" data-name="Caminho 1065" class="cls-4" d="M397.428,258.164c-.417-.371-.848-.772-1.295-1.218h-.159c.04.9.409,5.411,3.969,7.779a6.8,6.8,0,0,1-3.5,1.4,6.691,6.691,0,0,0,4.827-1.4A9.587,9.587,0,0,1,397.428,258.164Z" transform="translate(-393.99 -241.982)"/>
    </g>
    <g id="Grupo_329" data-name="Grupo 329" transform="translate(52.009 11.082)">
      <path id="Caminho_1066" data-name="Caminho 1066" class="cls-6" d="M351.8,175.272c.42.372.855.778,1.306,1.229l.146-.013c-.04-.939-.424-5.412-3.956-7.767a6.79,6.79,0,0,1,3.5-1.4,6.693,6.693,0,0,0-4.827,1.4A9.576,9.576,0,0,1,351.8,175.272Z" transform="translate(-342.434 -167.281)"/>
      <path id="Caminho_1067" data-name="Caminho 1067" class="cls-6" d="M318.089,195.075c-.514-.254-.828-.368-.828-.368a6.522,6.522,0,0,0-2.805,4.684,7.641,7.641,0,0,1,1.354-.142A6.683,6.683,0,0,1,318.089,195.075Z" transform="translate(-314.456 -190.171)"/>
      <path id="Caminho_1068" data-name="Caminho 1068" class="cls-6" d="M344.02,262.759s.939-2.805,4.684-6.55l-.013-.146a11.021,11.021,0,0,0-1.31.144v0c-3.744,3.744-4.684,6.55-4.684,6.55a6.523,6.523,0,0,0,4.684,2.8c-.022-.111-.032-.22-.049-.331A6.421,6.421,0,0,1,344.02,262.759Z" transform="translate(-338.026 -241.379)"/>
      <path id="Caminho_1069" data-name="Caminho 1069" class="cls-6" d="M316.71,226.416s2.646-1.323,7.938-1.323c0-.067.016-.131.019-.2-.777-.679-3.694-3.03-7.334-2.728a11.179,11.179,0,0,1,6.084,2.792l-.093.132c-5.292,0-7.938,1.323-7.938,1.323a6.525,6.525,0,0,0,1.323,5.292,7.77,7.77,0,0,1,.73-.917A6.417,6.417,0,0,1,316.71,226.416Z" transform="translate(-315.135 -213.068)"/>
    </g>
    <g id="Grupo_330" data-name="Grupo 330" transform="translate(5.953 41.63)">
      <rect id="Retângulo_433" data-name="Retângulo 433" class="cls-4" width="5.292" height="1.323" transform="translate(10.585 0)"/>
      <rect id="Retângulo_434" data-name="Retângulo 434" class="cls-4" width="2.646" height="1.323" transform="translate(0 0)"/>
    </g>
    <rect id="Retângulo_435" data-name="Retângulo 435" class="cls-7" width="6" height="2" transform="translate(5.677 2.689)"/>
    <rect id="Retângulo_436" data-name="Retângulo 436" class="cls-4" width="18.678" height="1.323" transform="translate(24.322 41.63)"/>
    <rect id="Retângulo_437" data-name="Retângulo 437" class="cls-6" height="37" transform="translate(3.677 4.689)"/>
    <rect id="Retângulo_438" data-name="Retângulo 438" class="cls-2" width="1.323" height="37.047" transform="translate(82.691 4.584)"/>
    <g id="Grupo_331" data-name="Grupo 331" transform="translate(5.953 42.953)">
      <rect id="Retângulo_439" data-name="Retângulo 439" class="cls-6" width="1.323" height="1.323" transform="translate(0 0)"/>
      <rect id="Retângulo_440" data-name="Retângulo 440" class="cls-6" width="1.323" height="2.646" transform="translate(10.585 0)"/>
    </g>
    <g id="Grupo_332" data-name="Grupo 332" transform="translate(5.666 -0.311)">
      <rect id="Retângulo_441" data-name="Retângulo 441" class="cls-4" width="1.323" height="2.646" transform="translate(14.842 43.263)"/>
      <rect id="Retângulo_442" data-name="Retângulo 442" class="cls-4" width="2" height="3" transform="translate(0.011)"/>
    </g>
    <rect id="Retângulo_443" data-name="Retângulo 443" class="cls-7" width="3" height="3" transform="translate(8.677 -0.311)"/>
    <rect id="Retângulo_444" data-name="Retângulo 444" class="cls-6" width="1.323" height="2.646" transform="translate(24.477 42.953)"/>
    <rect id="Retângulo_445" data-name="Retângulo 445" class="cls-4" width="1.323" height="2.646" transform="translate(41.677 42.953)"/>
    <g id="Grupo_333" data-name="Grupo 333" transform="translate(0 -0.047)">
      <path id="Caminho_1070" data-name="Caminho 1070" class="cls-5" d="M504.63,162.362a.661.661,0,0,1-.662-.662V124.655a.662.662,0,1,1,1.323,0V161.7A.661.661,0,0,1,504.63,162.362Z" transform="translate(-420.614 -120.024)"/>
      <path id="Caminho_1071" data-name="Caminho 1071" class="cls-5" d="M16.66,171.624a.661.661,0,0,1-.661-.662V124.655a.661.661,0,1,1,1.323,0v46.308A.661.661,0,0,1,16.66,171.624Z" transform="translate(-13.353 -120.024)"/>
      <path id="Caminho_1072" data-name="Caminho 1072" class="cls-5" d="M97.368,125.316H16.66a.662.662,0,0,1,0-1.323H97.368a.662.662,0,1,1,0,1.323Z" transform="translate(-13.353 -120.024)"/>
      <path id="Caminho_1073" data-name="Caminho 1073" class="cls-5" d="M97.368,349.3H16.66a.662.662,0,0,1,0-1.323H97.368a.662.662,0,1,1,0,1.323Z" transform="translate(-13.353 -306.964)"/>
      <path id="Caminho_1074" data-name="Caminho 1074" class="cls-5" d="M3.308,157.314H.661a.662.662,0,0,1,0-1.323H3.308a.662.662,0,1,1,0,1.323Z" transform="translate(0 -146.729)"/>
      <path id="Caminho_1075" data-name="Caminho 1075" class="cls-5" d="M48.658,167.715a.661.661,0,0,1-.661-.662v-34.4a.661.661,0,1,1,1.323,0v34.4A.661.661,0,0,1,48.658,167.715Z" transform="translate(-40.059 -126.7)"/>
      <path id="Caminho_1076" data-name="Caminho 1076" class="cls-5" d="M32.659,145.283a.661.661,0,0,1-.661-.662v-3.969a.661.661,0,1,1,1.323,0v3.969A.661.661,0,0,1,32.659,145.283Z" transform="translate(-26.706 -133.376)"/>
      <path id="Caminho_1077" data-name="Caminho 1077" class="cls-5" d="M.661,313.274A.661.661,0,0,1,0,312.613v-3.969a.661.661,0,0,1,1.323,0v3.969A.661.661,0,0,1,.661,313.274Z" transform="translate(0 -273.582)"/>
      <path id="Caminho_1078" data-name="Caminho 1078" class="cls-5" d="M9.984,293.306H8.661a.661.661,0,1,1,0-1.323H9.984a.661.661,0,1,1,0,1.323Z" transform="translate(-6.676 -260.229)"/>
      <path id="Caminho_1079" data-name="Caminho 1079" class="cls-5" d="M9.984,349.3H8.661a.662.662,0,1,1,0-1.323H9.984a.662.662,0,1,1,0,1.323Z" transform="translate(-6.676 -306.964)"/>
      <path id="Caminho_1080" data-name="Caminho 1080" class="cls-5" d="M48.658,358.625a.661.661,0,0,1-.661-.662v-1.323a.661.661,0,1,1,1.323,0v1.323A.661.661,0,0,1,48.658,358.625Z" transform="translate(-40.059 -313.64)"/>
      <path id="Caminho_1081" data-name="Caminho 1081" class="cls-5" d="M35.306,365.3H32.659a.662.662,0,0,1,0-1.323h2.646a.662.662,0,1,1,0,1.323Z" transform="translate(-26.706 -320.316)"/>
      <path id="Caminho_1082" data-name="Caminho 1082" class="cls-5" d="M32.659,358.625a.661.661,0,0,1-.661-.662v-1.323a.661.661,0,1,1,1.323,0v1.323A.661.661,0,0,1,32.659,358.625Z" transform="translate(-26.706 -313.64)"/>
      <path id="Caminho_1083" data-name="Caminho 1083" class="cls-5" d="M32.659,103.963A.661.661,0,0,1,32,103.3v-2.646a.661.661,0,1,1,1.323,0V103.3A.661.661,0,0,1,32.659,103.963Z" transform="translate(-26.706 -99.994)"/>
      <path id="Caminho_1084" data-name="Caminho 1084" class="cls-5" d="M37.952,101.317H32.659a.662.662,0,0,1,0-1.323h5.292a.662.662,0,0,1,0,1.323Z" transform="translate(-26.706 -99.994)"/>
      <path id="Caminho_1085" data-name="Caminho 1085" class="cls-5" d="M64.657,103.963A.661.661,0,0,1,64,103.3v-2.646a.662.662,0,1,1,1.323,0V103.3A.661.661,0,0,1,64.657,103.963Z" transform="translate(-53.411 -99.994)"/>
      <path id="Caminho_1086" data-name="Caminho 1086" class="cls-5" d="M48.658,102.64a.661.661,0,0,1-.661-.662v-1.323a.661.661,0,1,1,1.323,0v1.323A.661.661,0,0,1,48.658,102.64Z" transform="translate(-40.059 -99.994)"/>
      <path id="Caminho_1087" data-name="Caminho 1087" class="cls-5" d="M16.66,118.639a.661.661,0,0,1-.661-.662v-1.323a.661.661,0,1,1,1.323,0v1.323A.661.661,0,0,1,16.66,118.639Z" transform="translate(-13.353 -113.347)"/>
      <path id="Caminho_1088" data-name="Caminho 1088" class="cls-5" d="M80.656,110.639a.661.661,0,0,1-.661-.662v-1.323a.661.661,0,1,1,1.323,0v1.323A.661.661,0,0,1,80.656,110.639Z" transform="translate(-66.764 -106.67)"/>
      <path id="Caminho_1089" data-name="Caminho 1089" class="cls-5" d="M107.3,110.644a.667.667,0,0,1-.3-.07l-2.646-1.323a.662.662,0,0,1,.592-1.184l2.646,1.323a.661.661,0,0,1-.3,1.253Z" transform="translate(-86.793 -106.674)"/>
      <path id="Caminho_1090" data-name="Caminho 1090" class="cls-5" d="M139.3,110.644a.667.667,0,0,1-.3-.07l-2.646-1.323a.662.662,0,0,1,.592-1.184l2.646,1.323a.661.661,0,0,1-.3,1.253Z" transform="translate(-113.499 -106.674)"/>
      <path id="Caminho_1091" data-name="Caminho 1091" class="cls-5" d="M171.3,110.644a.667.667,0,0,1-.3-.07l-2.646-1.323a.662.662,0,0,1,.592-1.184l2.646,1.323a.661.661,0,0,1-.3,1.253Z" transform="translate(-140.205 -106.674)"/>
      <path id="Caminho_1092" data-name="Caminho 1092" class="cls-5" d="M203.3,110.644a.667.667,0,0,1-.3-.07l-2.646-1.323a.662.662,0,0,1,.592-1.184l2.646,1.323a.661.661,0,0,1-.3,1.253Z" transform="translate(-166.91 -106.674)"/>
      <path id="Caminho_1093" data-name="Caminho 1093" class="cls-5" d="M235.293,110.644a.667.667,0,0,1-.3-.07l-2.646-1.323a.662.662,0,0,1,.592-1.184l2.646,1.323a.661.661,0,0,1-.3,1.253Z" transform="translate(-193.616 -106.674)"/>
      <path id="Caminho_1094" data-name="Caminho 1094" class="cls-5" d="M267.291,110.644a.667.667,0,0,1-.3-.07l-2.646-1.323a.662.662,0,1,1,.592-1.184l2.646,1.323a.661.661,0,0,1-.3,1.253Z" transform="translate(-220.322 -106.674)"/>
      <path id="Caminho_1095" data-name="Caminho 1095" class="cls-5" d="M299.289,110.644a.667.667,0,0,1-.3-.07l-2.646-1.323a.662.662,0,0,1,.592-1.184l2.646,1.323a.661.661,0,0,1-.3,1.253Z" transform="translate(-247.028 -106.674)"/>
      <path id="Caminho_1096" data-name="Caminho 1096" class="cls-5" d="M331.287,110.644a.667.667,0,0,1-.3-.07l-2.646-1.323a.662.662,0,0,1,.592-1.184l2.646,1.323a.661.661,0,0,1-.3,1.253Z" transform="translate(-273.733 -106.674)"/>
      <path id="Caminho_1097" data-name="Caminho 1097" class="cls-5" d="M363.285,110.644a.667.667,0,0,1-.3-.07l-2.646-1.323a.662.662,0,0,1,.592-1.184l2.646,1.323a.661.661,0,0,1-.3,1.253Z" transform="translate(-300.439 -106.674)"/>
      <path id="Caminho_1098" data-name="Caminho 1098" class="cls-5" d="M395.283,110.644a.667.667,0,0,1-.3-.07l-2.646-1.323a.662.662,0,1,1,.592-1.184l2.646,1.323a.661.661,0,0,1-.3,1.253Z" transform="translate(-327.145 -106.674)"/>
      <path id="Caminho_1099" data-name="Caminho 1099" class="cls-5" d="M427.281,110.644a.667.667,0,0,1-.3-.07l-2.646-1.323a.662.662,0,0,1,.592-1.184l2.646,1.323a.661.661,0,0,1-.3,1.253Z" transform="translate(-353.85 -106.674)"/>
      <path id="Caminho_1100" data-name="Caminho 1100" class="cls-5" d="M459.279,110.644a.667.667,0,0,1-.3-.07l-2.646-1.323a.662.662,0,0,1,.592-1.184l2.646,1.323a.661.661,0,0,1-.3,1.253Z" transform="translate(-380.556 -106.674)"/>
      <path id="Caminho_1101" data-name="Caminho 1101" class="cls-5" d="M504.63,110.639a.661.661,0,0,1-.662-.662v-1.323a.662.662,0,1,1,1.323,0v1.323A.661.661,0,0,1,504.63,110.639Z" transform="translate(-420.614 -106.67)"/>
      <path id="Caminho_1102" data-name="Caminho 1102" class="cls-5" d="M150.779,109.317H80.656a.662.662,0,0,1,0-1.323H150.78a.662.662,0,1,1,0,1.323Z" transform="translate(-66.764 -106.671)"/>
      <path id="Caminho_1103" data-name="Caminho 1103" class="cls-5" d="M95.21,178.423a15.215,15.215,0,1,1,15.215-15.215A15.232,15.232,0,0,1,95.21,178.423Zm0-29.108A13.892,13.892,0,1,0,109.1,163.207,13.908,13.908,0,0,0,95.21,149.315Z" transform="translate(-66.764 -140.053)"/>
      <path id="Caminho_1104" data-name="Caminho 1104" class="cls-5" d="M161.978,172.59h-.662c-.013-5.066-1.242-7.619-1.255-7.645a.662.662,0,0,1,1.185-.59c.057.112,1.38,2.82,1.393,8.153Z" transform="translate(-133.532 -153.405)"/>
      <path id="Caminho_1105" data-name="Caminho 1105" class="cls-5" d="M132.622,181.252h0a.658.658,0,0,1-.658-.658c0-.017-.012-.127-.013-.143-.035-.826-.376-5.055-3.662-7.245a.662.662,0,0,1,.734-1.1c3.818,2.545,4.211,7.351,4.251,8.289a1.511,1.511,0,0,1,.013.2A.665.665,0,0,1,132.622,181.252Z" transform="translate(-106.822 -160.087)"/>
      <path id="Caminho_1106" data-name="Caminho 1106" class="cls-5" d="M128.653,166.041a.661.661,0,0,1-.4-1.187,7.159,7.159,0,0,1,5.863-1.437.662.662,0,1,1-.339,1.279,5.831,5.831,0,0,0-4.721,1.209A.66.66,0,0,1,128.653,166.041Z" transform="translate(-106.823 -152.81)"/>
      <path id="Caminho_1107" data-name="Caminho 1107" class="cls-5" d="M155.3,226.6a3.308,3.308,0,1,1,3.308-3.308A3.311,3.311,0,0,1,155.3,226.6Zm0-5.292a1.985,1.985,0,1,0,1.985,1.985A1.987,1.987,0,0,0,155.3,221.31Z" transform="translate(-126.852 -200.141)"/>
      <path id="Caminho_1108" data-name="Caminho 1108" class="cls-5" d="M169.974,269.246a.661.661,0,0,1-.592-.366c-.057-.114-1.393-2.848-1.393-8.234a.662.662,0,0,1,1.323,0c0,5.039,1.242,7.618,1.255,7.644a.664.664,0,0,1-.593.956Z" transform="translate(-140.204 -233.523)"/>
      <path id="Caminho_1109" data-name="Caminho 1109" class="cls-5" d="M188.619,261.247a.663.663,0,0,1-.367-.111c-3.819-2.54-4.221-7.36-4.263-8.3v-.189a.662.662,0,1,1,1.323,0v.159c.036.8.386,5.042,3.675,7.229a.662.662,0,0,1-.367,1.212Z" transform="translate(-153.557 -226.846)"/>
      <path id="Caminho_1110" data-name="Caminho 1110" class="cls-5" d="M177.8,302.747a5.542,5.542,0,0,1-1.323-.141.662.662,0,0,1,.339-1.279,5.844,5.844,0,0,0,4.721-1.208.661.661,0,1,1,.8,1.049A7.416,7.416,0,0,1,177.8,302.747Z" transform="translate(-146.881 -266.905)"/>
      <path id="Caminho_1111" data-name="Caminho 1111" class="cls-5" d="M118.646,196.716a.66.66,0,0,1-.468-.194c-3.566-3.566-6.267-4.516-6.294-4.525a.662.662,0,0,1,.423-1.254c.12.04,3,1.032,6.807,4.843a.662.662,0,0,1-.468,1.129Z" transform="translate(-93.005 -175.705)"/>
      <path id="Caminho_1112" data-name="Caminho 1112" class="cls-5" d="M103.545,222.4a.66.66,0,0,1-.464-.19l-.139-.14c-.843-.748-3.993-3.23-7.681-2.489a.662.662,0,0,1-.261-1.3c4.288-.864,7.862,1.945,8.853,2.827l.156.155a.661.661,0,0,1-.464,1.133Z" transform="translate(-78.844 -198.582)"/>
      <path id="Caminho_1113" data-name="Caminho 1113" class="cls-5" d="M95.13,196.715a.675.675,0,0,1-.088-.006.662.662,0,0,1-.57-.742A7.154,7.154,0,0,1,97.6,190.8a.661.661,0,1,1,.664,1.143,5.833,5.833,0,0,0-2.481,4.2A.662.662,0,0,1,95.13,196.715Z" transform="translate(-78.843 -175.705)"/>
      <path id="Caminho_1114" data-name="Caminho 1114" class="cls-5" d="M192.16,258.953a.661.661,0,0,1-.211-.034c-.12-.041-3-1.034-6.806-4.844a.661.661,0,1,1,.935-.935c3.566,3.566,6.266,4.516,6.294,4.525a.662.662,0,0,1-.212,1.288Z" transform="translate(-154.36 -227.649)"/>
      <path id="Caminho_1115" data-name="Caminho 1115" class="cls-5" d="M199.456,241.243a11.557,11.557,0,0,1-7.312-3.094l.411-.523.468-.468c.638.6,3.9,3.418,7.817,2.624a.662.662,0,0,1,.261,1.3A8.325,8.325,0,0,1,199.456,241.243Z" transform="translate(-160.364 -214.472)"/>
      <path id="Caminho_1116" data-name="Caminho 1116" class="cls-5" d="M225.207,258.95a.661.661,0,0,1-.332-1.233,5.835,5.835,0,0,0,2.481-4.2.662.662,0,0,1,1.313.173,7.149,7.149,0,0,1-3.129,5.168A.645.645,0,0,1,225.207,258.95Z" transform="translate(-187.407 -227.646)"/>
      <path id="Caminho_1117" data-name="Caminho 1117" class="cls-5" d="M96.661,238.631a.661.661,0,0,1-.3-1.253c.114-.057,2.848-1.393,8.234-1.393a.662.662,0,1,1,0,1.323c-5.039,0-7.619,1.242-7.644,1.254A.664.664,0,0,1,96.661,238.631Z" transform="translate(-80.121 -213.494)"/>
      <path id="Caminho_1118" data-name="Caminho 1118" class="cls-5" d="M104.654,257.27a.662.662,0,0,1-.55-1.028c2.545-3.817,7.352-4.21,8.289-4.25a.969.969,0,0,1,.2-.014.662.662,0,0,1,0,1.323l-.143.012c-.826.036-5.055.377-7.245,3.662A.661.661,0,0,1,104.654,257.27Z" transform="translate(-86.793 -226.839)"/>
      <path id="Caminho_1119" data-name="Caminho 1119" class="cls-5" d="M97.378,250.6a.66.66,0,0,1-.526-.26,7.156,7.156,0,0,1-1.437-5.863.662.662,0,0,1,1.279.339,5.834,5.834,0,0,0,1.209,4.721.661.661,0,0,1-.124.926A.652.652,0,0,1,97.378,250.6Z" transform="translate(-79.517 -220.168)"/>
      <path id="Caminho_1120" data-name="Caminho 1120" class="cls-5" d="M192.649,230.638a.662.662,0,0,1,0-1.323c5.039,0,7.619-1.242,7.644-1.254a.662.662,0,0,1,.59,1.184C200.77,229.3,198.036,230.638,192.649,230.638Z" transform="translate(-160.234 -206.823)"/>
      <path id="Caminho_1121" data-name="Caminho 1121" class="cls-5" d="M184.65,201.283a.662.662,0,0,1,0-1.323h.159c.8-.036,5.039-.383,7.229-3.674a.661.661,0,1,1,1.1.733c-2.544,3.823-7.361,4.223-8.3,4.264Z" transform="translate(-153.557 -180.113)"/>
      <path id="Caminho_1122" data-name="Caminho 1122" class="cls-5" d="M233.97,202.606a.662.662,0,0,1-.639-.831,5.834,5.834,0,0,0-1.209-4.721.662.662,0,0,1,1.052-.8,7.157,7.157,0,0,1,1.437,5.863A.663.663,0,0,1,233.97,202.606Z" transform="translate(-193.616 -180.114)"/>
      <path id="Caminho_1123" data-name="Caminho 1123" class="cls-5" d="M123.374,260.818a.672.672,0,0,1-.212-.035.66.66,0,0,1-.415-.836c.04-.12,1.032-3,4.843-6.807a.661.661,0,0,1,.935.935c-3.566,3.566-4.516,6.267-4.525,6.294A.665.665,0,0,1,123.374,260.818Z" transform="translate(-102.417 -227.649)"/>
      <path id="Caminho_1124" data-name="Caminho 1124" class="cls-5" d="M150.935,268.364a.662.662,0,0,1-.647-.531c-.862-4.3,1.946-7.862,2.827-8.852l.163-.164a.662.662,0,0,1,.928.943l-.124.125c-.756.85-3.238,3.993-2.5,7.688a.66.66,0,0,1-.518.778A.568.568,0,0,1,150.935,268.364Z" transform="translate(-125.296 -232.39)"/>
      <path id="Caminho_1125" data-name="Caminho 1125" class="cls-5" d="M128.055,296.667a.688.688,0,0,1-.088-.005,7.156,7.156,0,0,1-5.17-3.129.662.662,0,0,1,1.145-.664,5.835,5.835,0,0,0,4.2,2.482.661.661,0,0,1-.085,1.317Z" transform="translate(-102.413 -260.694)"/>
      <path id="Caminho_1126" data-name="Caminho 1126" class="cls-5" d="M185.611,187.309a.662.662,0,0,1-.468-1.129c3.566-3.566,4.516-6.267,4.525-6.293a.661.661,0,0,1,1.253.422c-.04.121-1.032,3-4.843,6.807A.66.66,0,0,1,185.611,187.309Z" transform="translate(-154.36 -166.299)"/>
      <path id="Caminho_1127" data-name="Caminho 1127" class="cls-5" d="M168.655,172.207a.662.662,0,0,1-.47-1.127c.009-.008.1-.1.247-.271.741-.857,3.1-3.94,2.379-7.547a.662.662,0,1,1,1.3-.26c.841,4.195-1.835,7.7-2.675,8.672-.193.222-.311.34-.311.34A.661.661,0,0,1,168.655,172.207Z" transform="translate(-140.207 -152.138)"/>
      <path id="Caminho_1128" data-name="Caminho 1128" class="cls-5" d="M190.291,166.6a.661.661,0,0,1-.572-.329,5.833,5.833,0,0,0-4.2-2.481.661.661,0,1,1,.173-1.311,7.159,7.159,0,0,1,5.17,3.129.662.662,0,0,1-.572.993Z" transform="translate(-154.356 -152.138)"/>
      <path id="Caminho_1129" data-name="Caminho 1129" class="cls-5" d="M311.2,178.423a15.215,15.215,0,1,1,15.216-15.215A15.232,15.232,0,0,1,311.2,178.423Zm0-29.108a13.892,13.892,0,1,0,13.892,13.892A13.908,13.908,0,0,0,311.2,149.315Z" transform="translate(-247.027 -140.053)"/>
      <path id="Caminho_1130" data-name="Caminho 1130" class="cls-5" d="M377.964,172.59H377.3c-.013-5.066-1.242-7.619-1.255-7.645a.662.662,0,0,1,1.185-.59c.057.112,1.38,2.82,1.393,8.153Z" transform="translate(-313.795 -153.405)"/>
      <path id="Caminho_1131" data-name="Caminho 1131" class="cls-5" d="M348.608,181.252h0a.658.658,0,0,1-.658-.658c0-.017-.012-.127-.013-.143-.035-.826-.376-5.055-3.662-7.245a.662.662,0,1,1,.734-1.1c3.818,2.545,4.211,7.351,4.251,8.289a1.506,1.506,0,0,1,.013.2A.665.665,0,0,1,348.608,181.252Z" transform="translate(-287.085 -160.087)"/>
      <path id="Caminho_1132" data-name="Caminho 1132" class="cls-5" d="M344.639,166.041a.661.661,0,0,1-.4-1.187,7.16,7.16,0,0,1,5.863-1.437.662.662,0,1,1-.339,1.279,5.831,5.831,0,0,0-4.721,1.209A.66.66,0,0,1,344.639,166.041Z" transform="translate(-287.086 -152.81)"/>
      <path id="Caminho_1133" data-name="Caminho 1133" class="cls-5" d="M371.284,226.6a3.308,3.308,0,1,1,3.308-3.308A3.311,3.311,0,0,1,371.284,226.6Zm0-5.292a1.985,1.985,0,1,0,1.985,1.985A1.987,1.987,0,0,0,371.284,221.31Z" transform="translate(-307.115 -200.141)"/>
      <path id="Caminho_1134" data-name="Caminho 1134" class="cls-5" d="M385.96,269.246a.662.662,0,0,1-.592-.366c-.057-.114-1.393-2.848-1.393-8.234a.661.661,0,1,1,1.323,0c0,5.039,1.242,7.618,1.254,7.644a.664.664,0,0,1-.593.956Z" transform="translate(-320.468 -233.523)"/>
      <path id="Caminho_1135" data-name="Caminho 1135" class="cls-5" d="M404.6,261.247a.663.663,0,0,1-.367-.111c-3.819-2.54-4.221-7.36-4.262-8.3v-.189a.662.662,0,1,1,1.323,0v.159c.036.8.386,5.042,3.675,7.229a.662.662,0,0,1-.367,1.212Z" transform="translate(-333.82 -226.846)"/>
      <path id="Caminho_1136" data-name="Caminho 1136" class="cls-5" d="M393.79,302.747a5.54,5.54,0,0,1-1.323-.141.662.662,0,1,1,.339-1.279,5.843,5.843,0,0,0,4.721-1.208.661.661,0,1,1,.8,1.049A7.416,7.416,0,0,1,393.79,302.747Z" transform="translate(-327.144 -266.905)"/>
      <path id="Caminho_1137" data-name="Caminho 1137" class="cls-5" d="M334.632,196.716a.66.66,0,0,1-.468-.194c-3.566-3.566-6.266-4.516-6.294-4.525a.662.662,0,0,1,.423-1.254c.12.04,3,1.032,6.806,4.843a.662.662,0,0,1-.468,1.129Z" transform="translate(-273.268 -175.705)"/>
      <path id="Caminho_1138" data-name="Caminho 1138" class="cls-5" d="M319.532,222.4a.66.66,0,0,1-.464-.19l-.14-.14c-.842-.748-4-3.23-7.681-2.489a.662.662,0,0,1-.261-1.3c4.288-.864,7.862,1.945,8.853,2.827l.156.155a.661.661,0,0,1-.464,1.133Z" transform="translate(-259.107 -198.582)"/>
      <path id="Caminho_1139" data-name="Caminho 1139" class="cls-5" d="M311.117,196.715a.68.68,0,0,1-.088-.006.662.662,0,0,1-.57-.742,7.154,7.154,0,0,1,3.129-5.169.661.661,0,1,1,.664,1.143,5.834,5.834,0,0,0-2.481,4.2A.662.662,0,0,1,311.117,196.715Z" transform="translate(-259.106 -175.705)"/>
      <path id="Caminho_1140" data-name="Caminho 1140" class="cls-5" d="M408.147,258.953a.661.661,0,0,1-.211-.034c-.12-.041-3-1.034-6.807-4.844a.662.662,0,1,1,.936-.935c3.566,3.566,6.267,4.516,6.294,4.525a.662.662,0,0,1-.212,1.288Z" transform="translate(-334.624 -227.649)"/>
      <path id="Caminho_1141" data-name="Caminho 1141" class="cls-5" d="M415.442,241.243a11.558,11.558,0,0,1-7.312-3.094l.411-.523.468-.468c.638.6,3.9,3.418,7.817,2.624a.662.662,0,0,1,.261,1.3A8.324,8.324,0,0,1,415.442,241.243Z" transform="translate(-340.627 -214.472)"/>
      <path id="Caminho_1142" data-name="Caminho 1142" class="cls-5" d="M441.194,258.95a.661.661,0,0,1-.332-1.233,5.835,5.835,0,0,0,2.481-4.2.662.662,0,0,1,1.313.173,7.149,7.149,0,0,1-3.129,5.168A.645.645,0,0,1,441.194,258.95Z" transform="translate(-367.671 -227.646)"/>
      <path id="Caminho_1143" data-name="Caminho 1143" class="cls-5" d="M312.647,238.631a.661.661,0,0,1-.3-1.253c.114-.057,2.848-1.393,8.234-1.393a.662.662,0,0,1,0,1.323c-5.039,0-7.619,1.242-7.644,1.254A.663.663,0,0,1,312.647,238.631Z" transform="translate(-260.384 -213.494)"/>
      <path id="Caminho_1144" data-name="Caminho 1144" class="cls-5" d="M320.641,257.27a.661.661,0,0,1-.55-1.028c2.545-3.817,7.352-4.21,8.288-4.25a.969.969,0,0,1,.2-.014.662.662,0,0,1,0,1.323l-.143.012c-.826.036-5.055.377-7.245,3.662A.661.661,0,0,1,320.641,257.27Z" transform="translate(-267.057 -226.839)"/>
      <path id="Caminho_1145" data-name="Caminho 1145" class="cls-5" d="M313.364,250.6a.66.66,0,0,1-.526-.26,7.156,7.156,0,0,1-1.437-5.863.662.662,0,0,1,1.279.339,5.834,5.834,0,0,0,1.209,4.721.661.661,0,0,1-.124.926A.653.653,0,0,1,313.364,250.6Z" transform="translate(-259.78 -220.168)"/>
      <path id="Caminho_1146" data-name="Caminho 1146" class="cls-5" d="M408.636,230.638a.662.662,0,0,1,0-1.323c5.039,0,7.619-1.242,7.644-1.254a.662.662,0,0,1,.59,1.184C416.756,229.3,414.022,230.638,408.636,230.638Z" transform="translate(-340.497 -206.823)"/>
      <path id="Caminho_1147" data-name="Caminho 1147" class="cls-5" d="M400.636,201.283a.662.662,0,1,1,0-1.323h.159c.8-.036,5.039-.383,7.229-3.674a.661.661,0,1,1,1.1.733c-2.544,3.823-7.361,4.223-8.3,4.264Z" transform="translate(-333.82 -180.113)"/>
      <path id="Caminho_1148" data-name="Caminho 1148" class="cls-5" d="M449.956,202.606a.662.662,0,0,1-.64-.831,5.833,5.833,0,0,0-1.209-4.721.662.662,0,0,1,1.052-.8,7.156,7.156,0,0,1,1.437,5.863A.662.662,0,0,1,449.956,202.606Z" transform="translate(-373.879 -180.114)"/>
      <path id="Caminho_1149" data-name="Caminho 1149" class="cls-5" d="M339.36,260.818a.672.672,0,0,1-.212-.035.66.66,0,0,1-.415-.836c.04-.12,1.032-3,4.843-6.807a.662.662,0,0,1,.936.935c-3.566,3.566-4.516,6.267-4.525,6.294A.665.665,0,0,1,339.36,260.818Z" transform="translate(-282.68 -227.649)"/>
      <path id="Caminho_1150" data-name="Caminho 1150" class="cls-5" d="M366.921,268.364a.662.662,0,0,1-.647-.531c-.862-4.3,1.946-7.862,2.827-8.852l.163-.164a.661.661,0,0,1,.928.943l-.124.125c-.756.85-3.238,3.993-2.5,7.688a.66.66,0,0,1-.518.778A.567.567,0,0,1,366.921,268.364Z" transform="translate(-305.559 -232.39)"/>
      <path id="Caminho_1151" data-name="Caminho 1151" class="cls-5" d="M344.041,296.667a.687.687,0,0,1-.088-.005,7.156,7.156,0,0,1-5.17-3.129.662.662,0,0,1,1.145-.664,5.835,5.835,0,0,0,4.2,2.482.661.661,0,0,1-.085,1.317Z" transform="translate(-282.676 -260.694)"/>
      <path id="Caminho_1152" data-name="Caminho 1152" class="cls-5" d="M401.6,187.309a.662.662,0,0,1-.468-1.129c3.566-3.566,4.516-6.267,4.525-6.293a.661.661,0,0,1,1.253.422c-.04.121-1.032,3-4.843,6.807A.66.66,0,0,1,401.6,187.309Z" transform="translate(-334.623 -166.299)"/>
      <path id="Caminho_1153" data-name="Caminho 1153" class="cls-5" d="M384.642,172.207a.662.662,0,0,1-.47-1.127c.009-.008.1-.1.247-.271.741-.857,3.1-3.94,2.379-7.547a.662.662,0,1,1,1.3-.26c.841,4.195-1.835,7.7-2.675,8.672-.193.222-.312.34-.312.34A.66.66,0,0,1,384.642,172.207Z" transform="translate(-320.471 -152.138)"/>
      <path id="Caminho_1154" data-name="Caminho 1154" class="cls-5" d="M406.278,166.6a.66.66,0,0,1-.572-.329,5.834,5.834,0,0,0-4.2-2.481.661.661,0,1,1,.173-1.311,7.158,7.158,0,0,1,5.17,3.129.662.662,0,0,1-.572.993Z" transform="translate(-334.62 -152.138)"/>
      <path id="Caminho_1155" data-name="Caminho 1155" class="cls-5" d="M96.655,359.948a.661.661,0,0,1-.661-.662v-2.646a.661.661,0,1,1,1.323,0v2.646A.661.661,0,0,1,96.655,359.948Z" transform="translate(-80.117 -313.64)"/>
      <path id="Caminho_1156" data-name="Caminho 1156" class="cls-5" d="M101.948,373.3H96.655a.661.661,0,0,1,0-1.323h5.292a.661.661,0,1,1,0,1.323Z" transform="translate(-80.117 -326.993)"/>
      <path id="Caminho_1157" data-name="Caminho 1157" class="cls-5" d="M128.653,359.948a.661.661,0,0,1-.661-.662v-2.646a.661.661,0,1,1,1.323,0v2.646A.661.661,0,0,1,128.653,359.948Z" transform="translate(-106.823 -313.64)"/>
      <path id="Caminho_1158" data-name="Caminho 1158" class="cls-5" d="M144.652,359.948a.661.661,0,0,1-.661-.662v-2.646a.661.661,0,1,1,1.323,0v2.646A.661.661,0,0,1,144.652,359.948Z" transform="translate(-120.176 -313.64)"/>
      <path id="Caminho_1159" data-name="Caminho 1159" class="cls-5" d="M163.175,373.3H144.652a.661.661,0,0,1,0-1.323h18.523a.661.661,0,1,1,0,1.323Z" transform="translate(-120.176 -326.993)"/>
      <path id="Caminho_1160" data-name="Caminho 1160" class="cls-5" d="M256.645,359.948a.661.661,0,0,1-.661-.662v-2.646a.661.661,0,1,1,1.323,0v2.646A.661.661,0,0,1,256.645,359.948Z" transform="translate(-213.646 -313.64)"/>
      <path id="Caminho_1161" data-name="Caminho 1161" class="cls-5" d="M272.644,358.625a.661.661,0,0,1-.662-.662v-1.323a.662.662,0,1,1,1.323,0v1.323A.661.661,0,0,1,272.644,358.625Z" transform="translate(-226.998 -313.64)"/>
      <path id="Caminho_1162" data-name="Caminho 1162" class="cls-5" d="M17.984,405.3H16.66a.661.661,0,0,1,0-1.323h1.323a.661.661,0,1,1,0,1.323Z" transform="translate(-13.353 -353.699)"/>
      <path id="Caminho_1163" data-name="Caminho 1163" class="cls-5" d="M160.651,369.963a.661.661,0,0,1-.661-.662v-.661a.661.661,0,1,1,1.323,0v.661A.661.661,0,0,1,160.651,369.963Z" transform="translate(-133.528 -323.655)"/>
      <path id="Caminho_1164" data-name="Caminho 1164" class="cls-5" d="M112.654,369.963a.661.661,0,0,1-.661-.662v-.661a.661.661,0,1,1,1.323,0v.661A.661.661,0,0,1,112.654,369.963Z" transform="translate(-93.47 -323.655)"/>
      <path id="Caminho_1165" data-name="Caminho 1165" class="cls-5" d="M176.65,369.963a.661.661,0,0,1-.661-.662v-.661a.661.661,0,1,1,1.323,0v.661A.661.661,0,0,1,176.65,369.963Z" transform="translate(-146.881 -323.655)"/>
      <path id="Caminho_1166" data-name="Caminho 1166" class="cls-5" d="M192.649,369.963a.661.661,0,0,1-.661-.662v-.661a.661.661,0,1,1,1.323,0v.661A.661.661,0,0,1,192.649,369.963Z" transform="translate(-160.234 -323.655)"/>
      <path id="Caminho_1167" data-name="Caminho 1167" class="cls-5" d="M208.648,369.963a.661.661,0,0,1-.661-.662v-.661a.661.661,0,1,1,1.323,0v.661A.661.661,0,0,1,208.648,369.963Z" transform="translate(-173.587 -323.655)"/>
      <path id="Caminho_1168" data-name="Caminho 1168" class="cls-5" d="M224.647,369.963a.661.661,0,0,1-.661-.662v-.661a.661.661,0,1,1,1.323,0v.661A.661.661,0,0,1,224.647,369.963Z" transform="translate(-186.94 -323.655)"/>
      <path id="Caminho_1169" data-name="Caminho 1169" class="cls-5" d="M240.646,369.963a.661.661,0,0,1-.661-.662v-.661a.661.661,0,1,1,1.323,0v.661A.661.661,0,0,1,240.646,369.963Z" transform="translate(-200.293 -323.655)"/>
      <path id="Caminho_1170" data-name="Caminho 1170" class="cls-5" d="M274.073,365.3h-1.429a.662.662,0,0,1,0-1.323h1.429a.662.662,0,0,1,0,1.323Z" transform="translate(-226.998 -320.316)"/>
    </g>
  </g>
</svg>
